<svg width="40" height="40" viewBox="0 0 40 40" fill="none" xmlns="http://www.w3.org/2000/svg">
<path d="M35.2589 6.09567C35.1394 5.97615 34.9801 5.89646 34.8207 5.89646H28.7649V3.10762C28.7649 2.78889 28.486 2.51001 28.1673 2.51001H11.1554C10.8366 2.51001 10.5577 2.78889 10.5577 3.10762V5.89646H4.3426C4.18324 5.89646 4.02388 5.97615 3.90436 6.09567C3.78484 6.21519 3.745 6.37455 3.745 6.53391C3.745 6.65344 3.86452 9.20324 4.78085 12.1514C6.05575 16.0957 8.20715 18.8845 11.0757 20.1594C12.0318 23.3467 14.2231 25.8566 16.9721 26.8526V26.9722C16.9721 30.2789 14.4621 32.9084 11.235 32.9084C10.9163 32.9084 10.6374 33.1873 10.6374 33.506V36.8925C10.6374 37.2112 10.9163 37.4901 11.235 37.4901H28.1673C28.486 37.4901 28.7649 37.2112 28.7649 36.8925V33.506C28.7649 33.1873 28.486 32.9084 28.1673 32.9084C24.9004 32.9084 22.2311 30.2391 22.2311 26.9722V26.8925C25.0996 25.8965 27.3307 23.3467 28.2868 20.0797C31.0358 18.765 33.1474 16.016 34.3824 12.1514C35.3386 9.20324 35.4183 6.6136 35.4183 6.53391C35.4581 6.37455 35.3785 6.21519 35.2589 6.09567ZM4.98006 7.09168H10.5577V16.6534C10.5577 17.3307 10.5976 17.9682 10.7171 18.6056C6.17527 15.8965 5.17926 9.1634 4.98006 7.09168ZM27.5697 34.0638V36.255H11.8326V34.0638C15.3386 33.7849 18.0478 30.8765 18.1275 27.1714C18.6056 27.251 19.1235 27.3307 19.6414 27.3307C20.1195 27.3307 20.5976 27.2909 21.0358 27.2112C21.1952 30.8367 24.0239 33.7849 27.5697 34.0638ZM21.235 25.9761C20.7171 26.0957 20.1992 26.1753 19.6813 26.1753C19.0836 26.1753 18.486 26.0957 17.9283 25.9363C17.8087 25.8965 17.6095 25.8168 17.5299 25.8168C14.2231 24.7012 11.753 21.0359 11.753 16.6933V3.74507H27.5697V6.13551V6.89248V16.6933C27.5697 21.0359 25.0996 24.7012 21.753 25.8168L21.235 25.9761ZM28.6454 18.5259C28.7251 17.9283 28.8048 17.2909 28.8048 16.6534V7.09168H34.2231C34.0239 9.1634 33.0677 15.6973 28.6454 18.5259Z" fill="white"/>
<path d="M25.6853 11.224L22.4184 10.7459L20.9443 7.75784C20.7849 7.43912 20.4264 7.20007 20.0678 7.20007C19.7092 7.20007 19.3507 7.39928 19.1913 7.75784L17.7172 10.7459L14.4503 11.224C14.0917 11.2638 13.773 11.5427 13.6535 11.9013C13.5339 12.2598 13.6136 12.6582 13.8925 12.8973L16.2829 15.208L15.7252 18.475C15.6455 18.8335 15.8048 19.1921 16.1236 19.4312C16.2829 19.5507 16.4821 19.6304 16.7212 19.6304C16.8805 19.6304 17.0399 19.5905 17.1594 19.5108L20.1873 17.9969L23.0558 19.5108C23.3746 19.6702 23.773 19.6702 24.0917 19.4312C24.4104 19.1921 24.5299 18.8335 24.4901 18.475L23.9323 15.208L26.3228 12.8973C26.6017 12.6184 26.6813 12.2598 26.5618 11.9013C26.3626 11.5427 26.0837 11.2638 25.6853 11.224ZM22.8168 14.5706C22.6574 14.6901 22.6176 14.8893 22.6574 15.0885L23.2152 18.2359L20.4662 16.8017C20.3068 16.722 20.1076 16.722 19.9084 16.8017L16.9602 18.2758L17.518 15.0885C17.5578 14.8893 17.4782 14.6901 17.3586 14.5706L15.0877 12.3395L18.2351 11.8614C18.4343 11.8216 18.5937 11.7021 18.6734 11.5427L20.0678 8.67418L21.4622 11.5427C21.5419 11.7021 21.7013 11.8614 21.9005 11.8614L25.0479 12.3395L22.8168 14.5706Z" fill="white"/>
</svg>
