<svg width="40" height="40" viewBox="0 0 40 40" fill="none" xmlns="http://www.w3.org/2000/svg">
<path d="M9.9506 9.63376L9.9507 9.63374C10.5794 9.49599 11.2469 9.53039 11.9357 9.73903C11.9357 9.73903 11.9357 9.73903 11.9357 9.73903L14.678 10.5702C15.7674 10.9007 16.8647 11.0661 17.9627 11.0661C19.0606 11.0661 20.1583 10.9007 21.2474 10.5703L23.9897 9.73903C24.8831 9.46837 25.7311 9.48969 26.5139 9.79801L26.5139 9.79802C26.7657 9.89713 27.0507 9.77351 27.1501 9.52132L27.1502 9.52131C27.2495 9.26919 27.1255 8.98434 26.8734 8.88505C25.8773 8.49265 24.8102 8.46527 23.7052 8.79996L23.7051 8.79997L20.9626 9.63122L20.9626 9.63123C18.9716 10.2352 16.9538 10.2352 14.9627 9.63123L14.9627 9.63122L12.2202 8.79997L12.2202 8.79996C11.3726 8.54328 10.5379 8.50049 9.74055 8.67525C9.47586 8.73325 9.3084 8.99487 9.36638 9.25957L9.36638 9.25958C9.4244 9.52437 9.68616 9.69142 9.9506 9.63376Z" fill="white" stroke="white" stroke-width="0.2"/>
<path d="M23.2633 38.3469H23.2628L23.2479 38.3468C23.2479 38.3468 23.2479 38.3468 23.2479 38.3468C22.4628 38.3429 21.8012 37.7175 21.7406 36.9251M23.2633 38.3469L23.2484 38.2468C22.5166 38.2432 21.897 37.6592 21.8403 36.9175C21.4579 31.9273 19.5936 25.8318 17.9628 25.8318C16.332 25.8318 14.4677 31.9276 14.0853 36.9178M23.2633 38.3469C24.6186 38.3469 25.8355 37.3464 26.1636 35.9741L29.491 22.0607L29.3938 22.0374L29.491 22.0607C29.554 21.7971 29.3915 21.5325 29.128 21.4694L29.1047 21.5666L29.1281 21.4694C28.8644 21.4058 28.5996 21.5691 28.5366 21.8324L25.2092 35.7459C24.9877 36.6721 24.1463 37.3655 23.2631 37.3655L23.2548 37.3655C23.2547 37.3655 23.2546 37.3655 23.2544 37.3655C22.9789 37.364 22.7409 37.1398 22.7188 36.8502L22.7188 36.8502M23.2633 38.3469L22.7188 36.8502M21.7406 36.9251L21.8349 36.9179L21.7406 36.9251C21.7406 36.9251 21.7406 36.9251 21.7406 36.9251ZM21.7406 36.9251C21.55 34.4379 20.9899 31.6746 20.2749 29.535C19.9172 28.4647 19.5223 27.5553 19.1183 26.9156C18.9163 26.5956 18.7144 26.3471 18.5172 26.1797C18.3198 26.012 18.1345 25.9318 17.9628 25.9318C17.7912 25.9318 17.6059 26.012 17.4084 26.1797C17.2111 26.3471 17.0093 26.5956 16.8073 26.9156C16.4033 27.5554 16.0084 28.4648 15.6507 29.5351C14.9357 31.6748 14.3756 34.4382 14.185 36.9254L14.0853 36.9178M14.0853 36.9178L14.185 36.9254C14.1243 37.7178 13.4628 38.3428 12.6758 38.3469L12.6753 38.3469L12.6623 38.3469C11.3069 38.3469 10.09 37.3465 9.76181 35.9742L5.54673 18.3494C5.23396 17.0417 5.16004 15.735 5.32758 14.4661L9.85907 35.9509C10.1772 37.2813 11.3562 38.2469 12.6623 38.2469H12.6753C13.4091 38.243 14.0284 37.6594 14.0853 36.9178ZM5.87813 14.0439L5.87816 14.0439C6.14674 14.0793 6.33583 14.3259 6.30032 14.5945L5.87813 14.0439ZM5.87813 14.0439C5.60963 14.0086 5.36303 14.1974 5.32759 14.4661L5.87813 14.0439ZM6.50109 18.1211L6.50109 18.1211L10.7161 35.7459C10.9377 36.6721 11.779 37.3655 12.6623 37.3655H12.6623H12.6623H12.6623H12.6623H12.6624H12.6624H12.6624H12.6624H12.6624H12.6624H12.6625H12.6625H12.6625H12.6625H12.6625H12.6626H12.6626H12.6626H12.6626H12.6626H12.6627H12.6627H12.6627H12.6627H12.6628H12.6628H12.6628H12.6628H12.6629H12.6629H12.6629H12.6629H12.663H12.663H12.663H12.663H12.663H12.663H12.663H12.6631H12.6631H12.6631H12.6631H12.6631H12.6631H12.6632H12.6632H12.6632H12.6632H12.6632H12.6632H12.6632H12.6633H12.6633H12.6633H12.6633H12.6633H12.6633H12.6634H12.6634H12.6634H12.6634H12.6634H12.6635H12.6635H12.6635H12.6635H12.6635H12.6635H12.6636H12.6636H12.6636H12.6636H12.6636H12.6636H12.6637H12.6637H12.6637H12.6637H12.6637H12.6638H12.6638H12.6638H12.6638H12.6638H12.6639H12.6639H12.6639H12.6639H12.6639H12.6639H12.664H12.664H12.664H12.664H12.664H12.6641H12.6641H12.6641H12.6641H12.6641H12.6642H12.6642H12.6642H12.6642H12.6642H12.6643H12.6643H12.6643H12.6643H12.6644H12.6644H12.6644H12.6644H12.6644H12.6645H12.6645H12.6645H12.6645H12.6645H12.6646H12.6646H12.6646H12.6646H12.6647H12.6647H12.6647H12.6647H12.6647H12.6648H12.6648H12.6648H12.6648H12.6649H12.6649H12.6649H12.6649H12.6649H12.665H12.665H12.665H12.665H12.6651H12.6651H12.6651H12.6651H12.6651H12.6652H12.6652H12.6652H12.6652H12.6653H12.6653H12.6653H12.6653H12.6654H12.6654H12.6654H12.6654H12.6654H12.6655H12.6655H12.6655H12.6655H12.6656H12.6656H12.6656H12.6656H12.6657H12.6657H12.6657H12.6657H12.6657H12.6658H12.6658H12.6658H12.6658H12.6659H12.6659H12.6659H12.6659H12.666H12.666H12.666H12.666H12.6661H12.6661H12.6661H12.6661H12.6662H12.6662H12.6662H12.6662H12.6663H12.6663H12.6663H12.6663H12.6663H12.6664H12.6664H12.6664H12.6664H12.6665H12.6665H12.6665H12.6665H12.6666H12.6666H12.6666H12.6666H12.6667H12.6667H12.6667H12.6667H12.6668H12.6668H12.6668H12.6668H12.6669H12.6669H12.6669H12.6669H12.667H12.667H12.667H12.667H12.6671H12.6671H12.6671H12.6671H12.6671H12.6672H12.6672H12.6672H12.6672H12.6673H12.6673H12.6673H12.6673H12.6674H12.6674H12.6674H12.6674H12.6675H12.6675H12.6675H12.6675H12.6676H12.6676H12.6676H12.6676H12.6677H12.6677H12.6677H12.6677H12.6677H12.6678H12.6678H12.6678H12.6678H12.6679H12.6679H12.6679H12.6679H12.668H12.668H12.668H12.668H12.6681H12.6681H12.6681H12.6681H12.6681H12.6682H12.6682H12.6682H12.6682H12.6683H12.6683H12.6683H12.6683H12.6684H12.6684H12.6684H12.6684H12.6684H12.6685H12.6685H12.6685H12.6685H12.6686H12.6686H12.6686H12.6686H12.6686H12.6687H12.6687H12.6687H12.6687H12.6688H12.6688H12.6688H12.6688H12.6688H12.6689H12.6689H12.6689H12.6689H12.669H12.669H12.669H12.669H12.669H12.6691H12.6691H12.6691H12.6691H12.6691H12.6692H12.6692H12.6692H12.6692H12.6693H12.6693H12.6693H12.6693H12.6693H12.6694H12.6694H12.6694H12.6694H12.6694H12.6695H12.6695H12.6695H12.6695H12.6695H12.6696H12.6696H12.6696H12.6696H12.6696H12.6697H12.6697H12.6697H12.6697H12.6697H12.6697H12.6698H12.6698H12.6698H12.6698H12.6698H12.6699H12.6699H12.6699H12.6699H12.6699H12.6699H12.67H12.67H12.67H12.67H12.67H12.6701H12.6701H12.6701H12.6701H12.6701H12.6701H12.6702H12.6702H12.6702H12.6702H12.6702H12.6702H12.6703H12.6703H12.6703H12.6703H12.6703H12.6703H12.6704H12.6704H12.6704H12.6704H12.6704H12.6704H12.6704H12.6705H12.6705H12.6705H12.6705H12.6705H12.6705H12.6705H12.6706H12.6706H12.6706H12.6707H12.6707H12.6707H12.6707H12.6708L6.50109 18.1211ZM6.50109 18.1211C6.21604 16.9293 6.1488 15.7428 6.30031 14.5945L6.50109 18.1211ZM22.7188 36.8502C22.5296 34.3815 21.9597 31.4803 21.2304 29.2756C20.7619 27.8591 20.2574 26.7834 19.7181 26.0599C19.1793 25.3371 18.5936 24.9505 17.9627 24.9505C17.3317 24.9505 16.746 25.3371 16.2072 26.0599C15.6679 26.7834 15.1634 27.8592 14.6948 29.2758C13.9656 31.4806 13.3956 34.382 13.2065 36.8505L13.2868 36.8566M22.7188 36.8502L13.2868 36.8566M13.2868 36.8566L13.2065 36.8505M13.2868 36.8566L13.2065 36.8505M13.2065 36.8505C13.1844 37.1397 12.9466 37.364 12.6711 37.3655L13.2065 36.8505Z" fill="white" stroke="white" stroke-width="0.2"/>
<path d="M6.31303 12.5108L6.31295 12.5108C6.06824 12.3945 5.96402 12.1019 6.0803 11.8571C6.44997 11.0787 6.92409 10.4147 7.49069 9.88493L6.31303 12.5108ZM6.31303 12.5108C6.38092 12.543 6.45254 12.5583 6.52321 12.5583C6.7064 12.5583 6.88267 12.4551 6.96667 12.2781M6.31303 12.5108L6.35586 12.4205C6.41008 12.4462 6.46704 12.4583 6.52321 12.4583C6.6693 12.4583 6.80953 12.3759 6.87633 12.2352M6.87633 12.2352L6.96667 12.2781M6.87633 12.2352C7.19899 11.5557 7.60821 10.9816 8.09258 10.5286L8.16088 10.6016C7.68682 11.045 7.28465 11.6084 6.96667 12.2781M6.87633 12.2352L6.96667 12.2781C6.96667 12.2781 6.96667 12.2781 6.96667 12.2781" fill="white" stroke="white" stroke-width="0.2"/>
<path d="M10.6036 19.9575L10.6036 19.9575C11.8637 20.1993 12.535 20.3933 12.9604 20.8186C13.3857 21.2439 13.5797 21.9152 13.8215 23.1754C13.8658 23.4066 14.0681 23.5736 14.3034 23.5736C14.5386 23.5736 14.7408 23.4066 14.7852 23.1754C15.027 21.9153 15.221 21.244 15.6463 20.8187C16.0716 20.3933 16.7429 20.1993 18.0031 19.9575L18.0031 19.9575C18.2342 19.9131 18.4012 19.7109 18.4012 19.4756C18.4012 19.2403 18.2342 19.0381 18.0031 18.9938L17.9842 19.092L18.0031 18.9937C16.7429 18.7519 16.0716 18.5579 15.6463 18.1326C15.221 17.7073 15.027 17.036 14.7852 15.7758L14.7852 15.7758C14.7408 15.5448 14.5386 15.3777 14.3034 15.3777C14.0681 15.3777 13.8658 15.5448 13.8215 15.7758L13.8215 15.7758C13.5797 17.036 13.3857 17.7073 12.9604 18.1326C12.5351 18.5579 11.8638 18.7519 10.6036 18.9937L10.6035 18.9938C10.3725 19.0382 10.2054 19.2403 10.2054 19.4756C10.2054 19.711 10.3726 19.9132 10.6036 19.9575ZM14.9513 20.1236C14.6778 20.3971 14.4724 20.7338 14.3033 21.1588C14.1343 20.7339 13.9289 20.3971 13.6554 20.1236C13.3819 19.8502 13.0452 19.6447 12.6202 19.4757C13.0452 19.3067 13.3819 19.1012 13.6554 18.8277C13.9289 18.5543 14.1344 18.2175 14.3034 17.7926C14.4724 18.2175 14.6778 18.5543 14.9513 18.8278C15.2248 19.1013 15.5615 19.3067 15.9865 19.4757C15.5615 19.6447 15.2248 19.8501 14.9513 20.1236Z" fill="white" stroke="white" stroke-width="0.2"/>
<path d="M15.814 5.54567L15.814 5.54567C16.3154 5.64188 16.6989 5.72666 17.0002 5.83017C17.3002 5.93325 17.5125 6.05292 17.675 6.21542C17.8375 6.37793 17.9571 6.59023 18.0602 6.89023C18.1637 7.1915 18.2485 7.57505 18.3448 8.07646L18.443 8.05761L18.3448 8.07646C18.3891 8.30753 18.5912 8.47464 18.8266 8.47464C19.062 8.47464 19.264 8.30751 19.3084 8.07646L19.3084 8.07646C19.4046 7.57502 19.4894 7.19147 19.5929 6.8902C19.6959 6.5902 19.8156 6.3779 19.9781 6.2154C20.1406 6.05289 20.3529 5.93323 20.6529 5.83016C20.9542 5.72666 21.3377 5.64188 21.8392 5.54567L21.8392 5.54566C22.0702 5.50122 22.2374 5.29912 22.2374 5.06379C22.2374 4.82848 22.0703 4.62626 21.8392 4.58191L21.8392 4.58191C21.3377 4.4857 20.9542 4.40091 20.6529 4.2974C20.3529 4.19433 20.1406 4.07466 19.9781 3.91215C19.8156 3.74964 19.6959 3.53734 19.5929 3.23734C19.4894 2.93607 19.4046 2.55253 19.3084 2.05112L19.3084 2.05111C19.264 1.82005 19.0619 1.65293 18.8266 1.65293C18.5912 1.65293 18.3891 1.82005 18.3448 2.05111L18.3448 2.05111C18.2485 2.55253 18.1637 2.93607 18.0602 3.23734C17.9571 3.53734 17.8375 3.74964 17.675 3.91215C17.5125 4.07466 17.3002 4.19433 17.0002 4.2974C16.6989 4.40091 16.3154 4.4857 15.814 4.58191L15.8139 4.58191C15.5828 4.62635 15.4158 4.82847 15.4158 5.06379C15.4158 5.29909 15.5829 5.50131 15.814 5.54567ZM19.2812 5.51841C19.097 5.70259 18.9502 5.92105 18.8266 6.18437C18.7031 5.92105 18.5562 5.70261 18.372 5.51843C18.1878 5.33426 17.9694 5.18742 17.7061 5.06386C17.9694 4.9403 18.1878 4.79344 18.372 4.60925C18.5562 4.42506 18.703 4.2066 18.8266 3.94327C18.9502 4.20663 19.0971 4.4251 19.2812 4.60928C19.4654 4.79346 19.6839 4.9403 19.9471 5.06385C19.6838 5.18738 19.4654 5.33423 19.2812 5.51841Z" fill="white" stroke="white" stroke-width="0.2"/>
<path d="M24.8486 13.7806L24.8486 13.7806C24.6175 13.825 24.4505 14.0271 24.4505 14.2625C24.4505 14.4978 24.6176 14.7 24.8486 14.7443C26.5106 15.0633 27.4075 15.3205 27.9773 15.8903C28.547 16.46 28.8043 17.3569 29.1233 19.019L29.2215 19.0001L29.1233 19.019C29.1676 19.25 29.3697 19.4171 29.6051 19.4171C29.8405 19.4171 30.0425 19.25 30.0869 19.019L29.9991 19.0021L30.0869 19.019C30.4058 17.3569 30.6631 16.46 31.2328 15.8903C31.8025 15.3205 32.6995 15.0633 34.3615 14.7443L34.3615 14.7443C34.5927 14.6999 34.7597 14.4978 34.7597 14.2625C34.7597 14.0271 34.5926 13.8249 34.3615 13.7806C32.6995 13.4616 31.8026 13.2044 31.2329 12.6346C30.6631 12.0649 30.4058 11.168 30.0869 9.50595L29.9887 9.52479L30.0869 9.50595C30.0425 9.27488 29.8404 9.10776 29.6051 9.10776C29.3697 9.10776 29.1676 9.27488 29.1233 9.50595L29.1233 9.50595C28.8043 11.168 28.5471 12.0649 27.9773 12.6346C27.4076 13.2044 26.5107 13.4616 24.8486 13.7806ZM30.5386 15.1961C30.1264 15.6082 29.8395 16.1384 29.6051 16.8469C29.3707 16.1384 29.0837 15.6082 28.6716 15.1961C28.2594 14.7839 27.7292 14.497 27.0207 14.2625C27.7292 14.0281 28.2594 13.7411 28.6716 13.329C29.0837 12.9168 29.3707 12.3866 29.6051 11.6782C29.8395 12.3867 30.1264 12.9168 30.5386 13.329C30.9507 13.7411 31.4809 14.0281 32.1895 14.2625C31.4809 14.497 30.9507 14.7839 30.5386 15.1961Z" fill="white" stroke="white" stroke-width="0.2"/>
</svg>
