<svg width="40" height="40" viewBox="0 0 40 40" fill="none" xmlns="http://www.w3.org/2000/svg">
<path d="M33.75 17.1594C33.75 17.1594 33.75 17.1313 33.75 17.1156C33.7578 17.0617 33.7578 17.007 33.75 16.9531L31.875 3.6625C31.8624 3.57202 31.8302 3.48539 31.7805 3.40873C31.7308 3.33206 31.665 3.26721 31.5875 3.21875C31.3719 3.0875 26.3563 0 20 0C13.6438 0 8.62815 3.0875 8.41878 3.21875C8.34017 3.26654 8.27309 3.33109 8.22231 3.4078C8.17154 3.4845 8.13832 3.57147 8.12503 3.6625L6.25003 17.1C6.25003 17.1 6.25003 17.125 6.25003 17.1375C6.25003 17.15 6.25003 17.1375 6.25003 17.1625C6.0969 20.7906 7.9469 26.4094 9.06253 29.7656C9.26565 30.3906 9.44378 30.925 9.5719 31.3281C10.1969 33.7062 11.2157 36.4531 11.7594 36.9906C13.3219 38.5531 17.2594 39.9875 20.0125 39.9875C22.5125 39.9875 26.5032 38.7563 28.2657 36.9906C29.0907 36.1656 30.1907 33.0594 30.7063 30.6906C30.8125 30.2719 31.0188 29.5906 31.2938 28.7562C32.2594 25.6906 33.8938 20.5344 33.75 17.1594ZM28.8032 23.7906C29.8798 23.2454 30.9233 22.6371 31.9282 21.9688C31.5657 23.5844 31.0875 25.2313 30.6469 26.6562C30.2923 25.5568 29.6567 24.569 28.8032 23.7906ZM12.525 23.0812C10.4219 22.1875 8.10315 20.9375 7.86253 20.4469C7.83456 20.3775 7.79551 20.3131 7.7469 20.2563C7.57525 19.3087 7.49156 18.3473 7.4969 17.3844C8.02815 16.6687 11.1032 13.125 20 13.125C28.8094 13.125 31.95 16.5437 32.5 17.2437C32.5189 18.1512 32.4519 19.0583 32.3 19.9531C32.2727 19.9917 32.2506 20.0337 32.2344 20.0781C31.9907 20.5688 29.6063 21.9969 27.4438 23.0781C26.8188 22.8875 26.1438 22.625 25.425 22.3469C23.7282 21.6875 21.8032 20.9375 20 20.9375C18.0125 20.9375 15.7344 21.8344 13.9032 22.5562C13.4063 22.75 12.9344 22.9344 12.525 23.0812ZM9.32815 4.1375C10.3907 3.53437 14.775 1.25 20 1.25C25.225 1.25 29.6094 3.53437 30.6719 4.1375L32.2344 15.2344C30.4688 13.8094 26.8094 11.875 20 11.875C13.1907 11.875 9.53753 13.8656 7.76565 15.3344L9.32815 4.1375ZM8.1469 22.2625C9.11286 22.8584 10.1183 23.3878 11.1563 23.8469C10.3262 24.6182 9.71211 25.5931 9.37503 26.675C8.93753 25.2812 8.49378 23.75 8.1469 22.2563V22.2625ZM27.3719 36.1281C25.9938 37.5 22.4813 38.75 20 38.75C17.6063 38.75 13.9563 37.4469 12.6344 36.125C12.3219 35.7906 11.55 33.7531 10.975 31.7688C10.9344 31.5719 10.8563 31.2906 10.7469 30.9406C10.5106 30.1247 10.3649 29.2853 10.3125 28.4375C10.3125 26.8031 11.5157 24.7375 12.6969 24.3438C13.1875 24.1813 13.7563 23.9562 14.3625 23.7188C16.0938 23.0375 18.25 22.1875 20 22.1875C21.5625 22.1875 23.3 22.8594 24.9719 23.5125C25.8032 23.825 26.5875 24.1375 27.3282 24.35C28.4875 24.6812 29.7688 26.9906 29.7313 28.6812C29.6979 29.2626 29.6132 29.8398 29.4782 30.4062C29.4532 30.5094 29.4313 30.6031 29.4157 30.6812C29.4144 30.6885 29.4144 30.6959 29.4157 30.7031C28.9157 32.8406 27.95 35.5406 27.3719 36.1219V36.1281Z" fill="white"/>
<path d="M22.8468 20.5594C22.9952 20.6331 23.1668 20.6449 23.3238 20.5921C23.4808 20.5394 23.6105 20.4265 23.6843 20.2782C23.8512 19.9967 24.0899 19.7647 24.376 19.606C24.6622 19.4473 24.9854 19.3676 25.3125 19.375C25.697 19.3939 26.0733 19.4925 26.4177 19.6647C26.762 19.8368 27.0667 20.0788 27.3125 20.375C27.3617 20.4407 27.4234 20.496 27.494 20.5378C27.5647 20.5797 27.6428 20.6072 27.7241 20.6188C27.8053 20.6304 27.8881 20.6259 27.9676 20.6055C28.0471 20.5851 28.1218 20.5493 28.1875 20.5C28.2531 20.4508 28.3084 20.3891 28.3503 20.3185C28.3921 20.2479 28.4196 20.1697 28.4312 20.0884C28.4428 20.0072 28.4383 19.9244 28.4179 19.8449C28.3975 19.7654 28.3617 19.6907 28.3125 19.625C27.9508 19.1728 27.4953 18.8044 26.9773 18.5454C26.4593 18.2864 25.8913 18.143 25.3125 18.125C24.7533 18.1193 24.2029 18.2646 23.7194 18.5457C23.2359 18.8268 22.8373 19.2331 22.5656 19.7219C22.4919 19.8703 22.4801 20.0418 22.5329 20.1989C22.5856 20.3559 22.6985 20.4856 22.8468 20.5594Z" fill="white"/>
<path d="M16.3187 20.2844C16.3963 20.4271 16.5264 20.5341 16.6814 20.5825C16.8364 20.631 17.0042 20.6172 17.1493 20.5441C17.2943 20.471 17.4052 20.3442 17.4584 20.1908C17.5116 20.0373 17.503 19.8691 17.4344 19.7219C17.1626 19.2331 16.764 18.8268 16.2805 18.5457C15.7971 18.2646 15.2467 18.1193 14.6875 18.125C14.1087 18.143 13.5406 18.2864 13.0227 18.5454C12.5047 18.8044 12.0491 19.1728 11.6875 19.625C11.5937 19.7576 11.5552 19.9214 11.5802 20.0819C11.6051 20.2423 11.6915 20.3867 11.821 20.4846C11.9506 20.5825 12.1131 20.6261 12.2742 20.6062C12.4354 20.5864 12.5825 20.5046 12.6844 20.3782C12.9303 20.0811 13.2354 19.8384 13.5803 19.6657C13.9252 19.493 14.3022 19.394 14.6875 19.375C15.0151 19.3709 15.3382 19.4526 15.6244 19.6122C15.9106 19.7717 16.15 20.0035 16.3187 20.2844V20.2844Z" fill="white"/>
<path d="M14.6875 21.5625C15.0327 21.5625 15.3125 21.2827 15.3125 20.9375C15.3125 20.5923 15.0327 20.3125 14.6875 20.3125C14.3423 20.3125 14.0625 20.5923 14.0625 20.9375C14.0625 21.2827 14.3423 21.5625 14.6875 21.5625Z" fill="white"/>
<path d="M25.3125 21.5625C25.6577 21.5625 25.9375 21.2827 25.9375 20.9375C25.9375 20.5923 25.6577 20.3125 25.3125 20.3125C24.9673 20.3125 24.6875 20.5923 24.6875 20.9375C24.6875 21.2827 24.9673 21.5625 25.3125 21.5625Z" fill="white"/>
<path d="M21.9875 27.0032C21.331 26.8788 20.6671 26.7974 20 26.7594C19.3329 26.7974 18.669 26.8788 18.0125 27.0032C17.9287 27.0144 17.848 27.0425 17.7753 27.0859C17.7027 27.1292 17.6396 27.1869 17.5899 27.2553C17.5402 27.3238 17.5049 27.4016 17.4861 27.4841C17.4674 27.5666 17.4656 27.652 17.4808 27.7352C17.4961 27.8185 17.528 27.8977 17.5748 27.9682C17.6216 28.0387 17.6822 28.0989 17.7529 28.1453C17.8237 28.1917 17.9031 28.2232 17.9864 28.238C18.0697 28.2528 18.1551 28.2505 18.2375 28.2313C18.8199 28.121 19.4085 28.0469 20 28.0094C20.5915 28.0469 21.1802 28.121 21.7625 28.2313C21.8 28.2344 21.8376 28.2344 21.875 28.2313C22.0408 28.2462 22.2057 28.1947 22.3334 28.088C22.4612 27.9813 22.5414 27.8283 22.5563 27.6625C22.5712 27.4968 22.5197 27.3319 22.413 27.2041C22.3063 27.0763 22.1533 26.9962 21.9875 26.9813V27.0032Z" fill="white"/>
</svg>
