<svg width="40" height="40" viewBox="0 0 40 40" fill="none" xmlns="http://www.w3.org/2000/svg">
<mask id="path-1-outside-1_1_152" maskUnits="userSpaceOnUse" x="8.14207" y="0.171875" width="23" height="39" fill="black">
<rect fill="white" x="8.14207" y="0.171875" width="23" height="39"/>
<path d="M28.9546 2.30152C27.8385 1.24973 26.4066 0.917851 24.9226 1.3673H24.9225L22.5757 2.07863C20.8666 2.59707 19.1334 2.59715 17.4243 2.07863L15.0775 1.3673C13.5934 0.917773 12.1616 1.24973 11.0455 2.30152C9.37757 3.87332 8.73304 6.70066 9.40351 9.50457L10.3801 13.5878C10.5787 14.4186 11.314 14.9987 12.1681 14.9987H13.5977V16.9951C13.5977 17.9042 14.3373 18.6437 15.2464 18.6437H15.6924V22.595L15.1126 22.7616C14.9053 22.8213 14.7855 23.0376 14.8451 23.245C14.8943 23.4163 15.0505 23.5278 15.2204 23.5278C15.2561 23.5278 15.2924 23.5229 15.3284 23.5125L15.6924 23.408V25.0682L15.1126 25.2348C14.9053 25.2944 14.7855 25.5108 14.8451 25.7182C14.8943 25.8894 15.0505 26.001 15.2204 26.001C15.2561 26.001 15.2924 25.996 15.3284 25.9857L15.6924 25.8811V27.5414L15.1126 27.7079C14.9053 27.7675 14.7855 27.9839 14.8451 28.1913C14.8943 28.3626 15.0505 28.4742 15.2204 28.4742C15.2561 28.4742 15.2924 28.4692 15.3284 28.4589L15.6924 28.3543V30.0145L15.1126 30.181C14.9053 30.2407 14.7855 30.4571 14.8451 30.6645C14.8943 30.8357 15.0505 30.9473 15.2204 30.9473C15.2561 30.9473 15.2924 30.9424 15.3284 30.932L15.6924 30.8275V32.4876L15.1126 32.6543C14.9053 32.7138 14.7855 32.9302 14.8451 33.1375C14.8943 33.3089 15.0505 33.4204 15.2204 33.4204C15.2561 33.4204 15.2924 33.4155 15.3284 33.4052L15.6924 33.3005V34.4529C15.6924 35.069 15.9284 35.6521 16.3572 36.0947L18.3098 38.1106C18.7576 38.5729 19.3588 38.8278 20.0025 38.8284C20.0033 38.8284 20.0041 38.8284 20.0048 38.8284C20.6476 38.8284 21.2483 38.5746 21.6964 38.1137L23.6585 36.0957C24.0892 35.6528 24.3264 35.0686 24.3264 34.4507V30.8196L24.9062 30.653C25.1135 30.5933 25.2333 30.377 25.1737 30.1696C25.1142 29.9623 24.8979 29.8427 24.6904 29.9021L24.3264 30.0066V28.3464L24.9062 28.1798C25.1135 28.1202 25.2333 27.9038 25.1737 27.6964C25.1142 27.4892 24.8979 27.3693 24.6904 27.4289L24.3264 27.5335V25.8733L24.9062 25.7067C25.1135 25.6471 25.2333 25.4307 25.1737 25.2233C25.1142 25.016 24.8979 24.8963 24.6904 24.9557L24.3264 25.0603V23.4001L24.9062 23.2336C25.1135 23.1739 25.2333 22.9575 25.1737 22.7501C25.1142 22.5428 24.8979 22.4232 24.6904 22.4826L24.3264 22.5871V20.927L24.9062 20.7603C25.1135 20.7008 25.2333 20.4844 25.1737 20.2771C25.1142 20.0697 24.8979 19.9501 24.6904 20.0094L24.3264 20.1141V18.6438H24.7538C25.6629 18.6438 26.4025 17.9043 26.4025 16.9952V14.9988H27.8321C28.6862 14.9988 29.4215 14.4186 29.6201 13.5879L30.5967 9.50465C31.267 6.70066 30.6225 3.87332 28.9546 2.30152ZM23.5451 34.4503C23.5451 34.8636 23.3864 35.2544 23.0983 35.5507L21.1362 37.5687C20.8364 37.877 20.4346 38.0467 20.0047 38.0467C20.0041 38.0467 20.0036 38.0467 20.0031 38.0467C19.5725 38.0464 19.1704 37.8758 18.8708 37.5665L16.9183 35.5508C16.6315 35.2546 16.4736 34.8646 16.4736 34.4525V33.0757L23.5451 31.0436V34.4503H23.5451ZM23.5451 30.2307L16.4735 32.2628V30.6026L23.5451 28.5705V30.2307ZM23.5451 27.7577L16.4735 29.7897V28.1296L23.5451 26.0975V27.7577ZM23.5451 25.2846L16.4735 27.3167V25.6564L23.5451 23.6244V25.2846ZM23.5451 22.8114L16.4735 24.8435V23.1833L23.5451 21.1513V22.8114ZM23.5451 20.3384L16.4735 22.3704V18.6436H23.5451V20.3384ZM25.6211 16.995C25.6211 17.4733 25.232 17.8624 24.7537 17.8624H23.9356H16.0829H15.2462C14.768 17.8624 14.3788 17.4733 14.3788 16.995V14.9986H25.621V16.995H25.6211ZM29.8366 9.32285L28.8601 13.4061C28.7458 13.8838 28.3231 14.2175 27.8319 14.2175H26.0117H13.9883H12.168C11.6769 14.2175 11.2541 13.8838 11.1399 13.4061L10.1634 9.32285C9.56601 6.82535 10.1359 4.23215 11.5812 2.87012C12.0636 2.41551 12.8002 1.95098 13.796 1.95098C14.1201 1.95098 14.4718 2.00019 14.8509 2.11504L17.1976 2.82629C19.0572 3.39051 20.9429 3.39043 22.8023 2.82629L25.149 2.11504C26.6933 1.64746 27.7794 2.26754 28.4188 2.87012C29.8641 4.23215 30.434 6.82527 29.8366 9.32285Z"/>
</mask>
<path d="M28.9546 2.30152C27.8385 1.24973 26.4066 0.917851 24.9226 1.3673H24.9225L22.5757 2.07863C20.8666 2.59707 19.1334 2.59715 17.4243 2.07863L15.0775 1.3673C13.5934 0.917773 12.1616 1.24973 11.0455 2.30152C9.37757 3.87332 8.73304 6.70066 9.40351 9.50457L10.3801 13.5878C10.5787 14.4186 11.314 14.9987 12.1681 14.9987H13.5977V16.9951C13.5977 17.9042 14.3373 18.6437 15.2464 18.6437H15.6924V22.595L15.1126 22.7616C14.9053 22.8213 14.7855 23.0376 14.8451 23.245C14.8943 23.4163 15.0505 23.5278 15.2204 23.5278C15.2561 23.5278 15.2924 23.5229 15.3284 23.5125L15.6924 23.408V25.0682L15.1126 25.2348C14.9053 25.2944 14.7855 25.5108 14.8451 25.7182C14.8943 25.8894 15.0505 26.001 15.2204 26.001C15.2561 26.001 15.2924 25.996 15.3284 25.9857L15.6924 25.8811V27.5414L15.1126 27.7079C14.9053 27.7675 14.7855 27.9839 14.8451 28.1913C14.8943 28.3626 15.0505 28.4742 15.2204 28.4742C15.2561 28.4742 15.2924 28.4692 15.3284 28.4589L15.6924 28.3543V30.0145L15.1126 30.181C14.9053 30.2407 14.7855 30.4571 14.8451 30.6645C14.8943 30.8357 15.0505 30.9473 15.2204 30.9473C15.2561 30.9473 15.2924 30.9424 15.3284 30.932L15.6924 30.8275V32.4876L15.1126 32.6543C14.9053 32.7138 14.7855 32.9302 14.8451 33.1375C14.8943 33.3089 15.0505 33.4204 15.2204 33.4204C15.2561 33.4204 15.2924 33.4155 15.3284 33.4052L15.6924 33.3005V34.4529C15.6924 35.069 15.9284 35.6521 16.3572 36.0947L18.3098 38.1106C18.7576 38.5729 19.3588 38.8278 20.0025 38.8284C20.0033 38.8284 20.0041 38.8284 20.0048 38.8284C20.6476 38.8284 21.2483 38.5746 21.6964 38.1137L23.6585 36.0957C24.0892 35.6528 24.3264 35.0686 24.3264 34.4507V30.8196L24.9062 30.653C25.1135 30.5933 25.2333 30.377 25.1737 30.1696C25.1142 29.9623 24.8979 29.8427 24.6904 29.9021L24.3264 30.0066V28.3464L24.9062 28.1798C25.1135 28.1202 25.2333 27.9038 25.1737 27.6964C25.1142 27.4892 24.8979 27.3693 24.6904 27.4289L24.3264 27.5335V25.8733L24.9062 25.7067C25.1135 25.6471 25.2333 25.4307 25.1737 25.2233C25.1142 25.016 24.8979 24.8963 24.6904 24.9557L24.3264 25.0603V23.4001L24.9062 23.2336C25.1135 23.1739 25.2333 22.9575 25.1737 22.7501C25.1142 22.5428 24.8979 22.4232 24.6904 22.4826L24.3264 22.5871V20.927L24.9062 20.7603C25.1135 20.7008 25.2333 20.4844 25.1737 20.2771C25.1142 20.0697 24.8979 19.9501 24.6904 20.0094L24.3264 20.1141V18.6438H24.7538C25.6629 18.6438 26.4025 17.9043 26.4025 16.9952V14.9988H27.8321C28.6862 14.9988 29.4215 14.4186 29.6201 13.5879L30.5967 9.50465C31.267 6.70066 30.6225 3.87332 28.9546 2.30152ZM23.5451 34.4503C23.5451 34.8636 23.3864 35.2544 23.0983 35.5507L21.1362 37.5687C20.8364 37.877 20.4346 38.0467 20.0047 38.0467C20.0041 38.0467 20.0036 38.0467 20.0031 38.0467C19.5725 38.0464 19.1704 37.8758 18.8708 37.5665L16.9183 35.5508C16.6315 35.2546 16.4736 34.8646 16.4736 34.4525V33.0757L23.5451 31.0436V34.4503H23.5451ZM23.5451 30.2307L16.4735 32.2628V30.6026L23.5451 28.5705V30.2307ZM23.5451 27.7577L16.4735 29.7897V28.1296L23.5451 26.0975V27.7577ZM23.5451 25.2846L16.4735 27.3167V25.6564L23.5451 23.6244V25.2846ZM23.5451 22.8114L16.4735 24.8435V23.1833L23.5451 21.1513V22.8114ZM23.5451 20.3384L16.4735 22.3704V18.6436H23.5451V20.3384ZM25.6211 16.995C25.6211 17.4733 25.232 17.8624 24.7537 17.8624H23.9356H16.0829H15.2462C14.768 17.8624 14.3788 17.4733 14.3788 16.995V14.9986H25.621V16.995H25.6211ZM29.8366 9.32285L28.8601 13.4061C28.7458 13.8838 28.3231 14.2175 27.8319 14.2175H26.0117H13.9883H12.168C11.6769 14.2175 11.2541 13.8838 11.1399 13.4061L10.1634 9.32285C9.56601 6.82535 10.1359 4.23215 11.5812 2.87012C12.0636 2.41551 12.8002 1.95098 13.796 1.95098C14.1201 1.95098 14.4718 2.00019 14.8509 2.11504L17.1976 2.82629C19.0572 3.39051 20.9429 3.39043 22.8023 2.82629L25.149 2.11504C26.6933 1.64746 27.7794 2.26754 28.4188 2.87012C29.8641 4.23215 30.434 6.82527 29.8366 9.32285Z" fill="white"/>
<path d="M28.9546 2.30152C27.8385 1.24973 26.4066 0.917851 24.9226 1.3673H24.9225L22.5757 2.07863C20.8666 2.59707 19.1334 2.59715 17.4243 2.07863L15.0775 1.3673C13.5934 0.917773 12.1616 1.24973 11.0455 2.30152C9.37757 3.87332 8.73304 6.70066 9.40351 9.50457L10.3801 13.5878C10.5787 14.4186 11.314 14.9987 12.1681 14.9987H13.5977V16.9951C13.5977 17.9042 14.3373 18.6437 15.2464 18.6437H15.6924V22.595L15.1126 22.7616C14.9053 22.8213 14.7855 23.0376 14.8451 23.245C14.8943 23.4163 15.0505 23.5278 15.2204 23.5278C15.2561 23.5278 15.2924 23.5229 15.3284 23.5125L15.6924 23.408V25.0682L15.1126 25.2348C14.9053 25.2944 14.7855 25.5108 14.8451 25.7182C14.8943 25.8894 15.0505 26.001 15.2204 26.001C15.2561 26.001 15.2924 25.996 15.3284 25.9857L15.6924 25.8811V27.5414L15.1126 27.7079C14.9053 27.7675 14.7855 27.9839 14.8451 28.1913C14.8943 28.3626 15.0505 28.4742 15.2204 28.4742C15.2561 28.4742 15.2924 28.4692 15.3284 28.4589L15.6924 28.3543V30.0145L15.1126 30.181C14.9053 30.2407 14.7855 30.4571 14.8451 30.6645C14.8943 30.8357 15.0505 30.9473 15.2204 30.9473C15.2561 30.9473 15.2924 30.9424 15.3284 30.932L15.6924 30.8275V32.4876L15.1126 32.6543C14.9053 32.7138 14.7855 32.9302 14.8451 33.1375C14.8943 33.3089 15.0505 33.4204 15.2204 33.4204C15.2561 33.4204 15.2924 33.4155 15.3284 33.4052L15.6924 33.3005V34.4529C15.6924 35.069 15.9284 35.6521 16.3572 36.0947L18.3098 38.1106C18.7576 38.5729 19.3588 38.8278 20.0025 38.8284C20.0033 38.8284 20.0041 38.8284 20.0048 38.8284C20.6476 38.8284 21.2483 38.5746 21.6964 38.1137L23.6585 36.0957C24.0892 35.6528 24.3264 35.0686 24.3264 34.4507V30.8196L24.9062 30.653C25.1135 30.5933 25.2333 30.377 25.1737 30.1696C25.1142 29.9623 24.8979 29.8427 24.6904 29.9021L24.3264 30.0066V28.3464L24.9062 28.1798C25.1135 28.1202 25.2333 27.9038 25.1737 27.6964C25.1142 27.4892 24.8979 27.3693 24.6904 27.4289L24.3264 27.5335V25.8733L24.9062 25.7067C25.1135 25.6471 25.2333 25.4307 25.1737 25.2233C25.1142 25.016 24.8979 24.8963 24.6904 24.9557L24.3264 25.0603V23.4001L24.9062 23.2336C25.1135 23.1739 25.2333 22.9575 25.1737 22.7501C25.1142 22.5428 24.8979 22.4232 24.6904 22.4826L24.3264 22.5871V20.927L24.9062 20.7603C25.1135 20.7008 25.2333 20.4844 25.1737 20.2771C25.1142 20.0697 24.8979 19.9501 24.6904 20.0094L24.3264 20.1141V18.6438H24.7538C25.6629 18.6438 26.4025 17.9043 26.4025 16.9952V14.9988H27.8321C28.6862 14.9988 29.4215 14.4186 29.6201 13.5879L30.5967 9.50465C31.267 6.70066 30.6225 3.87332 28.9546 2.30152ZM23.5451 34.4503C23.5451 34.8636 23.3864 35.2544 23.0983 35.5507L21.1362 37.5687C20.8364 37.877 20.4346 38.0467 20.0047 38.0467C20.0041 38.0467 20.0036 38.0467 20.0031 38.0467C19.5725 38.0464 19.1704 37.8758 18.8708 37.5665L16.9183 35.5508C16.6315 35.2546 16.4736 34.8646 16.4736 34.4525V33.0757L23.5451 31.0436V34.4503H23.5451ZM23.5451 30.2307L16.4735 32.2628V30.6026L23.5451 28.5705V30.2307ZM23.5451 27.7577L16.4735 29.7897V28.1296L23.5451 26.0975V27.7577ZM23.5451 25.2846L16.4735 27.3167V25.6564L23.5451 23.6244V25.2846ZM23.5451 22.8114L16.4735 24.8435V23.1833L23.5451 21.1513V22.8114ZM23.5451 20.3384L16.4735 22.3704V18.6436H23.5451V20.3384ZM25.6211 16.995C25.6211 17.4733 25.232 17.8624 24.7537 17.8624H23.9356H16.0829H15.2462C14.768 17.8624 14.3788 17.4733 14.3788 16.995V14.9986H25.621V16.995H25.6211ZM29.8366 9.32285L28.8601 13.4061C28.7458 13.8838 28.3231 14.2175 27.8319 14.2175H26.0117H13.9883H12.168C11.6769 14.2175 11.2541 13.8838 11.1399 13.4061L10.1634 9.32285C9.56601 6.82535 10.1359 4.23215 11.5812 2.87012C12.0636 2.41551 12.8002 1.95098 13.796 1.95098C14.1201 1.95098 14.4718 2.00019 14.8509 2.11504L17.1976 2.82629C19.0572 3.39051 20.9429 3.39043 22.8023 2.82629L25.149 2.11504C26.6933 1.64746 27.7794 2.26754 28.4188 2.87012C29.8641 4.23215 30.434 6.82527 29.8366 9.32285Z" stroke="white" stroke-width="0.4" mask="url(#path-1-outside-1_1_152)"/>
</svg>
