<svg width="50" height="50" viewBox="0 0 50 50" fill="none" xmlns="http://www.w3.org/2000/svg">
<path d="M44.6222 41.9361L43.1523 40.2374V9.77C43.1489 7.70434 42.3253 5.72436 40.8621 4.26431C39.3989 2.80427 37.4156 1.98338 35.3472 1.98169H31.496L30.3792 1.0394C29.9257 0.66219 29.4023 0.37789 28.8388 0.202735C28.2753 0.0275809 27.6828 -0.0349968 27.0951 0.0185767C26.5074 0.0721503 25.936 0.240825 25.4136 0.514968C24.8911 0.78911 24.4279 1.16335 24.0503 1.61631C23.9962 1.68081 23.9553 1.75533 23.9299 1.83562C23.9046 1.9159 23.8954 2.00039 23.9027 2.08425C23.9105 2.16854 23.9349 2.25046 23.9746 2.32528C24.0143 2.40009 24.0684 2.46632 24.1338 2.52014L33.0108 9.90461C33.1263 10.0002 33.2716 10.0523 33.4216 10.052C33.5159 10.0522 33.6091 10.0316 33.6945 9.99172C33.7799 9.95183 33.8555 9.89364 33.9158 9.82128C34.2936 9.36843 34.5782 8.84571 34.7536 8.28298C34.929 7.72024 34.9917 7.1285 34.938 6.54158C34.8844 5.95465 34.7155 5.38402 34.441 4.8623C34.1665 4.34057 33.7917 3.87796 33.3382 3.50089L33.0429 3.26371H35.3472C37.0757 3.26371 38.7334 3.94899 39.9562 5.16897C41.1791 6.38895 41.8669 8.04384 41.8686 9.77V38.763L36.2779 32.3529C35.8594 31.8605 35.3394 31.4641 34.7534 31.1909C34.1673 30.9176 33.5292 30.7739 32.8824 30.7696H27.7475V26.2825H31.5987C31.7689 26.2825 31.9322 26.215 32.0526 26.0948C32.1729 25.9745 32.2406 25.8115 32.2406 25.6415V23.0774C32.2406 22.9074 32.1729 22.7444 32.0526 22.6242C31.9322 22.504 31.7689 22.4364 31.5987 22.4364H22.6126C22.4423 22.4364 22.2791 22.504 22.1587 22.6242C22.0383 22.7444 21.9707 22.9074 21.9707 23.0774V25.6415C21.9707 25.8115 22.0383 25.9745 22.1587 26.0948C22.2791 26.215 22.4423 26.2825 22.6126 26.2825H26.4638V30.7696H21.0528L12.1245 18.5134C11.4233 17.5529 10.3691 16.9095 9.1934 16.7244C8.01767 16.5394 6.81645 16.8277 5.85342 17.5263C5.37578 17.8726 4.97115 18.3095 4.66264 18.812C4.35412 19.3145 4.14778 19.8728 4.05539 20.455C3.963 21.0372 3.98637 21.6318 4.12418 22.205C4.26198 22.7781 4.51151 23.3186 4.85852 23.7954L15.1284 37.8977C15.5453 38.4696 16.0918 38.935 16.7232 39.2558C17.3546 39.5767 18.053 39.7439 18.7614 39.7438H26.4638V44.8719H22.6126C22.4423 44.8719 22.2791 44.9394 22.1587 45.0596C22.0383 45.1799 21.9707 45.3429 21.9707 45.5129V49.359C21.9707 49.529 22.0383 49.692 22.1587 49.8123C22.2791 49.9325 22.4423 50 22.6126 50H31.5987C31.7689 50 31.9322 49.9325 32.0526 49.8123C32.1729 49.692 32.2406 49.529 32.2406 49.359V45.5129C32.2406 45.3429 32.1729 45.1799 32.0526 45.0596C31.9322 44.9394 31.7689 44.8719 31.5987 44.8719H27.7475V39.7438H30.8349L37.8312 47.8077C38.2114 48.2723 38.681 48.656 39.2123 48.9361C39.7436 49.2163 40.3257 49.3872 40.9242 49.4387C41.5228 49.4903 42.1256 49.4214 42.6971 49.2362C43.2685 49.051 43.7969 48.7533 44.2511 48.3605C44.7053 47.9678 45.0761 47.4881 45.3414 46.9498C45.6067 46.4115 45.7612 45.8256 45.7958 45.2266C45.8304 44.6276 45.7444 44.0278 45.5428 43.4626C45.3412 42.8974 45.0282 42.3783 44.6222 41.9361ZM33.2868 8.46874L25.501 1.9881C26.0787 1.52538 26.7988 1.27642 27.5393 1.28343C28.2799 1.29044 28.9952 1.55298 29.564 2.02656L32.5166 4.48805C33.0847 4.96125 33.4717 5.61593 33.612 6.34131C33.7524 7.0667 33.6375 7.81823 33.2868 8.46874ZM23.2544 25.0005V23.7185H30.9568V25.0005H23.2544ZM30.9568 46.1539V48.718H23.2544V46.1539H30.9568ZM43.332 47.2949C43.0132 47.571 42.6429 47.7816 42.2425 47.9146C41.842 48.0476 41.4193 48.1005 40.9983 48.0701C40.5774 48.0397 40.1666 47.9268 39.7895 47.7377C39.4123 47.5485 39.0763 47.287 38.8005 46.968L31.6115 38.6861C31.5513 38.6158 31.4765 38.5593 31.3923 38.5205C31.308 38.4818 31.2164 38.4618 31.1237 38.4618H18.7614C18.2599 38.4573 17.7664 38.3355 17.3205 38.1062C16.8746 37.8769 16.4888 37.5464 16.1939 37.1413L5.92402 23.039C5.42353 22.3513 5.21709 21.4932 5.3501 20.6535C5.48311 19.8138 5.94469 19.0613 6.63328 18.5615C7.32188 18.0617 8.18109 17.8555 9.0219 17.9883C9.86271 18.1212 10.6162 18.5821 11.1167 19.2698L20.2312 31.7888C20.291 31.8705 20.3692 31.9369 20.4596 31.9825C20.55 32.0282 20.6499 32.0519 20.7512 32.0516H32.8824C33.3428 32.0519 33.7978 32.151 34.2164 32.3424C34.6351 32.5337 35.0076 32.8128 35.3087 33.1606L43.653 42.7758C44.2101 43.4177 44.4892 44.2543 44.4291 45.1017C44.3689 45.9491 43.9743 46.7379 43.332 47.2949ZM18.5624 3.48166C18.5544 3.39741 18.5633 3.31243 18.5884 3.23162C18.6135 3.15081 18.6544 3.07576 18.7087 3.0108C18.763 2.94585 18.8296 2.89227 18.9048 2.85317C18.9799 2.81406 19.0621 2.7902 19.1465 2.78295L21.8552 2.56501C21.9395 2.55743 22.0244 2.56651 22.1052 2.59173C22.186 2.61694 22.261 2.6578 22.326 2.71196C22.3909 2.76613 22.4446 2.83254 22.4838 2.90742C22.5231 2.98229 22.5472 3.06415 22.5548 3.14833C22.5624 3.23251 22.5533 3.31736 22.528 3.39803C22.5028 3.4787 22.4619 3.55361 22.4076 3.61849C22.3534 3.68337 22.2869 3.73695 22.2119 3.77616C22.137 3.81538 22.055 3.83946 21.9707 3.84704L19.262 4.09062H19.1978C19.0341 4.08919 18.8772 4.02534 18.759 3.91214C18.6409 3.79894 18.5706 3.64495 18.5624 3.48166ZM24.4676 5.31496C24.5209 5.38052 24.5607 5.45597 24.5847 5.53695C24.6087 5.61794 24.6165 5.70287 24.6076 5.78686C24.5986 5.87085 24.5731 5.95225 24.5326 6.02637C24.492 6.1005 24.4372 6.16589 24.3713 6.21879L21.8038 8.27003C21.6892 8.36189 21.5464 8.41167 21.3994 8.41105C21.3046 8.41043 21.2111 8.38883 21.1257 8.34782C21.0402 8.30681 20.9649 8.24741 20.9052 8.17388C20.7995 8.04183 20.7503 7.87345 20.7684 7.70538C20.7864 7.5373 20.8702 7.38314 21.0015 7.27646L23.5689 5.2188C23.7012 5.11327 23.8698 5.06416 24.0381 5.08217C24.2064 5.10018 24.3607 5.18384 24.4676 5.31496ZM32.3689 14.9686L32.125 12.2635C32.117 12.1794 32.1257 12.0944 32.1506 12.0136C32.1754 11.9328 32.216 11.8576 32.2699 11.7924C32.3239 11.7273 32.3901 11.6733 32.4649 11.6337C32.5397 11.5941 32.6216 11.5696 32.7059 11.5616C32.7902 11.5536 32.8753 11.5623 32.9562 11.5871C33.0371 11.6119 33.1124 11.6525 33.1777 11.7063C33.2429 11.7602 33.2969 11.8264 33.3366 11.9011C33.3762 11.9758 33.4008 12.0576 33.4088 12.1417L33.6527 14.8532C33.6688 15.0224 33.617 15.191 33.5086 15.322C33.4003 15.453 33.2443 15.5357 33.075 15.5519H33.0108C32.8501 15.5526 32.695 15.493 32.5762 15.385C32.4574 15.277 32.3834 15.1284 32.3689 14.9686ZM28.0171 14.1033C27.8687 14.022 27.7584 13.8854 27.7104 13.7233C27.6623 13.5613 27.6802 13.3868 27.7603 13.2379L29.3522 10.3405C29.3922 10.2664 29.4465 10.2009 29.5118 10.1478C29.5772 10.0947 29.6524 10.0549 29.7332 10.0308C29.814 10.0067 29.8987 9.99872 29.9825 10.0073C30.0664 10.0159 30.1477 10.0409 30.2219 10.0809C30.2961 10.1209 30.3616 10.1751 30.4148 10.2403C30.4681 10.3056 30.5079 10.3808 30.532 10.4614C30.5561 10.5421 30.5641 10.6267 30.5555 10.7104C30.5469 10.7942 30.5219 10.8754 30.4819 10.9495L28.9221 13.8212C28.8667 13.9224 28.785 14.0067 28.6856 14.0654C28.5862 14.124 28.4727 14.1548 28.3573 14.1545C28.2413 14.1712 28.123 14.1533 28.0171 14.1033ZM23.5754 11.2187L26.0401 8.26362C26.1491 8.13271 26.3056 8.05039 26.4754 8.03476C26.6451 8.01914 26.8141 8.07148 26.9452 8.18029C27.0762 8.28909 27.1587 8.44544 27.1743 8.61494C27.19 8.78444 27.1376 8.95321 27.0286 9.08412L24.5638 12.0392C24.5035 12.1115 24.4279 12.1697 24.3425 12.2096C24.2571 12.2495 24.1639 12.2701 24.0696 12.27C23.9196 12.2702 23.7743 12.2181 23.6588 12.1225C23.5938 12.0687 23.5401 12.0026 23.5007 11.928C23.4613 11.8535 23.4371 11.7719 23.4293 11.6879C23.4216 11.6039 23.4305 11.5193 23.4555 11.4388C23.4806 11.3582 23.5213 11.2835 23.5754 11.2187Z" fill="white"/>
</svg>
