<svg width="50" height="50" viewBox="0 0 50 50" fill="none" xmlns="http://www.w3.org/2000/svg">
<path d="M31.758 37.0335C31.5627 36.9614 31.3474 36.965 31.1545 37.0437C30.9617 37.1224 30.8053 37.2704 30.7162 37.4586C30.264 38.5249 29.5134 39.4378 28.5545 40.0875C27.5957 40.7372 26.4695 41.096 25.3116 41.1206C24.1536 41.1453 23.0132 40.8348 22.0276 40.2265C21.0419 39.6182 20.2531 38.7381 19.756 37.6919C19.7181 37.5886 19.6591 37.4943 19.5827 37.4151C19.5064 37.3358 19.4143 37.2734 19.3125 37.2317C19.2106 37.19 19.1012 37.17 18.9912 37.173C18.8812 37.1759 18.773 37.2018 18.6736 37.2489C18.5741 37.296 18.4856 37.3633 18.4136 37.4466C18.3416 37.5298 18.2878 37.6272 18.2555 37.7324C18.2233 37.8376 18.2133 37.9484 18.2262 38.0576C18.2392 38.1669 18.2748 38.2723 18.3307 38.3671C18.9581 39.6901 19.9546 40.8035 21.2002 41.5732C22.4458 42.3429 23.8874 42.736 25.3513 42.7052C26.8152 42.6743 28.239 42.2209 29.4511 41.3994C30.6633 40.578 31.612 39.4236 32.1831 38.0753C32.2552 37.88 32.2516 37.6647 32.1729 37.4719C32.0942 37.279 31.9462 37.1227 31.758 37.0335Z" fill="white"/>
<path d="M21.2812 29.5233C21.4095 29.3657 21.4723 29.1649 21.4566 28.9624C21.441 28.7598 21.348 28.571 21.1971 28.4351C21.0461 28.2991 20.8487 28.2264 20.6456 28.2319C20.4426 28.2374 20.2494 28.3208 20.106 28.4648C19.7712 28.9289 19.3355 29.3111 18.8317 29.5825C18.3278 29.8539 17.769 30.0075 17.1972 30.0317C16.1803 29.8872 15.2611 29.3483 14.6384 28.5315C14.578 28.4473 14.5016 28.3759 14.4134 28.3214C14.3253 28.267 14.2272 28.2306 14.1249 28.2143C14.0225 28.198 13.918 28.2022 13.8173 28.2266C13.7166 28.251 13.6218 28.2951 13.5382 28.3564C13.3709 28.4815 13.2566 28.6648 13.2181 28.8701C13.1795 29.0754 13.2194 29.2877 13.3299 29.4649C13.7737 30.06 14.3347 30.5578 14.9784 30.9276C15.622 31.2974 16.3346 31.5315 17.0722 31.6153H17.2889C18.0666 31.5786 18.8269 31.3723 19.5165 31.0109C20.2061 30.6496 20.8084 30.1418 21.2812 29.5233Z" fill="white"/>
<path d="M35.4587 28.4651C35.1269 28.9304 34.693 29.3136 34.1903 29.5852C33.6875 29.8568 33.1292 30.0097 32.5582 30.0321C31.541 29.8885 30.6215 29.3493 29.9994 28.5318C29.9583 28.4071 29.8884 28.2939 29.7953 28.2013C29.7022 28.1088 29.5885 28.0395 29.4636 27.9992C29.3386 27.9589 29.2059 27.9487 29.0762 27.9694C28.9466 27.9901 28.8237 28.0412 28.7175 28.1184C28.6113 28.1956 28.5249 28.2968 28.4652 28.4138C28.4056 28.5308 28.3744 28.6601 28.3742 28.7914C28.3741 28.9227 28.4049 29.0522 28.4643 29.1693C28.5237 29.2864 28.6099 29.3878 28.7158 29.4653C29.1654 30.0641 29.7333 30.564 30.3843 30.9339C31.0352 31.3038 31.7554 31.5359 32.4998 31.6157H32.7082C33.4797 31.572 34.2327 31.3625 34.9159 31.0015C35.5991 30.6405 36.1964 30.1364 36.6672 29.5237C36.7977 29.3634 36.864 29.1604 36.8532 28.954C36.8424 28.7476 36.7553 28.5526 36.6089 28.4068C36.4465 28.2667 36.2363 28.1945 36.0221 28.2054C35.8078 28.2162 35.606 28.3093 35.4587 28.4651Z" fill="white"/>
<path d="M43.6934 21.6392C43.5684 19.4721 42.8599 13.6961 39.276 10.3039C38.2593 9.36846 37.0543 8.66139 35.7418 8.23012C34.4293 7.79885 33.0397 7.65337 31.6664 7.80345C29.8827 7.92013 28.2574 8.06182 26.8239 8.18684C17.9057 8.97031 15.2135 9.20369 12.4631 1.51903C12.3966 1.35586 12.2801 1.21795 12.1304 1.1251C11.9806 1.03226 11.8053 0.989259 11.6296 1.00228C11.527 1.01225 11.4277 1.04347 11.3379 1.09396C11.1045 1.21065 5.62856 4.16949 4.03662 10.0955C3.06145 13.7045 3.7449 17.5968 6.0703 21.6642C4.28681 21.9387 2.67276 22.8766 1.55112 24.2901C0.42948 25.7037 -0.117017 27.4887 0.0209787 29.2879C0.158975 31.0871 0.971286 32.7679 2.29537 33.9938C3.61946 35.2198 5.35766 35.9006 7.16216 35.8999H7.67891C8.95448 39.5093 11.3041 42.6418 14.4121 44.8767C17.5201 47.1116 21.2376 48.3418 25.0652 48.4021C28.892 48.3425 32.6088 47.1124 35.7156 44.8773C38.8224 42.6422 41.1702 39.5093 42.4432 35.8999H42.8516C44.6762 35.8971 46.4309 35.1977 47.7572 33.9446C49.0836 32.6916 49.8814 30.9794 49.9878 29.1579C50.0942 27.3363 49.5011 25.5429 48.3297 24.144C47.1583 22.745 45.497 21.8461 43.6851 21.6308L43.6934 21.6392ZM5.55355 10.5289C6.62873 6.51989 9.82928 3.96946 11.3045 2.97762C14.4051 10.8623 18.2057 10.5289 26.9656 9.76212C28.3908 9.63709 30.0077 9.4954 31.7747 9.37872C32.9306 9.24717 34.1012 9.36429 35.2081 9.72223C36.315 10.0802 37.3325 10.6707 38.1925 11.4541C41.443 14.5046 42.0181 20.0305 42.1182 21.8642C35.167 23.4145 32.7665 16.0299 32.6665 15.6715C32.6227 15.5307 32.5405 15.405 32.4291 15.3085C32.3178 15.2119 32.1817 15.1484 32.0362 15.125C31.8906 15.1016 31.7415 15.1193 31.6055 15.1761C31.4694 15.2329 31.352 15.3265 31.2663 15.4464C26.8405 21.7308 19.5976 23.0561 16.7305 23.3311C12.9381 23.6895 9.39587 22.9977 7.85394 21.5975C5.42019 17.6385 4.64506 13.9212 5.55355 10.5289ZM1.57787 28.7404C1.58062 27.397 2.06753 26.0997 2.9493 25.0863C3.83108 24.0728 5.04863 23.4112 6.37869 23.2228V28.7404C6.37912 30.6286 6.63996 32.5077 7.15382 34.3247C5.6749 34.3203 4.25793 33.7302 3.21295 32.6837C2.16797 31.6371 1.58006 30.2193 1.57787 28.7404ZM25.0569 46.8018C15.6303 46.8018 7.9623 38.7004 7.9623 28.7404V23.5978C10.0586 24.6106 12.3701 25.0969 14.6968 25.0147C15.426 25.0152 16.1549 24.9791 16.8805 24.9064C19.8227 24.6313 26.8822 23.3478 31.708 17.4801C32.8666 19.9139 35.9838 24.673 42.1432 23.4811V28.7404C42.1432 38.7004 34.4752 46.8018 25.0569 46.8018ZM42.96 34.2997C43.4676 32.4845 43.7256 30.6086 43.7268 28.7237V23.2228C45.0974 23.4473 46.3349 24.1754 47.1969 25.2643C48.059 26.3533 48.4837 27.7248 48.3878 29.1104C48.2918 30.496 47.6823 31.7959 46.6784 32.7557C45.6744 33.7155 44.3485 34.2661 42.96 34.2997Z" fill="white"/>
</svg>
