<svg width="90" height="90" viewBox="0 0 90 90" fill="none" xmlns="http://www.w3.org/2000/svg">
<circle cx="45" cy="45" r="44" stroke="#F39035" stroke-width="2"/>
<path d="M42.0599 54.9384C41.7859 54.939 41.5145 54.8854 41.2612 54.7808C41.008 54.6762 40.7778 54.5226 40.5841 54.3288L31.7292 45.4705C31.5297 45.278 31.3705 45.0478 31.2609 44.7931C31.1514 44.5385 31.0936 44.2646 31.091 43.9874C31.0884 43.7102 31.141 43.4352 31.2458 43.1786C31.3505 42.9219 31.5054 42.6887 31.7012 42.4926C31.8971 42.2964 32.13 42.1412 32.3865 42.0361C32.643 41.9309 32.9178 41.8779 33.195 41.8801C33.4721 41.8823 33.7461 41.9397 34.0008 42.0489C34.2556 42.1582 34.486 42.317 34.6787 42.5163L42.0578 49.8965L55.3443 36.6121C55.7358 36.2204 56.2667 36.0002 56.8205 36C57.3742 35.9998 57.9053 36.2196 58.297 36.6111C58.6887 37.0026 58.9089 37.5336 58.9091 38.0874C58.9093 38.6413 58.6895 39.1725 58.2981 39.5642L43.5357 54.3288C43.342 54.5226 43.1119 54.6762 42.8586 54.7808C42.6053 54.8854 42.3339 54.939 42.0599 54.9384Z" fill="#F39035"/>
</svg>
