<svg width="39" height="50" viewBox="0 0 39 50" fill="none" xmlns="http://www.w3.org/2000/svg">
<path d="M21.8754 5.34983C22.5441 5.34983 23.0218 4.8244 23.0218 4.20344V1.14639C23.0218 0.477663 22.4964 0 21.8754 0C21.2067 0 20.729 0.52543 20.729 1.14639V4.15567C20.729 4.8244 21.2544 5.34983 21.8754 5.34983Z" fill="#F39035"/>
<path d="M15.0448 7.4038C15.2836 7.64263 15.5702 7.73816 15.8568 7.73816C16.1434 7.73816 16.4777 7.64263 16.6688 7.4038C17.1465 6.92613 17.1465 6.20964 16.6688 5.73198L14.5193 3.58249C14.0417 3.10483 13.3252 3.10483 12.8475 3.58249C12.3698 4.06015 12.3698 4.77665 12.8475 5.25431L15.0448 7.4038Z" fill="#F39035"/>
<path d="M10.2685 13.7088H13.2777C13.9465 13.7088 14.4241 13.1834 14.4241 12.5624C14.4241 11.9414 13.8987 11.416 13.2777 11.416H10.2685C9.59973 11.416 9.12207 11.9414 9.12207 12.5624C9.12207 13.1834 9.6475 13.7088 10.2685 13.7088Z" fill="#F39035"/>
<path d="M29.0884 12.7536C29.0884 13.4223 29.6138 13.9 30.2348 13.9H33.2441C33.9128 13.9 34.3904 13.3745 34.3904 12.7536C34.3904 12.1326 33.865 11.6072 33.2441 11.6072H30.2348C29.6138 11.6072 29.0884 12.1326 29.0884 12.7536Z" fill="#F39035"/>
<path d="M27.8469 7.92908C28.1335 7.92908 28.4679 7.83355 28.659 7.59471L30.8085 5.44523C31.2861 4.96757 31.2861 4.25107 30.8085 3.77341C30.3308 3.29575 29.6143 3.29575 29.1366 3.77341L26.9872 5.92289C26.5095 6.40056 26.5095 7.11705 26.9872 7.59471C27.226 7.78578 27.5604 7.92908 27.8469 7.92908Z" fill="#F39035"/>
<mask id="path-6-outside-1" maskUnits="userSpaceOnUse" x="0" y="11.7317" width="39" height="38" fill="black">
<rect fill="white" y="11.7317" width="39" height="38"/>
<path d="M37.8614 30.4833C36.973 27.6959 34.1523 26.6602 27.4541 26.6602C26.9612 26.6602 26.5123 26.4284 26.0814 25.9505C25.3698 25.1625 25.584 21.9659 25.6872 20.4296C25.7238 19.8878 25.7525 19.4593 25.7525 19.1543C25.7525 14.248 23.3245 13.1946 22.8378 13.0336C21.9152 12.7281 20.9483 12.7269 20.4361 12.7331L20.3645 12.7339C20.1269 12.7158 19.9045 12.8138 19.7343 12.9784C19.5657 13.1415 19.4671 13.3699 19.4642 13.6128V13.7178C19.4646 17.6747 19.4646 19.0085 17.7659 21.9433C17.1751 22.9638 14.3903 27.1809 11.4496 29.6773C11.1643 28.7407 10.2936 28.0578 9.2666 28.0578H3.28248C2.02408 28.0582 1 29.0841 1 30.3442V46.4465C1 47.7066 2.02408 48.7317 3.28248 48.7317H9.26702C10.4831 48.7317 11.4776 47.7733 11.5433 46.5721C12.8235 46.7347 14.1806 46.9331 15.6088 47.1439C19.4494 47.7103 23.3599 48.2863 26.6303 48.2863C29.4977 48.2863 31.8727 47.8433 33.2759 46.5606C34.1001 45.808 34.5371 44.8151 34.5803 43.6036C35.2048 43.2771 35.6862 42.688 35.9559 41.8972C36.249 41.0343 36.2671 40.0188 36.0484 39.2156C36.6539 38.8039 37.1136 37.9551 37.306 37.1165C37.3245 37.0342 37.6562 35.5139 37.017 34.3793C37.9045 33.3559 38.2051 31.5623 37.8614 30.4833ZM10.1879 46.4465C10.1879 46.9545 9.77433 47.3678 9.26702 47.3678H3.28248C2.77517 47.3678 2.36201 46.9545 2.36201 46.4465V30.3442C2.36201 29.8354 2.77517 29.4216 3.28248 29.4216H9.26702C9.77433 29.4216 10.1879 29.8354 10.1879 30.3442V46.4465ZM34.6662 41.4575C34.5499 41.7992 34.325 42.2286 33.904 42.4225C32.5313 42.1837 25.8734 41.0348 24.8103 40.852C24.6351 40.6885 24.3905 40.2036 24.3363 39.7047C24.3025 39.3951 24.4135 38.955 24.5533 38.6693C26.3084 38.8027 32.7089 39.2909 34.6909 39.4338C34.8557 39.8998 34.9162 40.7219 34.6662 41.4575ZM35.9773 36.8119C35.8021 37.5751 35.4079 38.0275 35.2549 38.107C34.2304 38.0395 26.0128 37.4121 24.467 37.2939C24.3885 37.1033 24.3025 36.6838 24.4016 36.201C24.4045 36.1882 24.673 34.9927 25.4759 34.9697C25.4779 34.9697 25.48 34.9705 25.482 34.9705C25.4886 34.9705 25.4948 34.968 25.5022 34.9676L25.5675 34.9688C25.5753 34.9688 25.5762 34.9688 35.6467 34.8132C36.1845 35.3056 36.05 36.4961 35.9773 36.8119ZM35.999 33.4638C35.9493 33.4535 35.8996 33.4444 35.8498 33.4469C35.8498 33.4469 26.2393 33.5955 25.6267 33.6071C25.3723 33.4609 25.2415 33.0851 25.2798 32.8656C25.4051 32.153 26.918 31.0218 30.4466 31.0218C30.4515 31.0218 30.4552 31.0218 30.4606 31.0218C30.8363 31.0218 31.141 30.7172 31.141 30.3405C31.1418 29.9646 30.8376 29.6592 30.4614 29.6583C30.456 29.6583 30.4515 29.6583 30.4462 29.6583C26.0288 29.6583 24.1796 31.2593 23.9391 32.6306C23.8618 33.0735 23.9589 33.5931 24.2121 34.0368C23.5342 34.5473 23.1773 35.3933 23.0692 35.9268C22.92 36.6522 23.0034 37.5072 23.3369 38.0642C23.054 38.6372 22.9282 39.3498 22.9833 39.8524C23.0557 40.5119 23.3562 41.3237 23.8594 41.8149C23.6287 42.3649 23.5297 43.0906 23.9062 43.8308C24.5159 45.0337 27.0512 45.6397 28.1135 45.8443C28.1563 45.8529 28.2003 45.8566 28.2422 45.8566C28.5621 45.8566 28.8478 45.6294 28.9103 45.3037C28.981 44.9341 28.7393 44.5755 28.3705 44.5059C26.569 44.1581 25.3032 43.576 25.1194 43.2141C24.9422 42.865 25.0302 42.525 25.1408 42.292C26.8938 42.5942 31.4489 43.3808 33.2088 43.6859C33.155 44.4639 32.8771 45.0806 32.3578 45.5536C29.8312 47.8622 22.0546 46.7158 15.8074 45.794C14.3109 45.5742 12.8922 45.3663 11.5499 45.1996V31.3388C14.9309 28.828 18.2781 23.7793 18.9445 22.6275C20.7662 19.4799 20.8246 17.8279 20.8262 14.099C21.2768 14.1085 21.8741 14.1509 22.4106 14.3287C22.6137 14.3962 24.3918 15.1018 24.3918 19.1551C24.3918 19.4136 24.363 19.843 24.3297 20.3386C24.1418 23.1375 24.0571 25.7422 25.0721 26.8652C25.7661 27.6342 26.5682 28.024 27.4554 28.024C34.279 28.024 35.9995 29.1244 36.5656 30.8987C36.7571 31.4993 36.5668 32.8055 35.999 33.4638Z"/>
</mask>
<path d="M37.8614 30.4833C36.973 27.6959 34.1523 26.6602 27.4541 26.6602C26.9612 26.6602 26.5123 26.4284 26.0814 25.9505C25.3698 25.1625 25.584 21.9659 25.6872 20.4296C25.7238 19.8878 25.7525 19.4593 25.7525 19.1543C25.7525 14.248 23.3245 13.1946 22.8378 13.0336C21.9152 12.7281 20.9483 12.7269 20.4361 12.7331L20.3645 12.7339C20.1269 12.7158 19.9045 12.8138 19.7343 12.9784C19.5657 13.1415 19.4671 13.3699 19.4642 13.6128V13.7178C19.4646 17.6747 19.4646 19.0085 17.7659 21.9433C17.1751 22.9638 14.3903 27.1809 11.4496 29.6773C11.1643 28.7407 10.2936 28.0578 9.2666 28.0578H3.28248C2.02408 28.0582 1 29.0841 1 30.3442V46.4465C1 47.7066 2.02408 48.7317 3.28248 48.7317H9.26702C10.4831 48.7317 11.4776 47.7733 11.5433 46.5721C12.8235 46.7347 14.1806 46.9331 15.6088 47.1439C19.4494 47.7103 23.3599 48.2863 26.6303 48.2863C29.4977 48.2863 31.8727 47.8433 33.2759 46.5606C34.1001 45.808 34.5371 44.8151 34.5803 43.6036C35.2048 43.2771 35.6862 42.688 35.9559 41.8972C36.249 41.0343 36.2671 40.0188 36.0484 39.2156C36.6539 38.8039 37.1136 37.9551 37.306 37.1165C37.3245 37.0342 37.6562 35.5139 37.017 34.3793C37.9045 33.3559 38.2051 31.5623 37.8614 30.4833ZM10.1879 46.4465C10.1879 46.9545 9.77433 47.3678 9.26702 47.3678H3.28248C2.77517 47.3678 2.36201 46.9545 2.36201 46.4465V30.3442C2.36201 29.8354 2.77517 29.4216 3.28248 29.4216H9.26702C9.77433 29.4216 10.1879 29.8354 10.1879 30.3442V46.4465ZM34.6662 41.4575C34.5499 41.7992 34.325 42.2286 33.904 42.4225C32.5313 42.1837 25.8734 41.0348 24.8103 40.852C24.6351 40.6885 24.3905 40.2036 24.3363 39.7047C24.3025 39.3951 24.4135 38.955 24.5533 38.6693C26.3084 38.8027 32.7089 39.2909 34.6909 39.4338C34.8557 39.8998 34.9162 40.7219 34.6662 41.4575ZM35.9773 36.8119C35.8021 37.5751 35.4079 38.0275 35.2549 38.107C34.2304 38.0395 26.0128 37.4121 24.467 37.2939C24.3885 37.1033 24.3025 36.6838 24.4016 36.201C24.4045 36.1882 24.673 34.9927 25.4759 34.9697C25.4779 34.9697 25.48 34.9705 25.482 34.9705C25.4886 34.9705 25.4948 34.968 25.5022 34.9676L25.5675 34.9688C25.5753 34.9688 25.5762 34.9688 35.6467 34.8132C36.1845 35.3056 36.05 36.4961 35.9773 36.8119ZM35.999 33.4638C35.9493 33.4535 35.8996 33.4444 35.8498 33.4469C35.8498 33.4469 26.2393 33.5955 25.6267 33.6071C25.3723 33.4609 25.2415 33.0851 25.2798 32.8656C25.4051 32.153 26.918 31.0218 30.4466 31.0218C30.4515 31.0218 30.4552 31.0218 30.4606 31.0218C30.8363 31.0218 31.141 30.7172 31.141 30.3405C31.1418 29.9646 30.8376 29.6592 30.4614 29.6583C30.456 29.6583 30.4515 29.6583 30.4462 29.6583C26.0288 29.6583 24.1796 31.2593 23.9391 32.6306C23.8618 33.0735 23.9589 33.5931 24.2121 34.0368C23.5342 34.5473 23.1773 35.3933 23.0692 35.9268C22.92 36.6522 23.0034 37.5072 23.3369 38.0642C23.054 38.6372 22.9282 39.3498 22.9833 39.8524C23.0557 40.5119 23.3562 41.3237 23.8594 41.8149C23.6287 42.3649 23.5297 43.0906 23.9062 43.8308C24.5159 45.0337 27.0512 45.6397 28.1135 45.8443C28.1563 45.8529 28.2003 45.8566 28.2422 45.8566C28.5621 45.8566 28.8478 45.6294 28.9103 45.3037C28.981 44.9341 28.7393 44.5755 28.3705 44.5059C26.569 44.1581 25.3032 43.576 25.1194 43.2141C24.9422 42.865 25.0302 42.525 25.1408 42.292C26.8938 42.5942 31.4489 43.3808 33.2088 43.6859C33.155 44.4639 32.8771 45.0806 32.3578 45.5536C29.8312 47.8622 22.0546 46.7158 15.8074 45.794C14.3109 45.5742 12.8922 45.3663 11.5499 45.1996V31.3388C14.9309 28.828 18.2781 23.7793 18.9445 22.6275C20.7662 19.4799 20.8246 17.8279 20.8262 14.099C21.2768 14.1085 21.8741 14.1509 22.4106 14.3287C22.6137 14.3962 24.3918 15.1018 24.3918 19.1551C24.3918 19.4136 24.363 19.843 24.3297 20.3386C24.1418 23.1375 24.0571 25.7422 25.0721 26.8652C25.7661 27.6342 26.5682 28.024 27.4554 28.024C34.279 28.024 35.9995 29.1244 36.5656 30.8987C36.7571 31.4993 36.5668 32.8055 35.999 33.4638Z" fill="#67BC9E"/>
<path d="M37.8614 30.4833C36.973 27.6959 34.1523 26.6602 27.4541 26.6602C26.9612 26.6602 26.5123 26.4284 26.0814 25.9505C25.3698 25.1625 25.584 21.9659 25.6872 20.4296C25.7238 19.8878 25.7525 19.4593 25.7525 19.1543C25.7525 14.248 23.3245 13.1946 22.8378 13.0336C21.9152 12.7281 20.9483 12.7269 20.4361 12.7331L20.3645 12.7339C20.1269 12.7158 19.9045 12.8138 19.7343 12.9784C19.5657 13.1415 19.4671 13.3699 19.4642 13.6128V13.7178C19.4646 17.6747 19.4646 19.0085 17.7659 21.9433C17.1751 22.9638 14.3903 27.1809 11.4496 29.6773C11.1643 28.7407 10.2936 28.0578 9.2666 28.0578H3.28248C2.02408 28.0582 1 29.0841 1 30.3442V46.4465C1 47.7066 2.02408 48.7317 3.28248 48.7317H9.26702C10.4831 48.7317 11.4776 47.7733 11.5433 46.5721C12.8235 46.7347 14.1806 46.9331 15.6088 47.1439C19.4494 47.7103 23.3599 48.2863 26.6303 48.2863C29.4977 48.2863 31.8727 47.8433 33.2759 46.5606C34.1001 45.808 34.5371 44.8151 34.5803 43.6036C35.2048 43.2771 35.6862 42.688 35.9559 41.8972C36.249 41.0343 36.2671 40.0188 36.0484 39.2156C36.6539 38.8039 37.1136 37.9551 37.306 37.1165C37.3245 37.0342 37.6562 35.5139 37.017 34.3793C37.9045 33.3559 38.2051 31.5623 37.8614 30.4833ZM10.1879 46.4465C10.1879 46.9545 9.77433 47.3678 9.26702 47.3678H3.28248C2.77517 47.3678 2.36201 46.9545 2.36201 46.4465V30.3442C2.36201 29.8354 2.77517 29.4216 3.28248 29.4216H9.26702C9.77433 29.4216 10.1879 29.8354 10.1879 30.3442V46.4465ZM34.6662 41.4575C34.5499 41.7992 34.325 42.2286 33.904 42.4225C32.5313 42.1837 25.8734 41.0348 24.8103 40.852C24.6351 40.6885 24.3905 40.2036 24.3363 39.7047C24.3025 39.3951 24.4135 38.955 24.5533 38.6693C26.3084 38.8027 32.7089 39.2909 34.6909 39.4338C34.8557 39.8998 34.9162 40.7219 34.6662 41.4575ZM35.9773 36.8119C35.8021 37.5751 35.4079 38.0275 35.2549 38.107C34.2304 38.0395 26.0128 37.4121 24.467 37.2939C24.3885 37.1033 24.3025 36.6838 24.4016 36.201C24.4045 36.1882 24.673 34.9927 25.4759 34.9697C25.4779 34.9697 25.48 34.9705 25.482 34.9705C25.4886 34.9705 25.4948 34.968 25.5022 34.9676L25.5675 34.9688C25.5753 34.9688 25.5762 34.9688 35.6467 34.8132C36.1845 35.3056 36.05 36.4961 35.9773 36.8119ZM35.999 33.4638C35.9493 33.4535 35.8996 33.4444 35.8498 33.4469C35.8498 33.4469 26.2393 33.5955 25.6267 33.6071C25.3723 33.4609 25.2415 33.0851 25.2798 32.8656C25.4051 32.153 26.918 31.0218 30.4466 31.0218C30.4515 31.0218 30.4552 31.0218 30.4606 31.0218C30.8363 31.0218 31.141 30.7172 31.141 30.3405C31.1418 29.9646 30.8376 29.6592 30.4614 29.6583C30.456 29.6583 30.4515 29.6583 30.4462 29.6583C26.0288 29.6583 24.1796 31.2593 23.9391 32.6306C23.8618 33.0735 23.9589 33.5931 24.2121 34.0368C23.5342 34.5473 23.1773 35.3933 23.0692 35.9268C22.92 36.6522 23.0034 37.5072 23.3369 38.0642C23.054 38.6372 22.9282 39.3498 22.9833 39.8524C23.0557 40.5119 23.3562 41.3237 23.8594 41.8149C23.6287 42.3649 23.5297 43.0906 23.9062 43.8308C24.5159 45.0337 27.0512 45.6397 28.1135 45.8443C28.1563 45.8529 28.2003 45.8566 28.2422 45.8566C28.5621 45.8566 28.8478 45.6294 28.9103 45.3037C28.981 44.9341 28.7393 44.5755 28.3705 44.5059C26.569 44.1581 25.3032 43.576 25.1194 43.2141C24.9422 42.865 25.0302 42.525 25.1408 42.292C26.8938 42.5942 31.4489 43.3808 33.2088 43.6859C33.155 44.4639 32.8771 45.0806 32.3578 45.5536C29.8312 47.8622 22.0546 46.7158 15.8074 45.794C14.3109 45.5742 12.8922 45.3663 11.5499 45.1996V31.3388C14.9309 28.828 18.2781 23.7793 18.9445 22.6275C20.7662 19.4799 20.8246 17.8279 20.8262 14.099C21.2768 14.1085 21.8741 14.1509 22.4106 14.3287C22.6137 14.3962 24.3918 15.1018 24.3918 19.1551C24.3918 19.4136 24.363 19.843 24.3297 20.3386C24.1418 23.1375 24.0571 25.7422 25.0721 26.8652C25.7661 27.6342 26.5682 28.024 27.4554 28.024C34.279 28.024 35.9995 29.1244 36.5656 30.8987C36.7571 31.4993 36.5668 32.8055 35.999 33.4638Z" stroke="#67BC9E" stroke-width="0.6" mask="url(#path-6-outside-1)"/>
</svg>
