<svg width="50" height="50" viewBox="0 0 50 50" fill="none" xmlns="http://www.w3.org/2000/svg">
<path d="M47.5806 12.5024V4.03226C47.5806 1.80887 45.7718 0 43.5484 0H17.7419C16.4081 0 15.3226 1.08548 15.3226 2.41935C15.3226 3.75323 16.4081 4.83871 17.7419 4.83871H18.5484V5.64516C18.5484 6.97903 19.6339 8.06452 20.9677 8.06452H29.0323C30.3661 8.06452 31.4516 6.97903 31.4516 5.64516V4.83871H42.7419V13.45C42.4121 13.8081 42.1339 14.2202 41.9403 14.6895L38.0202 24.2129C37.6202 25.1806 36.6863 25.8065 35.6387 25.8065H16.129V22.5806H21.7742C23.9976 22.5806 25.8065 20.7718 25.8065 18.5484V17.7419H17.6524C18.7016 16.7161 19.3548 15.2887 19.3548 13.7097V11.2903H6.45161V13.7097C6.45161 15.2887 7.10484 16.7161 8.15403 17.7419H4.83871V8.06452C4.83871 7.175 5.5621 6.45161 6.45161 6.45161C7.34113 6.45161 8.06452 7.175 8.06452 8.06452V9.67742H9.67742V8.06452C9.67742 6.28548 8.23065 4.83871 6.45161 4.83871C4.67258 4.83871 3.22581 6.28548 3.22581 8.06452V17.7419H0V18.5484C0 20.7718 1.80887 22.5806 4.03226 22.5806H9.67742V28.875L1.12903 37.9927C0.400807 38.7702 0 39.7839 0 40.8484V40.9855C0 43.2887 1.87258 45.1613 4.17581 45.1613C5.33387 45.1613 6.44919 44.6742 7.23548 43.8274L14.3556 36.1605C15.004 36.6992 15.8137 37.0226 16.6637 37.0806L14.7226 43.5484H12.0968C9.87339 43.5484 8.06452 45.3573 8.06452 47.5806V50H41.9355V47.5806C41.9355 45.3573 40.1266 43.5484 37.9032 43.5484H35.2774L33.3339 37.0694C35.1581 36.946 36.6581 35.6218 37.0153 33.871H40.4524C42.175 33.871 43.7008 32.8379 44.3403 31.2379L49.7 17.8403C49.8992 17.3435 50 16.8202 50 16.2839C50 14.6089 49.0048 13.171 47.5806 12.5024ZM29.8387 5.64516C29.8387 6.09032 29.4774 6.45161 29.0323 6.45161H20.9677C20.5226 6.45161 20.1613 6.09032 20.1613 5.64516V4.83871H29.8387V5.64516ZM17.7419 3.22581C17.2968 3.22581 16.9355 2.86452 16.9355 2.41935C16.9355 1.97419 17.2968 1.6129 17.7419 1.6129H43.5484C44.8823 1.6129 45.9677 2.69839 45.9677 4.03226V12.1121C45.9153 12.1105 45.8653 12.0968 45.8129 12.0968C45.3032 12.0968 44.8137 12.1976 44.3548 12.3677V4.83871C44.3548 3.94919 43.6315 3.22581 42.7419 3.22581H17.7419ZM8.06452 13.7097V12.9032H17.7419V13.7097C17.7419 15.9331 15.9331 17.7419 13.7097 17.7419H12.0968C9.87339 17.7419 8.06452 15.9331 8.06452 13.7097ZM1.75081 19.3548H12.0968H13.7097H24.0556C23.7226 20.2935 22.8258 20.9677 21.7742 20.9677H4.03226C2.98065 20.9677 2.08387 20.2935 1.75081 19.3548ZM11.2903 22.5806H14.5161V25.8065H14.3637C13.2129 25.8065 12.1024 26.2879 11.3169 27.1266L11.2903 27.154V22.5806ZM21.0492 35.4839H16.9355C16.3879 35.4839 15.8766 35.2968 15.4589 34.9718L15.721 34.6895C16.204 34.1694 16.8879 33.871 17.5984 33.871H21.0492C20.996 34.1315 20.9677 34.4016 20.9677 34.6774C20.9677 34.9532 20.996 35.2234 21.0492 35.4839ZM40.3226 47.5806V48.3871H9.67742V47.5806C9.67742 46.2468 10.7629 45.1613 12.0968 45.1613H37.9032C39.2371 45.1613 40.3226 46.2468 40.3226 47.5806ZM16.4065 43.5484L18.3419 37.0968H21.7944C22.5315 38.0702 23.6879 38.7097 24.9992 38.7097C26.3105 38.7097 27.4677 38.0702 28.204 37.0968H31.6565L33.5919 43.5484H16.4065ZM22.5806 34.6774C22.5806 33.3435 23.6661 32.2581 25 32.2581C26.3339 32.2581 27.4194 33.3435 27.4194 34.6774C27.4194 36.0113 26.3339 37.0968 25 37.0968C23.6661 37.0968 22.5806 36.0113 22.5806 34.6774ZM33.0645 35.4839H28.9508C29.004 35.2234 29.0323 34.9532 29.0323 34.6774C29.0323 34.4016 29.004 34.1315 28.9508 33.871H35.3355C35.0016 34.8073 34.1145 35.4839 33.0645 35.4839ZM48.2024 17.2411L42.8427 30.6395C42.45 31.6226 41.5113 32.2581 40.4524 32.2581H28.2048C27.4677 31.2847 26.3113 30.6452 25 30.6452C23.6887 30.6452 22.5315 31.2847 21.7952 32.2581H17.5992C16.4411 32.2581 15.3258 32.7452 14.5395 33.5919L6.05323 42.7298C5.57016 43.25 4.88629 43.5484 4.17581 43.5484C2.7629 43.5484 1.6129 42.3984 1.6129 40.9855V40.8484C1.6129 40.1944 1.85968 39.5726 2.30565 39.0952L12.4927 28.2282C12.9758 27.7145 13.6573 27.4194 14.3637 27.4194H35.6395C37.3419 27.4194 38.8621 26.4016 39.5121 24.8266L43.4323 15.3032C43.8315 14.3355 44.7653 13.7089 45.8129 13.7089C47.2323 13.7097 48.3871 14.8645 48.3871 16.2839C48.3871 16.6145 48.325 16.9355 48.2024 17.2411Z" fill="#67BC9E"/>
<path d="M3.79576 39.4181L2.65527 40.5586L3.79576 41.6991L4.93624 40.5586L3.79576 39.4181Z" fill="#F39035"/>
<path d="M8.35777 34.8561L7.21729 35.9966L8.35777 37.1371L9.49825 35.9966L8.35777 34.8561Z" fill="#F39035"/>
<path d="M6.07652 37.1376L4.93604 38.2781L6.07652 39.4186L7.217 38.2781L6.07652 37.1376Z" fill="#F39035"/>
<path d="M44.6081 18.6551L43.8872 20.0969L45.3298 20.8182L46.0507 19.3764L44.6081 18.6551Z" fill="#F39035"/>
<path d="M46.0514 15.7691L45.3301 17.2117L46.7727 17.933L47.4939 16.4904L46.0514 15.7691Z" fill="#F39035"/>
<path d="M43.1666 21.54L42.4453 22.9825L43.8879 23.7038L44.6092 22.2613L43.1666 21.54Z" fill="#F39035"/>
</svg>
