<svg width="53" height="53" viewBox="0 0 53 53" fill="none" xmlns="http://www.w3.org/2000/svg">
<g clip-path="url(#clip0)">
<path d="M47.3824 48.6257C46.9497 48.6257 46.553 48.3475 46.4079 47.9395C46.2651 47.5392 46.3856 47.0762 46.712 46.8016C47.0532 46.5146 47.5486 46.4786 47.9283 46.7123C48.2805 46.9294 48.4697 47.352 48.403 47.76C48.3221 48.2533 47.8814 48.6257 47.3824 48.6257Z" fill="#F39035"/>
<path d="M26.5 42.7144C25.9282 42.7144 25.4648 42.251 25.4648 41.6792V33.9127C25.4648 33.341 25.9282 32.8776 26.5 32.8776C27.0718 32.8776 27.5352 33.341 27.5352 33.9127V41.6792C27.5352 42.251 27.0718 42.7144 26.5 42.7144Z" fill="#F39035"/>
<path d="M51.9648 29.4733H37.0574V26.7128C37.0574 26.141 36.594 25.6776 36.0222 25.6776H16.9778C16.406 25.6776 15.9426 26.141 15.9426 26.7128V32.2298H1.03516C0.463394 32.2298 0 32.6932 0 33.265V47.591C0 48.1627 0.463394 48.6261 1.03516 48.6261H42.7192C43.291 48.6261 43.7544 48.1627 43.7544 47.591C43.7544 47.0192 43.291 46.5558 42.7192 46.5558H37.0574V31.5436H50.9297V47.591C50.9297 48.1627 51.3931 48.6261 51.9648 48.6261C52.5366 48.6261 53 48.1627 53 47.591V30.5085C53 29.9367 52.5366 29.4733 51.9648 29.4733ZM2.07031 34.3001H15.9426V46.5558H2.07031V34.3001ZM18.0129 27.7479H34.9871V46.5554H18.0129V27.7479Z" fill="#67BC9E"/>
<path d="M11.363 26.8542C11.141 26.8542 10.9174 26.8105 10.7039 26.722L9.00684 26.0188L7.30935 26.722C6.75457 26.9521 6.13267 26.8785 5.64663 26.5255C5.16019 26.172 4.89816 25.6035 4.94547 25.0047L5.09023 23.1729L3.89657 21.7759C3.50596 21.3189 3.38384 20.7051 3.56944 20.1338C3.75545 19.562 4.2148 19.137 4.7995 18.9971L6.58595 18.5685L7.5459 17.0016C7.85968 16.4893 8.40597 16.1836 9.00684 16.1836C9.60772 16.1836 10.154 16.4893 10.4678 17.0016L11.4273 18.5685L13.2142 18.9971C13.7985 19.137 14.2582 19.562 14.4438 20.1338C14.6294 20.7051 14.5073 21.3189 14.1171 21.7759L12.9239 23.1729L13.0682 25.0047C13.1155 25.6035 12.8535 26.172 12.3671 26.5255C12.0678 26.7426 11.7173 26.8542 11.363 26.8542ZM5.84921 20.8741L6.9426 22.1543C7.12092 22.363 7.20907 22.6343 7.18764 22.9081L7.05501 24.5862L8.61017 23.9416C8.86411 23.8365 9.14918 23.8365 9.40271 23.9416L10.9579 24.5862L10.8256 22.9081C10.8042 22.6343 10.8924 22.363 11.0707 22.1543L12.1641 20.8741L10.5272 20.4815C10.2599 20.4176 10.0295 20.2498 9.88592 20.0157L9.00644 18.5802L8.12737 20.0157C7.98382 20.2498 7.75293 20.4176 7.48605 20.4815L5.84921 20.8741ZM12.731 21.0104H12.7318H12.731Z" fill="#67BC9E"/>
<path d="M41.6373 26.8542C41.2827 26.8542 40.9321 26.7426 40.6329 26.5255C40.1469 26.1721 39.8848 25.6035 39.9322 25.0047L40.0765 23.1729L38.8833 21.7763C38.4926 21.3189 38.3705 20.7051 38.5565 20.1338C38.7421 19.562 39.2019 19.137 39.7862 18.9971L41.5726 18.5685L42.5326 17.0016C42.8464 16.4893 43.3927 16.1836 43.9931 16.1836C44.5944 16.1832 45.1403 16.4893 45.4545 17.0016V17.002L46.4144 18.5685L48.2009 18.9971C48.7852 19.1374 49.2449 19.5624 49.4305 20.1338C49.6165 20.7055 49.494 21.3193 49.1038 21.7763L47.9105 23.1729L48.0549 25.0047C48.1022 25.6039 47.8402 26.1725 47.3542 26.5255C46.8677 26.8785 46.2462 26.9521 45.691 26.722L43.9935 26.0188L42.2964 26.722C42.0825 26.8105 41.8589 26.8542 41.6373 26.8542ZM43.9931 23.8628C44.1282 23.8628 44.2628 23.889 44.3894 23.9416L45.945 24.5862L45.8123 22.9081C45.7909 22.6343 45.8791 22.363 46.0574 22.1543L47.1508 20.8741L45.5139 20.4815C45.2466 20.4176 45.0162 20.2498 44.8726 20.0157L43.9931 18.5798L43.1141 20.0157C42.9705 20.2498 42.74 20.4176 42.4727 20.4815L40.8355 20.8741L41.9293 22.1539C42.1076 22.363 42.1958 22.6339 42.1743 22.9081L42.0417 24.5862L43.5969 23.9416C43.7238 23.889 43.8585 23.8628 43.9931 23.8628Z" fill="#67BC9E"/>
<path d="M22.3719 21.49C21.9117 21.49 21.4568 21.3452 21.0686 21.0634C20.4378 20.6049 20.0978 19.8669 20.1588 19.0893L20.4374 15.5577L18.1362 12.8642C17.6296 12.271 17.4711 11.4745 17.712 10.7325C17.953 9.99088 18.5495 9.43933 19.308 9.25737L22.7532 8.43086L24.6035 5.4099C25.0111 4.74474 25.72 4.34766 26.5 4.34766C27.2796 4.34766 27.9888 4.74474 28.396 5.4099L30.2463 8.43086L33.6915 9.25737C34.45 9.43933 35.0469 9.99088 35.2879 10.7325C35.5289 11.4745 35.3699 12.271 34.8633 12.8642L32.5621 15.5577L32.8407 19.0893C32.9022 19.8669 32.5621 20.6049 31.9309 21.063C31.3001 21.5215 30.493 21.617 29.7724 21.3186L26.5 19.9623L23.2271 21.3186C22.9497 21.4334 22.6598 21.49 22.3719 21.49ZM26.5 6.41797C26.4142 6.41797 26.3803 6.47296 26.3689 6.49116L24.2946 9.87806C24.151 10.1122 23.9206 10.28 23.6533 10.3439L19.7913 11.2707C19.7702 11.2755 19.7076 11.2905 19.6809 11.3722C19.6546 11.4538 19.6962 11.5032 19.7104 11.5193L22.2902 14.5387C22.4689 14.7477 22.5567 15.0191 22.5352 15.2928L22.2227 19.2523C22.221 19.2733 22.2162 19.338 22.2857 19.3886C22.3553 19.4391 22.4147 19.414 22.4345 19.4059L26.1037 17.8852C26.3576 17.78 26.6423 17.78 26.8962 17.8852L30.5654 19.4059C30.5852 19.414 30.6446 19.4391 30.7142 19.3886C30.7837 19.338 30.7789 19.2733 30.7768 19.2523L30.4647 15.2928C30.4429 15.0191 30.531 14.7477 30.7093 14.5387L33.2895 11.5193C33.3033 11.5032 33.3453 11.4538 33.3186 11.3722C33.2924 11.2905 33.2293 11.2755 33.2087 11.2707L29.3462 10.3439C29.0794 10.28 28.8485 10.1122 28.7053 9.87806L26.6306 6.49116C26.6196 6.47296 26.5857 6.41797 26.5 6.41797Z" fill="#F39035"/>
</g>
<defs>
<clipPath id="clip0">
<rect width="53" height="53" fill="white"/>
</clipPath>
</defs>
</svg>
