<svg width="72" height="90" viewBox="0 0 72 90" fill="none" xmlns="http://www.w3.org/2000/svg">
<mask id="path-1-outside-1" maskUnits="userSpaceOnUse" x="9" y="11" width="19" height="24" fill="black">
<rect fill="white" x="9" y="11" width="19" height="24"/>
<path d="M26.3703 14.9739C25.9502 14.1623 25.4254 13.5359 24.7951 13.0942C24.1653 12.6529 23.485 12.36 22.7554 12.2162C22.0247 12.0726 21.3604 12 20.7606 12H12.8124V23.0308H10V24.202H12.8124V27.8452H10V29.0165H12.8124V34H14.1322V29.0165H22.1872V27.8452H14.1322V24.202H20.28C22.4402 24.202 24.1003 23.6776 25.2602 22.6301C26.4195 21.5829 27 20.0938 27 18.1622C27 16.8485 26.7901 15.7854 26.3703 14.9739ZM25.4104 19.8573C25.2304 20.4329 24.9402 20.9562 24.5402 21.4284C24.1402 21.9014 23.6047 22.2866 22.935 22.5842C22.2648 22.8823 21.4501 23.0311 20.4905 23.0311H14.1322V13.1712H20.6701C21.75 13.1712 22.6151 13.3514 23.2652 13.7105C23.9147 14.0697 24.42 14.511 24.7804 15.0354C25.1402 15.559 25.3801 16.1036 25.5001 16.6684C25.6206 17.2335 25.6803 17.7211 25.6803 18.132C25.6803 18.7075 25.5903 19.2825 25.4104 19.8573Z"/>
</mask>
<path d="M26.3703 14.9739C25.9502 14.1623 25.4254 13.5359 24.7951 13.0942C24.1653 12.6529 23.485 12.36 22.7554 12.2162C22.0247 12.0726 21.3604 12 20.7606 12H12.8124V23.0308H10V24.202H12.8124V27.8452H10V29.0165H12.8124V34H14.1322V29.0165H22.1872V27.8452H14.1322V24.202H20.28C22.4402 24.202 24.1003 23.6776 25.2602 22.6301C26.4195 21.5829 27 20.0938 27 18.1622C27 16.8485 26.7901 15.7854 26.3703 14.9739ZM25.4104 19.8573C25.2304 20.4329 24.9402 20.9562 24.5402 21.4284C24.1402 21.9014 23.6047 22.2866 22.935 22.5842C22.2648 22.8823 21.4501 23.0311 20.4905 23.0311H14.1322V13.1712H20.6701C21.75 13.1712 22.6151 13.3514 23.2652 13.7105C23.9147 14.0697 24.42 14.511 24.7804 15.0354C25.1402 15.559 25.3801 16.1036 25.5001 16.6684C25.6206 17.2335 25.6803 17.7211 25.6803 18.132C25.6803 18.7075 25.5903 19.2825 25.4104 19.8573Z" fill="#67BC9E"/>
<path d="M26.3703 14.9739C25.9502 14.1623 25.4254 13.5359 24.7951 13.0942C24.1653 12.6529 23.485 12.36 22.7554 12.2162C22.0247 12.0726 21.3604 12 20.7606 12H12.8124V23.0308H10V24.202H12.8124V27.8452H10V29.0165H12.8124V34H14.1322V29.0165H22.1872V27.8452H14.1322V24.202H20.28C22.4402 24.202 24.1003 23.6776 25.2602 22.6301C26.4195 21.5829 27 20.0938 27 18.1622C27 16.8485 26.7901 15.7854 26.3703 14.9739ZM25.4104 19.8573C25.2304 20.4329 24.9402 20.9562 24.5402 21.4284C24.1402 21.9014 23.6047 22.2866 22.935 22.5842C22.2648 22.8823 21.4501 23.0311 20.4905 23.0311H14.1322V13.1712H20.6701C21.75 13.1712 22.6151 13.3514 23.2652 13.7105C23.9147 14.0697 24.42 14.511 24.7804 15.0354C25.1402 15.559 25.3801 16.1036 25.5001 16.6684C25.6206 17.2335 25.6803 17.7211 25.6803 18.132C25.6803 18.7075 25.5903 19.2825 25.4104 19.8573Z" stroke="#67BC9E" stroke-width="0.6" mask="url(#path-1-outside-1)"/>
<path fill-rule="evenodd" clip-rule="evenodd" d="M47.9155 64.0866H10V48H47.9155V64.0866ZM45.9155 62.0866V57H36V62.0866H45.9155ZM34 62.0866V57H12V62.0866H34ZM12 55H34V50H12V55ZM36 50V55H45.9155V50H36Z" fill="#67BC9E"/>
<path d="M34 32.083H46V30.083H34V32.083Z" fill="#67BC9E"/>
<path d="M42 14H34.2358V12H42V14Z" fill="#67BC9E"/>
<path d="M34 38H42V36H34V38Z" fill="#67BC9E"/>
<path d="M60 17H59V18H60V17Z" fill="#67BC9E"/>
<path d="M62 18H61V19H62V18Z" fill="#67BC9E"/>
<path d="M61 20H62V21H61V20Z" fill="#67BC9E"/>
<path d="M60 19H59V20H60V19Z" fill="#67BC9E"/>
<path d="M59 21H60V22H59V21Z" fill="#67BC9E"/>
<path d="M62 22H61V23H62V22Z" fill="#67BC9E"/>
<path d="M61 24H62V25H61V24Z" fill="#67BC9E"/>
<path d="M60 23H59V24H60V23Z" fill="#67BC9E"/>
<path d="M59 25H60V26H59V25Z" fill="#67BC9E"/>
<path d="M62 26H61V27H62V26Z" fill="#67BC9E"/>
<path d="M61 28H62V29H61V28Z" fill="#67BC9E"/>
<path d="M60 27H59V28H60V27Z" fill="#67BC9E"/>
<path d="M59 29H60V30H59V29Z" fill="#67BC9E"/>
<path d="M62 30H61V31H62V30Z" fill="#67BC9E"/>
<path d="M61 32H62V33H61V32Z" fill="#67BC9E"/>
<path d="M60 31H59V32H60V31Z" fill="#67BC9E"/>
<path d="M59 33H60V34H59V33Z" fill="#67BC9E"/>
<path d="M62 34H61V35H62V34Z" fill="#67BC9E"/>
<path d="M61 36H62V37H61V36Z" fill="#67BC9E"/>
<path d="M60 35H59V36H60V35Z" fill="#67BC9E"/>
<path d="M59 37H60V38H59V37Z" fill="#67BC9E"/>
<path d="M62 38H61V39H62V38Z" fill="#67BC9E"/>
<path d="M61 40H62V41H61V40Z" fill="#67BC9E"/>
<path d="M60 39H59V40H60V39Z" fill="#67BC9E"/>
<path d="M59 41H60V42H59V41Z" fill="#67BC9E"/>
<path d="M62 42H61V43H62V42Z" fill="#67BC9E"/>
<path d="M61 44H62V45H61V44Z" fill="#67BC9E"/>
<path d="M60 43H59V44H60V43Z" fill="#67BC9E"/>
<path d="M59 45H60V46H59V45Z" fill="#67BC9E"/>
<path d="M62 46H61V47H62V46Z" fill="#67BC9E"/>
<path d="M61 48H62V49H61V48Z" fill="#67BC9E"/>
<path d="M60 47H59V48H60V47Z" fill="#67BC9E"/>
<path d="M59 49H60V50H59V49Z" fill="#67BC9E"/>
<path d="M62 50H61V51H62V50Z" fill="#67BC9E"/>
<path d="M61 52H62V53H61V52Z" fill="#67BC9E"/>
<path d="M60 51H59V52H60V51Z" fill="#67BC9E"/>
<path d="M59 53H60V54H59V53Z" fill="#67BC9E"/>
<path d="M62 54H61V55H62V54Z" fill="#67BC9E"/>
<path d="M61 56H62V57H61V56Z" fill="#67BC9E"/>
<path d="M60 55H59V56H60V55Z" fill="#67BC9E"/>
<path d="M59 57H60V58H59V57Z" fill="#67BC9E"/>
<path d="M62 58H61V59H62V58Z" fill="#67BC9E"/>
<path d="M61 60H62V61H61V60Z" fill="#67BC9E"/>
<path d="M60 59H59V60H60V59Z" fill="#67BC9E"/>
<path d="M59 61H60V62H59V61Z" fill="#67BC9E"/>
<path d="M62 62H61V63H62V62Z" fill="#67BC9E"/>
<path d="M61 64H62V65H61V64Z" fill="#67BC9E"/>
<path d="M60 63H59V64H60V63Z" fill="#67BC9E"/>
<path d="M59 65H60V66H59V65Z" fill="#67BC9E"/>
<path d="M62 66H61V67H62V66Z" fill="#67BC9E"/>
<path d="M61 68H62V69H61V68Z" fill="#67BC9E"/>
<path d="M60 67H59V68H60V67Z" fill="#67BC9E"/>
<path d="M59 69H60V70H59V69Z" fill="#67BC9E"/>
<path d="M62 70H61V71H62V70Z" fill="#67BC9E"/>
<path d="M61 72H62V73H61V72Z" fill="#67BC9E"/>
<path d="M60 71H59V72H60V71Z" fill="#67BC9E"/>
<path d="M59 73H60V74H59V73Z" fill="#67BC9E"/>
<path d="M62 74H61V75H62V74Z" fill="#67BC9E"/>
<path d="M61 76H62V77H61V76Z" fill="#67BC9E"/>
<path d="M60 75H59V76H60V75Z" fill="#67BC9E"/>
<path d="M59 77H60V78H59V77Z" fill="#67BC9E"/>
<path d="M61 79H60V80H61V79Z" fill="#67BC9E"/>
<path d="M61 79H62V78H61V79Z" fill="#67BC9E"/>
<path d="M58 77H57V78H58V77Z" fill="#67BC9E"/>
<path d="M56 79H57V80H56V79Z" fill="#67BC9E"/>
<path d="M56 77H55V78H56V77Z" fill="#67BC9E"/>
<path d="M54 79H55V80H54V79Z" fill="#67BC9E"/>
<path d="M54 77H53V78H54V77Z" fill="#67BC9E"/>
<path d="M52 79H53V80H52V79Z" fill="#67BC9E"/>
<path d="M52 77H51V78H52V77Z" fill="#67BC9E"/>
<path d="M50 79H51V80H50V79Z" fill="#67BC9E"/>
<path d="M50 77H49V78H50V77Z" fill="#67BC9E"/>
<path d="M48 79H49V80H48V79Z" fill="#67BC9E"/>
<path d="M48 77H47V78H48V77Z" fill="#67BC9E"/>
<path d="M46 79H47V80H46V79Z" fill="#67BC9E"/>
<path d="M46 77H45V78H46V77Z" fill="#67BC9E"/>
<path d="M44 79H45V80H44V79Z" fill="#67BC9E"/>
<path d="M44 77H43V78H44V77Z" fill="#67BC9E"/>
<path d="M42 79H43V80H42V79Z" fill="#67BC9E"/>
<path d="M42 77H41V78H42V77Z" fill="#67BC9E"/>
<path d="M40 79H41V80H40V79Z" fill="#67BC9E"/>
<path d="M40 77H39V78H40V77Z" fill="#67BC9E"/>
<path d="M38 79H39V80H38V79Z" fill="#67BC9E"/>
<path d="M38 77H37V78H38V77Z" fill="#67BC9E"/>
<path d="M36 79H37V80H36V79Z" fill="#67BC9E"/>
<path d="M36 77H35V78H36V77Z" fill="#67BC9E"/>
<path d="M34 79H35V80H34V79Z" fill="#67BC9E"/>
<path d="M34 77H33V78H34V77Z" fill="#67BC9E"/>
<path d="M32 79H33V80H32V79Z" fill="#67BC9E"/>
<path d="M32 77H31V78H32V77Z" fill="#67BC9E"/>
<path d="M30 79H31V80H30V79Z" fill="#67BC9E"/>
<path d="M30 77H29V78H30V77Z" fill="#67BC9E"/>
<path d="M28 79H29V80H28V79Z" fill="#67BC9E"/>
<path d="M28 77H27V78H28V77Z" fill="#67BC9E"/>
<path d="M26 79H27V80H26V79Z" fill="#67BC9E"/>
<path d="M26 77H25V78H26V77Z" fill="#67BC9E"/>
<path d="M24 79H25V80H24V79Z" fill="#67BC9E"/>
<path d="M24 77H23V78H24V77Z" fill="#67BC9E"/>
<path d="M22 79H23V80H22V79Z" fill="#67BC9E"/>
<path d="M22 77H21V78H22V77Z" fill="#67BC9E"/>
<path d="M20 79H21V80H20V79Z" fill="#67BC9E"/>
<path d="M20 77H19V78H20V77Z" fill="#67BC9E"/>
<path d="M18 79H19V80H18V79Z" fill="#67BC9E"/>
<path d="M18 77H17V78H18V77Z" fill="#67BC9E"/>
<path d="M58 79H59V80H58V79Z" fill="#67BC9E"/>
<path fill-rule="evenodd" clip-rule="evenodd" d="M0 76V0H58V14H72V90H14V76H0ZM56 74H2V2H56V74ZM16 76V88H70V16H58V76H16Z" fill="#67BC9E"/>
</svg>
