<svg width="16" height="16" viewBox="0 0 16 16" fill="none" xmlns="http://www.w3.org/2000/svg">
<path d="M15.84 15.0933L10.8267 10.08C11.7156 9.01333 12.2667 7.64444 12.2667 6.13333C12.2667 2.75556 9.51111 0 6.13333 0C2.75556 0 0 2.75556 0 6.13333C0 9.51111 2.75556 12.2667 6.13333 12.2667C7.62667 12.2667 9.01333 11.7333 10.08 10.8267L15.0933 15.84C15.3067 16.0533 15.6444 16.0533 15.84 15.84C16.0533 15.6267 16.0533 15.3067 15.84 15.0933ZM6.13333 11.2C3.34222 11.2 1.06667 8.92444 1.06667 6.13333C1.06667 3.34222 3.34222 1.06667 6.13333 1.06667C8.92444 1.06667 11.2 3.34222 11.2 6.13333C11.2 8.92444 8.92444 11.2 6.13333 11.2Z" fill="#F39035"/>
</svg>
