<svg width="72" height="301" viewBox="0 0 72 301" fill="none" xmlns="http://www.w3.org/2000/svg">
<g clip-path="url(#clip0)">
<circle cx="1" cy="1" r="1" fill="#67BC9E"/>
<circle cx="9" cy="1" r="1" fill="#67BC9E"/>
<circle cx="17" cy="1" r="1" fill="#67BC9E"/>
<circle cx="25" cy="1" r="1" fill="#67BC9E"/>
<circle cx="33" cy="1" r="1" fill="#67BC9E"/>
<circle cx="41" cy="1" r="1" fill="#67BC9E"/>
<circle cx="49" cy="1" r="1" fill="#67BC9E"/>
<circle cx="57" cy="1" r="1" fill="#67BC9E"/>
<circle cx="65" cy="1" r="1" fill="#67BC9E"/>
<circle cx="1" cy="9" r="1" fill="#67BC9E"/>
<circle cx="9" cy="9" r="1" fill="#67BC9E"/>
<circle cx="17" cy="9" r="1" fill="#67BC9E"/>
<circle cx="25" cy="9" r="1" fill="#67BC9E"/>
<circle cx="33" cy="9" r="1" fill="#67BC9E"/>
<circle cx="41" cy="9" r="1" fill="#67BC9E"/>
<circle cx="49" cy="9" r="1" fill="#67BC9E"/>
<circle cx="57" cy="9" r="1" fill="#67BC9E"/>
<circle cx="65" cy="9" r="1" fill="#67BC9E"/>
<circle cx="1" cy="17" r="1" fill="#67BC9E"/>
<circle cx="9" cy="17" r="1" fill="#67BC9E"/>
<circle cx="17" cy="17" r="1" fill="#67BC9E"/>
<circle cx="25" cy="17" r="1" fill="#67BC9E"/>
<circle cx="33" cy="17" r="1" fill="#67BC9E"/>
<circle cx="41" cy="17" r="1" fill="#67BC9E"/>
<circle cx="49" cy="17" r="1" fill="#67BC9E"/>
<circle cx="57" cy="17" r="1" fill="#67BC9E"/>
<circle cx="65" cy="17" r="1" fill="#67BC9E"/>
<circle cx="1" cy="25" r="1" fill="#67BC9E"/>
<circle cx="9" cy="25" r="1" fill="#67BC9E"/>
<circle cx="17" cy="25" r="1" fill="#67BC9E"/>
<circle cx="25" cy="25" r="1" fill="#67BC9E"/>
<circle cx="33" cy="25" r="1" fill="#67BC9E"/>
<circle cx="41" cy="25" r="1" fill="#67BC9E"/>
<circle cx="49" cy="25" r="1" fill="#67BC9E"/>
<circle cx="57" cy="25" r="1" fill="#67BC9E"/>
<circle cx="65" cy="25" r="1" fill="#67BC9E"/>
<circle cx="1" cy="33" r="1" fill="#67BC9E"/>
<circle cx="9" cy="33" r="1" fill="#67BC9E"/>
<circle cx="17" cy="33" r="1" fill="#67BC9E"/>
<circle cx="25" cy="33" r="1" fill="#67BC9E"/>
<circle cx="33" cy="33" r="1" fill="#67BC9E"/>
<circle cx="41" cy="33" r="1" fill="#67BC9E"/>
<circle cx="49" cy="33" r="1" fill="#67BC9E"/>
<circle cx="57" cy="33" r="1" fill="#67BC9E"/>
<circle cx="65" cy="33" r="1" fill="#67BC9E"/>
<circle cx="1" cy="41" r="1" fill="#67BC9E"/>
<circle cx="9" cy="41" r="1" fill="#67BC9E"/>
<circle cx="17" cy="41" r="1" fill="#67BC9E"/>
<circle cx="25" cy="41" r="1" fill="#67BC9E"/>
<circle cx="33" cy="41" r="1" fill="#67BC9E"/>
<circle cx="41" cy="41" r="1" fill="#67BC9E"/>
<circle cx="49" cy="41" r="1" fill="#67BC9E"/>
<circle cx="57" cy="41" r="1" fill="#67BC9E"/>
<circle cx="65" cy="41" r="1" fill="#67BC9E"/>
<circle cx="1" cy="49" r="1" fill="#67BC9E"/>
<circle cx="9" cy="49" r="1" fill="#67BC9E"/>
<circle cx="17" cy="49" r="1" fill="#67BC9E"/>
<circle cx="25" cy="49" r="1" fill="#67BC9E"/>
<circle cx="33" cy="49" r="1" fill="#67BC9E"/>
<circle cx="41" cy="49" r="1" fill="#67BC9E"/>
<circle cx="49" cy="49" r="1" fill="#67BC9E"/>
<circle cx="57" cy="49" r="1" fill="#67BC9E"/>
<circle cx="65" cy="49" r="1" fill="#67BC9E"/>
<circle cx="1" cy="57" r="1" fill="#67BC9E"/>
<circle cx="9" cy="57" r="1" fill="#67BC9E"/>
<circle cx="17" cy="57" r="1" fill="#67BC9E"/>
<circle cx="25" cy="57" r="1" fill="#67BC9E"/>
<circle cx="33" cy="57" r="1" fill="#67BC9E"/>
<circle cx="41" cy="57" r="1" fill="#67BC9E"/>
<circle cx="49" cy="57" r="1" fill="#67BC9E"/>
<circle cx="57" cy="57" r="1" fill="#67BC9E"/>
<circle cx="65" cy="57" r="1" fill="#67BC9E"/>
<circle cx="1" cy="65" r="1" fill="#67BC9E"/>
<circle cx="9" cy="65" r="1" fill="#67BC9E"/>
<circle cx="17" cy="65" r="1" fill="#67BC9E"/>
<circle cx="25" cy="65" r="1" fill="#67BC9E"/>
<circle cx="33" cy="65" r="1" fill="#67BC9E"/>
<circle cx="41" cy="65" r="1" fill="#67BC9E"/>
<circle cx="49" cy="65" r="1" fill="#67BC9E"/>
<circle cx="57" cy="65" r="1" fill="#67BC9E"/>
<circle cx="65" cy="65" r="1" fill="#67BC9E"/>
<circle cx="1" cy="73" r="1" fill="#67BC9E"/>
<circle cx="9" cy="73" r="1" fill="#67BC9E"/>
<circle cx="17" cy="73" r="1" fill="#67BC9E"/>
<circle cx="25" cy="73" r="1" fill="#67BC9E"/>
<circle cx="33" cy="73" r="1" fill="#67BC9E"/>
<circle cx="41" cy="73" r="1" fill="#67BC9E"/>
<circle cx="49" cy="73" r="1" fill="#67BC9E"/>
<circle cx="57" cy="73" r="1" fill="#67BC9E"/>
<circle cx="65" cy="73" r="1" fill="#67BC9E"/>
<circle cx="1" cy="81" r="1" fill="#67BC9E"/>
<circle cx="9" cy="81" r="1" fill="#67BC9E"/>
<circle cx="17" cy="81" r="1" fill="#67BC9E"/>
<circle cx="25" cy="81" r="1" fill="#67BC9E"/>
<circle cx="33" cy="81" r="1" fill="#67BC9E"/>
<circle cx="41" cy="81" r="1" fill="#67BC9E"/>
<circle cx="49" cy="81" r="1" fill="#67BC9E"/>
<circle cx="57" cy="81" r="1" fill="#67BC9E"/>
<circle cx="65" cy="81" r="1" fill="#67BC9E"/>
<circle cx="1" cy="89" r="1" fill="#67BC9E"/>
<circle cx="9" cy="89" r="1" fill="#67BC9E"/>
<circle cx="17" cy="89" r="1" fill="#67BC9E"/>
<circle cx="25" cy="89" r="1" fill="#67BC9E"/>
<circle cx="33" cy="89" r="1" fill="#67BC9E"/>
<circle cx="41" cy="89" r="1" fill="#67BC9E"/>
<circle cx="49" cy="89" r="1" fill="#67BC9E"/>
<circle cx="57" cy="89" r="1" fill="#67BC9E"/>
<circle cx="65" cy="89" r="1" fill="#67BC9E"/>
<circle cx="1" cy="97" r="1" fill="#67BC9E"/>
<circle cx="9" cy="97" r="1" fill="#67BC9E"/>
<circle cx="17" cy="97" r="1" fill="#67BC9E"/>
<circle cx="25" cy="97" r="1" fill="#67BC9E"/>
<circle cx="33" cy="97" r="1" fill="#67BC9E"/>
<circle cx="41" cy="97" r="1" fill="#67BC9E"/>
<circle cx="49" cy="97" r="1" fill="#67BC9E"/>
<circle cx="57" cy="97" r="1" fill="#67BC9E"/>
<circle cx="65" cy="97" r="1" fill="#67BC9E"/>
<circle cx="1" cy="105" r="1" fill="#67BC9E"/>
<circle cx="9" cy="105" r="1" fill="#67BC9E"/>
<circle cx="17" cy="105" r="1" fill="#67BC9E"/>
<circle cx="25" cy="105" r="1" fill="#67BC9E"/>
<circle cx="33" cy="105" r="1" fill="#67BC9E"/>
<circle cx="41" cy="105" r="1" fill="#67BC9E"/>
<circle cx="49" cy="105" r="1" fill="#67BC9E"/>
<circle cx="57" cy="105" r="1" fill="#67BC9E"/>
<circle cx="65" cy="105" r="1" fill="#67BC9E"/>
<circle cx="1" cy="113" r="1" fill="#67BC9E"/>
<circle cx="9" cy="113" r="1" fill="#67BC9E"/>
<circle cx="17" cy="113" r="1" fill="#67BC9E"/>
<circle cx="25" cy="113" r="1" fill="#67BC9E"/>
<circle cx="33" cy="113" r="1" fill="#67BC9E"/>
<circle cx="41" cy="113" r="1" fill="#67BC9E"/>
<circle cx="49" cy="113" r="1" fill="#67BC9E"/>
<circle cx="57" cy="113" r="1" fill="#67BC9E"/>
<circle cx="65" cy="113" r="1" fill="#67BC9E"/>
<circle cx="1" cy="121" r="1" fill="#67BC9E"/>
<circle cx="9" cy="121" r="1" fill="#67BC9E"/>
<circle cx="17" cy="121" r="1" fill="#67BC9E"/>
<circle cx="25" cy="121" r="1" fill="#67BC9E"/>
<circle cx="33" cy="121" r="1" fill="#67BC9E"/>
<circle cx="41" cy="121" r="1" fill="#67BC9E"/>
<circle cx="49" cy="121" r="1" fill="#67BC9E"/>
<circle cx="57" cy="121" r="1" fill="#67BC9E"/>
<circle cx="65" cy="121" r="1" fill="#67BC9E"/>
<circle cx="1" cy="129" r="1" fill="#67BC9E"/>
<circle cx="9" cy="129" r="1" fill="#67BC9E"/>
<circle cx="17" cy="129" r="1" fill="#67BC9E"/>
<circle cx="25" cy="129" r="1" fill="#67BC9E"/>
<circle cx="33" cy="129" r="1" fill="#67BC9E"/>
<circle cx="41" cy="129" r="1" fill="#67BC9E"/>
<circle cx="49" cy="129" r="1" fill="#67BC9E"/>
<circle cx="57" cy="129" r="1" fill="#67BC9E"/>
<circle cx="65" cy="129" r="1" fill="#67BC9E"/>
<circle cx="1" cy="137" r="1" fill="#67BC9E"/>
<circle cx="9" cy="137" r="1" fill="#67BC9E"/>
<circle cx="17" cy="137" r="1" fill="#67BC9E"/>
<circle cx="25" cy="137" r="1" fill="#67BC9E"/>
<circle cx="33" cy="137" r="1" fill="#67BC9E"/>
<circle cx="41" cy="137" r="1" fill="#67BC9E"/>
<circle cx="49" cy="137" r="1" fill="#67BC9E"/>
<circle cx="57" cy="137" r="1" fill="#67BC9E"/>
<circle cx="65" cy="137" r="1" fill="#67BC9E"/>
<circle cx="1" cy="145" r="1" fill="#67BC9E"/>
<circle cx="9" cy="145" r="1" fill="#67BC9E"/>
<circle cx="17" cy="145" r="1" fill="#67BC9E"/>
<circle cx="25" cy="145" r="1" fill="#67BC9E"/>
<circle cx="33" cy="145" r="1" fill="#67BC9E"/>
<circle cx="41" cy="145" r="1" fill="#67BC9E"/>
<circle cx="49" cy="145" r="1" fill="#67BC9E"/>
<circle cx="57" cy="145" r="1" fill="#67BC9E"/>
<circle cx="65" cy="145" r="1" fill="#67BC9E"/>
<circle cx="1" cy="153" r="1" fill="#67BC9E"/>
<circle cx="9" cy="153" r="1" fill="#67BC9E"/>
<circle cx="17" cy="153" r="1" fill="#67BC9E"/>
<circle cx="25" cy="153" r="1" fill="#67BC9E"/>
<circle cx="33" cy="153" r="1" fill="#67BC9E"/>
<circle cx="41" cy="153" r="1" fill="#67BC9E"/>
<circle cx="49" cy="153" r="1" fill="#67BC9E"/>
<circle cx="57" cy="153" r="1" fill="#67BC9E"/>
<circle cx="65" cy="153" r="1" fill="#67BC9E"/>
<circle cx="1" cy="161" r="1" fill="#67BC9E"/>
<circle cx="9" cy="161" r="1" fill="#67BC9E"/>
<circle cx="17" cy="161" r="1" fill="#67BC9E"/>
<circle cx="25" cy="161" r="1" fill="#67BC9E"/>
<circle cx="33" cy="161" r="1" fill="#67BC9E"/>
<circle cx="41" cy="161" r="1" fill="#67BC9E"/>
<circle cx="49" cy="161" r="1" fill="#67BC9E"/>
<circle cx="57" cy="161" r="1" fill="#67BC9E"/>
<circle cx="65" cy="161" r="1" fill="#67BC9E"/>
<circle cx="1" cy="169" r="1" fill="#67BC9E"/>
<circle cx="9" cy="169" r="1" fill="#67BC9E"/>
<circle cx="17" cy="169" r="1" fill="#67BC9E"/>
<circle cx="25" cy="169" r="1" fill="#67BC9E"/>
<circle cx="33" cy="169" r="1" fill="#67BC9E"/>
<circle cx="41" cy="169" r="1" fill="#67BC9E"/>
<circle cx="49" cy="169" r="1" fill="#67BC9E"/>
<circle cx="57" cy="169" r="1" fill="#67BC9E"/>
<circle cx="65" cy="169" r="1" fill="#67BC9E"/>
<circle cx="1" cy="177" r="1" fill="#67BC9E"/>
<circle cx="9" cy="177" r="1" fill="#67BC9E"/>
<circle cx="17" cy="177" r="1" fill="#67BC9E"/>
<circle cx="25" cy="177" r="1" fill="#67BC9E"/>
<circle cx="33" cy="177" r="1" fill="#67BC9E"/>
<circle cx="41" cy="177" r="1" fill="#67BC9E"/>
<circle cx="49" cy="177" r="1" fill="#67BC9E"/>
<circle cx="57" cy="177" r="1" fill="#67BC9E"/>
<circle cx="65" cy="177" r="1" fill="#67BC9E"/>
<circle cx="1" cy="185" r="1" fill="#67BC9E"/>
<circle cx="9" cy="185" r="1" fill="#67BC9E"/>
<circle cx="17" cy="185" r="1" fill="#67BC9E"/>
<circle cx="25" cy="185" r="1" fill="#67BC9E"/>
<circle cx="33" cy="185" r="1" fill="#67BC9E"/>
<circle cx="41" cy="185" r="1" fill="#67BC9E"/>
<circle cx="49" cy="185" r="1" fill="#67BC9E"/>
<circle cx="57" cy="185" r="1" fill="#67BC9E"/>
<circle cx="65" cy="185" r="1" fill="#67BC9E"/>
<circle cx="1" cy="193" r="1" fill="#67BC9E"/>
<circle cx="9" cy="193" r="1" fill="#67BC9E"/>
<circle cx="17" cy="193" r="1" fill="#67BC9E"/>
<circle cx="25" cy="193" r="1" fill="#67BC9E"/>
<circle cx="33" cy="193" r="1" fill="#67BC9E"/>
<circle cx="41" cy="193" r="1" fill="#67BC9E"/>
<circle cx="49" cy="193" r="1" fill="#67BC9E"/>
<circle cx="57" cy="193" r="1" fill="#67BC9E"/>
<circle cx="65" cy="193" r="1" fill="#67BC9E"/>
<circle cx="1" cy="201" r="1" fill="#67BC9E"/>
<circle cx="9" cy="201" r="1" fill="#67BC9E"/>
<circle cx="17" cy="201" r="1" fill="#67BC9E"/>
<circle cx="25" cy="201" r="1" fill="#67BC9E"/>
<circle cx="33" cy="201" r="1" fill="#67BC9E"/>
<circle cx="41" cy="201" r="1" fill="#67BC9E"/>
<circle cx="49" cy="201" r="1" fill="#67BC9E"/>
<circle cx="57" cy="201" r="1" fill="#67BC9E"/>
<circle cx="65" cy="201" r="1" fill="#67BC9E"/>
<circle cx="1" cy="209" r="1" fill="#67BC9E"/>
<circle cx="9" cy="209" r="1" fill="#67BC9E"/>
<circle cx="17" cy="209" r="1" fill="#67BC9E"/>
<circle cx="25" cy="209" r="1" fill="#67BC9E"/>
<circle cx="33" cy="209" r="1" fill="#67BC9E"/>
<circle cx="41" cy="209" r="1" fill="#67BC9E"/>
<circle cx="49" cy="209" r="1" fill="#67BC9E"/>
<circle cx="57" cy="209" r="1" fill="#67BC9E"/>
<circle cx="65" cy="209" r="1" fill="#67BC9E"/>
<circle cx="1" cy="193" r="1" fill="#67BC9E"/>
<circle cx="9" cy="193" r="1" fill="#67BC9E"/>
<circle cx="17" cy="193" r="1" fill="#67BC9E"/>
<circle cx="25" cy="193" r="1" fill="#67BC9E"/>
<circle cx="33" cy="193" r="1" fill="#67BC9E"/>
<circle cx="41" cy="193" r="1" fill="#67BC9E"/>
<circle cx="49" cy="193" r="1" fill="#67BC9E"/>
<circle cx="57" cy="193" r="1" fill="#67BC9E"/>
<circle cx="65" cy="193" r="1" fill="#67BC9E"/>
<circle cx="1" cy="201" r="1" fill="#67BC9E"/>
<circle cx="9" cy="201" r="1" fill="#67BC9E"/>
<circle cx="17" cy="201" r="1" fill="#67BC9E"/>
<circle cx="25" cy="201" r="1" fill="#67BC9E"/>
<circle cx="33" cy="201" r="1" fill="#67BC9E"/>
<circle cx="41" cy="201" r="1" fill="#67BC9E"/>
<circle cx="49" cy="201" r="1" fill="#67BC9E"/>
<circle cx="57" cy="201" r="1" fill="#67BC9E"/>
<circle cx="65" cy="201" r="1" fill="#67BC9E"/>
<circle cx="1" cy="209" r="1" fill="#67BC9E"/>
<circle cx="9" cy="209" r="1" fill="#67BC9E"/>
<circle cx="17" cy="209" r="1" fill="#67BC9E"/>
<circle cx="25" cy="209" r="1" fill="#67BC9E"/>
<circle cx="33" cy="209" r="1" fill="#67BC9E"/>
<circle cx="41" cy="209" r="1" fill="#67BC9E"/>
<circle cx="49" cy="209" r="1" fill="#67BC9E"/>
<circle cx="57" cy="209" r="1" fill="#67BC9E"/>
<circle cx="65" cy="209" r="1" fill="#67BC9E"/>
<circle cx="1" cy="217" r="1" fill="#67BC9E"/>
<circle cx="9" cy="217" r="1" fill="#67BC9E"/>
<circle cx="17" cy="217" r="1" fill="#67BC9E"/>
<circle cx="25" cy="217" r="1" fill="#67BC9E"/>
<circle cx="33" cy="217" r="1" fill="#67BC9E"/>
<circle cx="41" cy="217" r="1" fill="#67BC9E"/>
<circle cx="49" cy="217" r="1" fill="#67BC9E"/>
<circle cx="57" cy="217" r="1" fill="#67BC9E"/>
<circle cx="65" cy="217" r="1" fill="#67BC9E"/>
<circle cx="1" cy="225" r="1" fill="#67BC9E"/>
<circle cx="9" cy="225" r="1" fill="#67BC9E"/>
<circle cx="17" cy="225" r="1" fill="#67BC9E"/>
<circle cx="25" cy="225" r="1" fill="#67BC9E"/>
<circle cx="33" cy="225" r="1" fill="#67BC9E"/>
<circle cx="41" cy="225" r="1" fill="#67BC9E"/>
<circle cx="49" cy="225" r="1" fill="#67BC9E"/>
<circle cx="57" cy="225" r="1" fill="#67BC9E"/>
<circle cx="65" cy="225" r="1" fill="#67BC9E"/>
<circle cx="1" cy="233" r="1" fill="#67BC9E"/>
<circle cx="9" cy="233" r="1" fill="#67BC9E"/>
<circle cx="17" cy="233" r="1" fill="#67BC9E"/>
<circle cx="25" cy="233" r="1" fill="#67BC9E"/>
<circle cx="33" cy="233" r="1" fill="#67BC9E"/>
<circle cx="41" cy="233" r="1" fill="#67BC9E"/>
<circle cx="49" cy="233" r="1" fill="#67BC9E"/>
<circle cx="57" cy="233" r="1" fill="#67BC9E"/>
<circle cx="65" cy="233" r="1" fill="#67BC9E"/>
<circle cx="1" cy="241" r="1" fill="#67BC9E"/>
<circle cx="9" cy="241" r="1" fill="#67BC9E"/>
<circle cx="17" cy="241" r="1" fill="#67BC9E"/>
<circle cx="25" cy="241" r="1" fill="#67BC9E"/>
<circle cx="33" cy="241" r="1" fill="#67BC9E"/>
<circle cx="41" cy="241" r="1" fill="#67BC9E"/>
<circle cx="49" cy="241" r="1" fill="#67BC9E"/>
<circle cx="57" cy="241" r="1" fill="#67BC9E"/>
<circle cx="65" cy="241" r="1" fill="#67BC9E"/>
<circle cx="1" cy="249" r="1" fill="#67BC9E"/>
<circle cx="9" cy="249" r="1" fill="#67BC9E"/>
<circle cx="17" cy="249" r="1" fill="#67BC9E"/>
<circle cx="25" cy="249" r="1" fill="#67BC9E"/>
<circle cx="33" cy="249" r="1" fill="#67BC9E"/>
<circle cx="41" cy="249" r="1" fill="#67BC9E"/>
<circle cx="49" cy="249" r="1" fill="#67BC9E"/>
<circle cx="57" cy="249" r="1" fill="#67BC9E"/>
<circle cx="65" cy="249" r="1" fill="#67BC9E"/>
<circle cx="1" cy="257" r="1" fill="#67BC9E"/>
<circle cx="9" cy="257" r="1" fill="#67BC9E"/>
<circle cx="17" cy="257" r="1" fill="#67BC9E"/>
<circle cx="25" cy="257" r="1" fill="#67BC9E"/>
<circle cx="33" cy="257" r="1" fill="#67BC9E"/>
<circle cx="41" cy="257" r="1" fill="#67BC9E"/>
<circle cx="49" cy="257" r="1" fill="#67BC9E"/>
<circle cx="57" cy="257" r="1" fill="#67BC9E"/>
<circle cx="65" cy="257" r="1" fill="#67BC9E"/>
<circle cx="1" cy="265" r="1" fill="#67BC9E"/>
<circle cx="9" cy="265" r="1" fill="#67BC9E"/>
<circle cx="17" cy="265" r="1" fill="#67BC9E"/>
<circle cx="25" cy="265" r="1" fill="#67BC9E"/>
<circle cx="33" cy="265" r="1" fill="#67BC9E"/>
<circle cx="41" cy="265" r="1" fill="#67BC9E"/>
<circle cx="49" cy="265" r="1" fill="#67BC9E"/>
<circle cx="57" cy="265" r="1" fill="#67BC9E"/>
<circle cx="65" cy="265" r="1" fill="#67BC9E"/>
<circle cx="1" cy="273" r="1" fill="#67BC9E"/>
<circle cx="9" cy="273" r="1" fill="#67BC9E"/>
<circle cx="17" cy="273" r="1" fill="#67BC9E"/>
<circle cx="25" cy="273" r="1" fill="#67BC9E"/>
<circle cx="33" cy="273" r="1" fill="#67BC9E"/>
<circle cx="41" cy="273" r="1" fill="#67BC9E"/>
<circle cx="49" cy="273" r="1" fill="#67BC9E"/>
<circle cx="57" cy="273" r="1" fill="#67BC9E"/>
<circle cx="65" cy="273" r="1" fill="#67BC9E"/>
<circle cx="1" cy="281" r="1" fill="#67BC9E"/>
<circle cx="9" cy="281" r="1" fill="#67BC9E"/>
<circle cx="17" cy="281" r="1" fill="#67BC9E"/>
<circle cx="25" cy="281" r="1" fill="#67BC9E"/>
<circle cx="33" cy="281" r="1" fill="#67BC9E"/>
<circle cx="41" cy="281" r="1" fill="#67BC9E"/>
<circle cx="49" cy="281" r="1" fill="#67BC9E"/>
<circle cx="57" cy="281" r="1" fill="#67BC9E"/>
<circle cx="65" cy="281" r="1" fill="#67BC9E"/>
<circle cx="1" cy="289" r="1" fill="#67BC9E"/>
<circle cx="9" cy="289" r="1" fill="#67BC9E"/>
<circle cx="17" cy="289" r="1" fill="#67BC9E"/>
<circle cx="25" cy="289" r="1" fill="#67BC9E"/>
<circle cx="33" cy="289" r="1" fill="#67BC9E"/>
<circle cx="41" cy="289" r="1" fill="#67BC9E"/>
<circle cx="49" cy="289" r="1" fill="#67BC9E"/>
<circle cx="57" cy="289" r="1" fill="#67BC9E"/>
<circle cx="65" cy="289" r="1" fill="#67BC9E"/>
<circle cx="1" cy="297" r="1" fill="#67BC9E"/>
<circle cx="9" cy="297" r="1" fill="#67BC9E"/>
<circle cx="17" cy="297" r="1" fill="#67BC9E"/>
<circle cx="25" cy="297" r="1" fill="#67BC9E"/>
<circle cx="33" cy="297" r="1" fill="#67BC9E"/>
<circle cx="41" cy="297" r="1" fill="#67BC9E"/>
<circle cx="49" cy="297" r="1" fill="#67BC9E"/>
<circle cx="57" cy="297" r="1" fill="#67BC9E"/>
<circle cx="65" cy="297" r="1" fill="#67BC9E"/>
</g>
<defs>
<clipPath id="clip0">
<rect width="72" height="301" fill="white"/>
</clipPath>
</defs>
</svg>
