<svg width="51" height="30" viewBox="0 0 51 30" fill="none" xmlns="http://www.w3.org/2000/svg">
<rect width="51" height="30" rx="3" fill="white"/>
<path d="M22.4126 10.5356L20.8371 19.4828H23.3568L24.9336 10.5356H22.4126Z" fill="#67BC9E"/>
<path d="M18.7244 10.5458L16.2565 16.6476L15.9934 15.7262C15.5067 14.6162 14.125 13.0219 12.5029 12.0172L14.7595 19.4786L17.4256 19.4742L21.3938 10.5439L18.7244 10.5458Z" fill="#67BC9E"/>
<path d="M15.0368 11.1864C14.8904 10.6414 14.4659 10.4789 13.939 10.4595H10.0324L10 10.6376C13.0401 11.3513 15.0517 13.071 15.8865 15.1388L15.0368 11.1864Z" fill="#67BC9E"/>
<path d="M30.0404 12.2513C30.8648 12.2387 31.4623 12.4131 31.9263 12.5937L32.1538 12.6972L32.4947 10.758C31.9957 10.5767 31.2134 10.3823 30.2374 10.3823C27.7475 10.3823 25.9925 11.5959 25.9789 13.335C25.9627 14.6201 27.2291 15.3376 28.1856 15.7659C29.1675 16.205 29.4967 16.4841 29.4922 16.876C29.4844 17.475 28.7093 17.7497 27.9854 17.7497C26.9763 17.7497 26.4404 17.6148 25.6128 17.2812L25.2881 17.1382L24.9336 19.1407C25.5233 19.391 26.6115 19.6061 27.7411 19.6174C30.3897 19.6174 32.111 18.4182 32.1292 16.5599C32.1402 15.5433 31.4681 14.7675 30.0119 14.1309C29.1305 13.7157 28.5913 13.4398 28.5965 13.0208C28.5965 12.6489 29.0541 12.2513 30.0404 12.2513Z" fill="#67BC9E"/>
<path d="M38.9612 10.5459H37.0143C36.4097 10.5459 35.9599 10.7052 35.6942 11.2885L31.9529 19.4881H34.599C34.599 19.4881 35.0306 18.3855 35.1284 18.144C35.4181 18.144 37.989 18.1478 38.3552 18.1478C38.4304 18.4601 38.6624 19.4881 38.6624 19.4881H41L38.9612 10.5459ZM35.8536 16.3127C36.061 15.7991 36.8575 13.8122 36.8575 13.8122C36.8439 13.8367 37.0629 13.2948 37.1932 12.958L37.363 13.7294C37.363 13.7294 37.8458 15.8655 37.9469 16.3127H35.8536Z" fill="#67BC9E"/>
</svg>
