<svg width="42" height="56" viewBox="0 0 42 56" fill="none" xmlns="http://www.w3.org/2000/svg">
<path d="M40.8947 13.2632C34.1913 13.2632 28.7368 7.80868 28.7368 1.10526C28.7368 0.495158 28.2428 0 27.6316 0H14.3684C13.7583 0 13.2632 0.495158 13.2632 1.10526C13.2632 7.80868 7.80868 13.2632 1.10526 13.2632C0.495158 13.2632 0 13.7583 0 14.3684V27.6316C0 40.2603 19.5234 54.4574 20.3545 55.0554C20.5468 55.1946 20.7734 55.2632 21 55.2632C21.2266 55.2632 21.4532 55.1946 21.6455 55.0554C22.4766 54.4574 42 40.2603 42 27.6316V14.3684C42 13.7583 41.5059 13.2632 40.8947 13.2632ZM39.7895 27.6316C39.7895 37.9249 24.3733 50.2143 21 52.7785C17.6256 50.2143 2.21053 37.9315 2.21053 27.6316V15.4317C9.25437 14.8934 14.8934 9.25437 15.4317 2.21053H26.5683C27.1066 9.25437 32.7456 14.8934 39.7895 15.4317V27.6316Z" fill="#F39035"/>
<mask id="path-2-outside-1" maskUnits="userSpaceOnUse" x="6.8125" y="12.9062" width="27" height="29" fill="black">
<rect fill="white" x="6.8125" y="12.9062" width="27" height="29"/>
<path d="M9.67439 28.1593C10.9685 30.6968 11.95 32.9964 12.7384 34.8456C14.4 38.742 15.4028 41.0938 17.3281 41.0938C19.3704 41.0938 19.5938 39.4974 19.5938 36.1094C19.5938 31.9189 20.0043 31.5781 20.5 31.5781C20.9957 31.5781 21.4062 31.9189 21.4062 36.1094C21.4062 39.4974 21.6296 41.0938 23.6719 41.0938C25.5972 41.0938 26.6 38.742 28.2616 34.8456C29.05 32.9964 30.0315 30.6954 31.3256 28.1593L31.4774 27.862C32.2812 26.3001 33.1875 24.5293 33.1875 22.5156C33.1875 17.688 30.0029 13.9062 25.9375 13.9062C24.3704 13.9241 22.8481 14.4321 21.5843 15.359C21.2612 15.5677 20.8847 15.6788 20.5 15.6788C20.1153 15.6788 19.7388 15.5677 19.4157 15.359C18.1519 14.4321 16.6296 13.9241 15.0625 13.9062C10.9971 13.9062 7.8125 17.688 7.8125 22.5156C7.8125 24.5293 8.72102 26.3001 9.52259 27.8625L9.67439 28.1593ZM15.0625 14.8125C16.4312 14.8273 17.7611 15.27 18.8656 16.0785C20.2035 16.9612 21.7796 17.413 23.3819 17.3731C24.5136 17.3666 25.6368 17.1767 26.7078 16.8108L26.421 15.9498C24.9274 16.4801 23.3195 16.6025 21.7629 16.3046C21.8937 16.2416 22.0181 16.1657 22.134 16.0781C23.2387 15.2696 24.5686 14.8271 25.9375 14.8125C29.495 14.8125 32.2812 18.196 32.2812 22.5156C32.2812 24.3105 31.4257 25.9775 30.6713 27.4483L30.5181 27.747C29.21 30.3116 28.2222 32.6285 27.4283 34.4899C25.9651 37.9219 24.9986 40.1875 23.6719 40.1875C22.6854 40.1875 22.3125 39.8359 22.3125 36.1094C22.3125 32.275 22.0606 30.6719 20.5 30.6719C18.9394 30.6719 18.6875 32.275 18.6875 36.1094C18.6875 39.8359 18.3146 40.1875 17.3281 40.1875C16.0014 40.1875 15.0349 37.9219 13.5717 34.4899C12.7778 32.6285 11.79 30.3116 10.4819 27.747L10.3287 27.4483C9.57425 25.9775 8.71875 24.3105 8.71875 22.5156C8.71875 18.196 11.505 14.8125 15.0625 14.8125Z"/>
</mask>
<path d="M9.67439 28.1593C10.9685 30.6968 11.95 32.9964 12.7384 34.8456C14.4 38.742 15.4028 41.0938 17.3281 41.0938C19.3704 41.0938 19.5938 39.4974 19.5938 36.1094C19.5938 31.9189 20.0043 31.5781 20.5 31.5781C20.9957 31.5781 21.4062 31.9189 21.4062 36.1094C21.4062 39.4974 21.6296 41.0938 23.6719 41.0938C25.5972 41.0938 26.6 38.742 28.2616 34.8456C29.05 32.9964 30.0315 30.6954 31.3256 28.1593L31.4774 27.862C32.2812 26.3001 33.1875 24.5293 33.1875 22.5156C33.1875 17.688 30.0029 13.9062 25.9375 13.9062C24.3704 13.9241 22.8481 14.4321 21.5843 15.359C21.2612 15.5677 20.8847 15.6788 20.5 15.6788C20.1153 15.6788 19.7388 15.5677 19.4157 15.359C18.1519 14.4321 16.6296 13.9241 15.0625 13.9062C10.9971 13.9062 7.8125 17.688 7.8125 22.5156C7.8125 24.5293 8.72102 26.3001 9.52259 27.8625L9.67439 28.1593ZM15.0625 14.8125C16.4312 14.8273 17.7611 15.27 18.8656 16.0785C20.2035 16.9612 21.7796 17.413 23.3819 17.3731C24.5136 17.3666 25.6368 17.1767 26.7078 16.8108L26.421 15.9498C24.9274 16.4801 23.3195 16.6025 21.7629 16.3046C21.8937 16.2416 22.0181 16.1657 22.134 16.0781C23.2387 15.2696 24.5686 14.8271 25.9375 14.8125C29.495 14.8125 32.2812 18.196 32.2812 22.5156C32.2812 24.3105 31.4257 25.9775 30.6713 27.4483L30.5181 27.747C29.21 30.3116 28.2222 32.6285 27.4283 34.4899C25.9651 37.9219 24.9986 40.1875 23.6719 40.1875C22.6854 40.1875 22.3125 39.8359 22.3125 36.1094C22.3125 32.275 22.0606 30.6719 20.5 30.6719C18.9394 30.6719 18.6875 32.275 18.6875 36.1094C18.6875 39.8359 18.3146 40.1875 17.3281 40.1875C16.0014 40.1875 15.0349 37.9219 13.5717 34.4899C12.7778 32.6285 11.79 30.3116 10.4819 27.747L10.3287 27.4483C9.57425 25.9775 8.71875 24.3105 8.71875 22.5156C8.71875 18.196 11.505 14.8125 15.0625 14.8125Z" fill="#67BC9E"/>
<path d="M9.67439 28.1593C10.9685 30.6968 11.95 32.9964 12.7384 34.8456C14.4 38.742 15.4028 41.0938 17.3281 41.0938C19.3704 41.0938 19.5938 39.4974 19.5938 36.1094C19.5938 31.9189 20.0043 31.5781 20.5 31.5781C20.9957 31.5781 21.4062 31.9189 21.4062 36.1094C21.4062 39.4974 21.6296 41.0938 23.6719 41.0938C25.5972 41.0938 26.6 38.742 28.2616 34.8456C29.05 32.9964 30.0315 30.6954 31.3256 28.1593L31.4774 27.862C32.2812 26.3001 33.1875 24.5293 33.1875 22.5156C33.1875 17.688 30.0029 13.9062 25.9375 13.9062C24.3704 13.9241 22.8481 14.4321 21.5843 15.359C21.2612 15.5677 20.8847 15.6788 20.5 15.6788C20.1153 15.6788 19.7388 15.5677 19.4157 15.359C18.1519 14.4321 16.6296 13.9241 15.0625 13.9062C10.9971 13.9062 7.8125 17.688 7.8125 22.5156C7.8125 24.5293 8.72102 26.3001 9.52259 27.8625L9.67439 28.1593ZM15.0625 14.8125C16.4312 14.8273 17.7611 15.27 18.8656 16.0785C20.2035 16.9612 21.7796 17.413 23.3819 17.3731C24.5136 17.3666 25.6368 17.1767 26.7078 16.8108L26.421 15.9498C24.9274 16.4801 23.3195 16.6025 21.7629 16.3046C21.8937 16.2416 22.0181 16.1657 22.134 16.0781C23.2387 15.2696 24.5686 14.8271 25.9375 14.8125C29.495 14.8125 32.2812 18.196 32.2812 22.5156C32.2812 24.3105 31.4257 25.9775 30.6713 27.4483L30.5181 27.747C29.21 30.3116 28.2222 32.6285 27.4283 34.4899C25.9651 37.9219 24.9986 40.1875 23.6719 40.1875C22.6854 40.1875 22.3125 39.8359 22.3125 36.1094C22.3125 32.275 22.0606 30.6719 20.5 30.6719C18.9394 30.6719 18.6875 32.275 18.6875 36.1094C18.6875 39.8359 18.3146 40.1875 17.3281 40.1875C16.0014 40.1875 15.0349 37.9219 13.5717 34.4899C12.7778 32.6285 11.79 30.3116 10.4819 27.747L10.3287 27.4483C9.57425 25.9775 8.71875 24.3105 8.71875 22.5156C8.71875 18.196 11.505 14.8125 15.0625 14.8125Z" stroke="#67BC9E" stroke-width="0.4" mask="url(#path-2-outside-1)"/>
<mask id="path-3-outside-2" maskUnits="userSpaceOnUse" x="8.625" y="14.7188" width="8" height="9" fill="black">
<rect fill="white" x="8.625" y="14.7188" width="8" height="9"/>
<path d="M15.5156 16.625V15.7188C13.6456 15.7188 10.0083 17.1325 9.625 22.4835L10.5312 22.5478C10.9463 16.7211 15.3307 16.625 15.5156 16.625Z"/>
</mask>
<path d="M15.5156 16.625V15.7188C13.6456 15.7188 10.0083 17.1325 9.625 22.4835L10.5312 22.5478C10.9463 16.7211 15.3307 16.625 15.5156 16.625Z" fill="#67BC9E"/>
<path d="M15.5156 16.625V15.7188C13.6456 15.7188 10.0083 17.1325 9.625 22.4835L10.5312 22.5478C10.9463 16.7211 15.3307 16.625 15.5156 16.625Z" stroke="#67BC9E" stroke-width="0.4" mask="url(#path-3-outside-2)"/>
<path d="M10.5312 23.4219H9.625V24.3281H10.5312V23.4219Z" fill="#67BC9E"/>
<mask id="path-5-outside-3" maskUnits="userSpaceOnUse" x="27.2876" y="21.5156" width="5" height="7" fill="black">
<rect fill="white" x="27.2876" y="21.5156" width="5" height="7"/>
<path d="M31.3752 22.5156H30.4689C30.4689 22.5369 30.4259 24.6979 28.2876 27.6917L29.0253 28.2182C31.3485 24.9625 31.3752 22.614 31.3752 22.5156Z"/>
</mask>
<path d="M31.3752 22.5156H30.4689C30.4689 22.5369 30.4259 24.6979 28.2876 27.6917L29.0253 28.2182C31.3485 24.9625 31.3752 22.614 31.3752 22.5156Z" fill="#67BC9E"/>
<path d="M31.3752 22.5156H30.4689C30.4689 22.5369 30.4259 24.6979 28.2876 27.6917L29.0253 28.2182C31.3485 24.9625 31.3752 22.614 31.3752 22.5156Z" stroke="#67BC9E" stroke-width="0.4" mask="url(#path-5-outside-3)"/>
</svg>
