<svg width="43" height="56" viewBox="0 0 43 56" fill="none" xmlns="http://www.w3.org/2000/svg">
<path d="M41.8947 13.2632C35.1913 13.2632 29.7368 7.80868 29.7368 1.10526C29.7368 0.495158 29.2428 0 28.6316 0H15.3684C14.7583 0 14.2632 0.495158 14.2632 1.10526C14.2632 7.80868 8.80868 13.2632 2.10526 13.2632C1.49516 13.2632 1 13.7583 1 14.3684V27.6316C1 40.2603 20.5234 54.4574 21.3545 55.0554C21.5468 55.1946 21.7734 55.2632 22 55.2632C22.2266 55.2632 22.4532 55.1946 22.6455 55.0554C23.4766 54.4574 43 40.2603 43 27.6316V14.3684C43 13.7583 42.5059 13.2632 41.8947 13.2632ZM40.7895 27.6316C40.7895 37.9249 25.3733 50.2143 22 52.7785C18.6256 50.2143 3.21053 37.9315 3.21053 27.6316V15.4317C10.2544 14.8934 15.8934 9.25437 16.4317 2.21053H27.5683C28.1066 9.25437 33.7456 14.8934 40.7895 15.4317V27.6316Z" fill="#F39035"/>
<g clip-path="url(#clip0)">
<path d="M12.7467 22.7394H30.7027C31.5718 22.7394 32.2788 22.0324 32.2788 21.1633V15.7061C32.2788 15.1542 31.9675 14.6679 31.4669 14.4362C30.9661 14.2051 30.3939 14.2833 29.9737 14.6406L25.5769 18.3817L23.0997 13.8091C23.0981 13.8061 23.0965 13.8031 23.0947 13.8004C22.812 13.2991 22.2998 13 21.7248 13C21.7248 13 21.7248 13 21.7246 13C21.1496 13 20.6374 13.2991 20.3545 13.8002C20.3529 13.8031 20.3513 13.8061 20.3497 13.8091L17.872 18.3815L13.4754 14.6406C13.055 14.2829 12.4828 14.2048 11.9822 14.4362C11.4814 14.6676 11.1704 15.1542 11.1704 15.7058V19.3249C11.1704 19.3268 11.1699 19.3286 11.1699 19.3306V21.1633C11.1699 22.0324 11.8774 22.7394 12.7467 22.7394ZM30.7027 21.5677H12.7467C12.5233 21.5677 12.3418 21.3862 12.3418 21.1633V19.9166H18.0833H18.0847H19.7324C19.7342 19.9225 19.7363 19.9287 19.7383 19.9347C19.7413 19.9452 19.7448 19.9555 19.7482 19.966C19.7546 19.9862 19.7615 20.0061 19.7683 20.0258C19.772 20.0361 19.7757 20.0464 19.7795 20.0567C19.7876 20.0777 19.7958 20.0985 19.8045 20.1194C19.8077 20.1276 19.8109 20.1358 19.8143 20.1439C19.8267 20.1727 19.8395 20.2013 19.853 20.2295C19.8539 20.2315 19.8551 20.2334 19.8562 20.2354C19.8688 20.2613 19.8819 20.2869 19.8954 20.3121C19.8999 20.3206 19.9047 20.3288 19.9093 20.3373C19.9198 20.356 19.9306 20.3748 19.9418 20.3933C19.9473 20.4027 19.9528 20.4119 19.9585 20.421C19.9695 20.4389 19.981 20.4565 19.9926 20.4739C19.9984 20.4826 20.0038 20.4911 20.0098 20.4995C20.0235 20.5199 20.0377 20.5396 20.0521 20.5593C20.0558 20.5643 20.0595 20.5698 20.0634 20.5748C20.0819 20.5996 20.1011 20.6238 20.1206 20.6479C20.1249 20.6531 20.1295 20.6582 20.1339 20.6634C20.1494 20.6817 20.165 20.6998 20.181 20.7177C20.1879 20.7254 20.1947 20.7328 20.2018 20.7403C20.216 20.7557 20.2304 20.7708 20.2451 20.7856C20.2526 20.7934 20.2602 20.801 20.2677 20.8085C20.2831 20.8236 20.2986 20.8385 20.3144 20.8529C20.3213 20.8596 20.3282 20.866 20.3353 20.8724C20.357 20.8918 20.379 20.9111 20.4014 20.9296C20.4026 20.9308 20.4037 20.9317 20.4048 20.9328C20.4286 20.9523 20.4531 20.9715 20.4779 20.99C20.485 20.9953 20.4921 21.0006 20.4994 21.0058C20.517 21.0189 20.5349 21.0317 20.5532 21.0441C20.5621 21.0502 20.571 21.0562 20.5799 21.0621C20.5973 21.0736 20.6147 21.0848 20.6324 21.0958C20.6415 21.1013 20.6504 21.107 20.6596 21.1125C20.679 21.1242 20.6987 21.1354 20.7184 21.1464C20.7257 21.1505 20.7331 21.1548 20.7404 21.1587C20.7676 21.1734 20.7953 21.1878 20.8232 21.2013C20.8276 21.2034 20.8319 21.2052 20.8363 21.2072C20.8601 21.2185 20.8839 21.2294 20.9082 21.2397C20.9175 21.2439 20.9272 21.2478 20.9365 21.2514C20.9562 21.2597 20.9759 21.2674 20.9956 21.275C21.0063 21.2789 21.0169 21.2828 21.0274 21.2867C21.0473 21.2935 21.0672 21.3004 21.0874 21.3068C21.0974 21.31 21.1075 21.3134 21.1178 21.3167C21.1418 21.324 21.1661 21.3308 21.1906 21.3372C21.1968 21.3391 21.2027 21.3409 21.2089 21.3423C21.2393 21.3503 21.2702 21.3574 21.3014 21.3638C21.3096 21.3656 21.3179 21.3668 21.3261 21.3686C21.3492 21.373 21.3723 21.3773 21.3957 21.381C21.4069 21.3828 21.4181 21.3844 21.4293 21.386C21.4504 21.389 21.4714 21.3917 21.4927 21.394C21.5044 21.3954 21.5161 21.3965 21.5277 21.3977C21.5499 21.3997 21.5721 21.4013 21.5946 21.4027C21.6051 21.4034 21.6154 21.4043 21.6257 21.4048C21.6584 21.4064 21.6912 21.4073 21.7241 21.4073C21.7571 21.4073 21.79 21.4064 21.8225 21.4048C21.8331 21.4043 21.8434 21.4034 21.8537 21.4029C21.8761 21.4016 21.8983 21.4 21.9205 21.3977C21.9324 21.3968 21.9441 21.3954 21.9557 21.394C21.9768 21.3917 21.9981 21.389 22.0189 21.386C22.0301 21.3844 22.0416 21.3828 22.0526 21.381C22.0761 21.3773 22.0993 21.3732 22.1224 21.3686C22.1306 21.367 22.1389 21.3656 22.1471 21.3638C22.1782 21.3574 22.2091 21.3503 22.2398 21.3425C22.2457 21.3409 22.2519 21.3391 22.2579 21.3375C22.2824 21.3308 22.3066 21.324 22.3309 21.3167C22.341 21.3137 22.351 21.3102 22.3613 21.3068C22.3815 21.3004 22.4014 21.2938 22.4211 21.2867C22.4318 21.2828 22.4424 21.2789 22.4529 21.275C22.4728 21.2674 22.4925 21.2597 22.5119 21.2516C22.5215 21.2478 22.5312 21.2439 22.5405 21.2397C22.5648 21.2294 22.5888 21.2187 22.6124 21.2072C22.6168 21.2052 22.6211 21.2034 22.6255 21.2013C22.6534 21.1878 22.6808 21.1736 22.7083 21.1587C22.7156 21.1548 22.723 21.1505 22.7305 21.1464C22.7502 21.1354 22.7697 21.1242 22.7891 21.1125C22.7983 21.107 22.8074 21.1015 22.8166 21.0958C22.834 21.0848 22.8514 21.0736 22.8685 21.0624C22.8777 21.0562 22.8868 21.0502 22.8958 21.0441C22.9138 21.0317 22.9317 21.0189 22.9493 21.0061C22.9564 21.0006 22.964 20.9955 22.9711 20.99C22.9958 20.9715 23.0201 20.9525 23.0439 20.9328C23.0455 20.9317 23.0468 20.9303 23.0484 20.9289C23.0706 20.9106 23.0921 20.8918 23.1134 20.8726C23.1208 20.8662 23.1276 20.8593 23.1349 20.8529C23.1505 20.8385 23.1658 20.8239 23.181 20.809C23.1887 20.8012 23.1965 20.7934 23.2041 20.7856C23.2185 20.771 23.2327 20.7559 23.2466 20.7408C23.254 20.7332 23.2611 20.7254 23.2682 20.7177C23.284 20.7003 23.2993 20.6824 23.3144 20.6643C23.319 20.6586 23.3238 20.6534 23.3286 20.6476C23.348 20.6241 23.367 20.5998 23.3853 20.5753C23.3897 20.5696 23.3936 20.5639 23.3979 20.5581C23.4119 20.5389 23.4256 20.5197 23.4391 20.5002C23.4451 20.4913 23.451 20.4824 23.4568 20.4734C23.4682 20.4563 23.4792 20.4391 23.4902 20.4217C23.4959 20.4121 23.5018 20.4025 23.5076 20.3929C23.5183 20.375 23.5289 20.3567 23.5389 20.3384C23.544 20.3295 23.549 20.3208 23.5538 20.3116C23.5668 20.2878 23.5792 20.2636 23.5911 20.2391C23.5927 20.2356 23.5945 20.2324 23.5961 20.229C23.6096 20.2011 23.6222 20.1729 23.6344 20.1445C23.6383 20.1356 23.6419 20.1265 23.6456 20.1175C23.6536 20.0976 23.6616 20.0777 23.6692 20.0576C23.6733 20.0466 23.6772 20.0356 23.6811 20.0246C23.6879 20.0056 23.6943 19.9866 23.7005 19.9674C23.7042 19.9564 23.7078 19.945 23.711 19.9337C23.7129 19.928 23.7149 19.9223 23.7165 19.9166H25.364C25.3645 19.9166 25.3652 19.9168 25.3656 19.9168H31.1067V21.1635C31.1069 21.3862 30.9256 21.5677 30.7027 21.5677ZM20.8203 19.3306C20.8203 18.8319 21.2258 18.4263 21.7243 18.4263C22.2233 18.4263 22.6291 18.8319 22.6291 19.3306C22.6291 19.8294 22.2231 20.2352 21.7243 20.2352C21.2258 20.2352 20.8203 19.8294 20.8203 19.3306ZM30.7329 15.533C30.829 15.4513 30.9261 15.4772 30.9753 15.5001C31.0245 15.5227 31.1069 15.5797 31.1069 15.7058V18.7447H26.9586L30.7329 15.533ZM21.3771 14.3728C21.4813 14.1916 21.6545 14.1719 21.7246 14.1719H21.7248C21.7946 14.1719 21.9679 14.1916 22.0723 14.3726L24.4407 18.7447H23.7168C23.7149 18.7383 23.7129 18.7323 23.711 18.7262C23.7078 18.7161 23.7046 18.706 23.7014 18.696C23.6948 18.6756 23.6879 18.6552 23.6808 18.6351C23.6772 18.625 23.6735 18.6149 23.6698 18.6051C23.6618 18.5836 23.6534 18.5623 23.6447 18.5412C23.6415 18.5334 23.6383 18.5254 23.6351 18.5177C23.6227 18.4886 23.6099 18.4602 23.5961 18.4321C23.5952 18.4302 23.5943 18.4284 23.5934 18.4266C23.5808 18.4005 23.5675 18.3746 23.5538 18.3492C23.5492 18.3407 23.5444 18.3325 23.5398 18.3242C23.5293 18.3053 23.5186 18.2865 23.5073 18.2679C23.5018 18.2588 23.4964 18.2496 23.4906 18.2405C23.4794 18.2226 23.4682 18.205 23.4565 18.1874C23.4508 18.1789 23.4453 18.1702 23.4396 18.1617C23.4259 18.1418 23.4117 18.1221 23.3975 18.1027C23.3934 18.0972 23.3897 18.0917 23.3858 18.0864C23.367 18.062 23.348 18.0377 23.3286 18.0137C23.324 18.0084 23.3194 18.0034 23.3151 17.9981C23.2997 17.9798 23.2842 17.9617 23.2682 17.9438C23.2613 17.9363 23.2542 17.9287 23.2471 17.921C23.2329 17.9059 23.2187 17.8907 23.2041 17.8759C23.1965 17.8681 23.1887 17.8605 23.1812 17.853C23.1658 17.8379 23.1505 17.8232 23.1347 17.8086C23.1276 17.8022 23.1208 17.7955 23.1137 17.7891C23.0924 17.7699 23.0706 17.7511 23.0487 17.7328C23.0471 17.7314 23.0457 17.7301 23.0441 17.7287C23.0203 17.7092 22.9958 17.6902 22.9713 17.6715C22.964 17.6662 22.9566 17.6609 22.9496 17.6557C22.9319 17.6429 22.9141 17.6301 22.896 17.6175C22.8868 17.6115 22.8779 17.6053 22.8688 17.5994C22.8516 17.5879 22.8344 17.577 22.8168 17.566C22.8076 17.5602 22.7985 17.5545 22.7891 17.549C22.7699 17.5374 22.7504 17.5264 22.7307 17.5154C22.7234 17.5113 22.7159 17.5069 22.7083 17.5028C22.6811 17.4881 22.6536 17.4737 22.6257 17.4602C22.6213 17.4584 22.6172 17.4566 22.6131 17.4545C22.5893 17.4433 22.5653 17.4323 22.5408 17.4218C22.5314 17.4176 22.5218 17.414 22.5122 17.4099C22.4927 17.4019 22.473 17.3941 22.4531 17.3867C22.4426 17.3826 22.4321 17.3787 22.4215 17.3751C22.4016 17.368 22.3817 17.3613 22.3618 17.3547C22.3515 17.3515 22.3412 17.3481 22.3311 17.3451C22.3071 17.3375 22.2828 17.3309 22.2583 17.3243C22.2522 17.3227 22.2462 17.3208 22.24 17.3192C22.2094 17.3114 22.1785 17.3044 22.1476 17.2977C22.1393 17.2961 22.1308 17.2947 22.1226 17.2931C22.0995 17.2886 22.0764 17.2844 22.053 17.2805C22.0418 17.2789 22.0306 17.2773 22.0194 17.2757C21.9983 17.2728 21.977 17.27 21.956 17.2677C21.9443 17.2664 21.9326 17.265 21.921 17.2638C21.8988 17.2618 21.8763 17.2602 21.8539 17.2588C21.8436 17.2581 21.8333 17.2574 21.823 17.257C21.7905 17.2554 21.7575 17.2545 21.7246 17.2545C21.6914 17.2545 21.6587 17.2554 21.6262 17.257C21.6159 17.2574 21.6056 17.2581 21.5953 17.2588C21.5728 17.2602 21.5504 17.262 21.5282 17.2638C21.5165 17.265 21.5049 17.2664 21.4932 17.2677C21.4719 17.27 21.4508 17.2728 21.4298 17.2757C21.4186 17.2773 21.4073 17.2789 21.3961 17.2805C21.373 17.2844 21.3497 17.2886 21.3266 17.2931C21.3183 17.2947 21.3101 17.2961 21.3018 17.2977C21.2707 17.3044 21.2398 17.3114 21.2094 17.3192C21.203 17.3208 21.197 17.3227 21.1908 17.3243C21.1663 17.3309 21.1423 17.3375 21.1183 17.3451C21.108 17.3481 21.0977 17.3515 21.0876 17.3549C21.0675 17.3613 21.0475 17.368 21.0279 17.3751C21.0171 17.3787 21.0066 17.3826 20.996 17.3867C20.9761 17.3941 20.9567 17.4019 20.937 17.4099C20.9276 17.414 20.918 17.4176 20.9084 17.4218C20.8841 17.4323 20.8601 17.4431 20.8365 17.4545C20.8322 17.4563 20.8278 17.4582 20.8237 17.4602C20.7958 17.4737 20.7681 17.4881 20.7408 17.5028C20.7333 17.5069 20.726 17.5113 20.7184 17.5154C20.6987 17.5264 20.6793 17.5374 20.66 17.549C20.6509 17.5545 20.6417 17.5602 20.6324 17.566C20.615 17.577 20.5976 17.5879 20.5806 17.5994C20.5715 17.6053 20.5623 17.6113 20.5534 17.6175C20.5353 17.6301 20.5175 17.6429 20.4998 17.6557C20.4925 17.6609 20.4852 17.6662 20.4781 17.6715C20.4534 17.69 20.4291 17.7092 20.4053 17.7287C20.4037 17.7301 20.4023 17.7314 20.4007 17.7328C20.3788 17.7511 20.357 17.7699 20.3357 17.7889C20.3286 17.7955 20.3215 17.8022 20.3144 17.8088C20.2989 17.8232 20.2835 17.8379 20.2684 17.8528C20.2604 17.8605 20.2529 17.8681 20.2453 17.8759C20.2307 17.8907 20.2165 17.9056 20.2023 17.921C20.1954 17.9285 20.1881 17.9361 20.1812 17.9438C20.1654 17.9615 20.1499 17.9796 20.1345 17.9976C20.13 18.0031 20.1254 18.0084 20.1208 18.0137C20.1013 18.0375 20.0821 18.0617 20.0638 18.0864C20.0597 18.0917 20.0558 18.0974 20.0517 18.1029C20.0375 18.1224 20.0235 18.1418 20.01 18.1615C20.0041 18.1702 19.9984 18.1789 19.9926 18.1878C19.9812 18.205 19.97 18.2224 19.959 18.24C19.9533 18.2494 19.9475 18.2588 19.9418 18.2682C19.9308 18.2865 19.9203 18.305 19.91 18.3236C19.9052 18.332 19.9002 18.3407 19.8956 18.3494C19.8821 18.3741 19.8693 18.3991 19.8569 18.4245C19.8558 18.427 19.8544 18.4295 19.8532 18.4321C19.8397 18.4602 19.8269 18.4886 19.8146 18.5172C19.8111 18.5254 19.8077 18.5341 19.8043 18.5426C19.7958 18.563 19.7876 18.5836 19.7798 18.6044C19.7759 18.6149 19.7722 18.6252 19.7686 18.6358C19.7615 18.6554 19.7548 18.6751 19.7484 18.6948C19.745 18.7056 19.7415 18.7161 19.7383 18.7269C19.7365 18.7328 19.7345 18.7385 19.7326 18.7447H19.0082L21.3771 14.3728ZM12.4739 15.5001C12.5231 15.4772 12.6199 15.4513 12.716 15.533L16.4905 18.7447H12.342V15.7058C12.342 15.5797 12.4247 15.5227 12.4739 15.5001Z" fill="#67BC9E"/>
<path d="M29.2771 23.9982C27.5209 22.5924 26.0124 23.0932 24.5537 23.5771C23.7631 23.8396 22.9458 24.1108 22.012 24.1289C21.0781 24.1108 20.2608 23.8396 19.4702 23.5771C18.0116 23.093 16.503 22.5924 14.7468 23.9982C13.7564 24.7908 13.0199 26.2683 12.6729 28.1584C12.2634 30.3884 12.4376 33.0029 13.1636 35.5201C13.9272 38.1681 15.238 40.5711 16.9541 42.4697C17.3245 42.8791 17.8708 43.0691 18.4167 42.9773C18.9655 42.8848 19.4231 42.5241 19.6408 42.0121C20.0012 41.1634 20.2933 40.3877 20.5087 39.7066C20.7165 39.0488 21.3207 38.6068 22.012 38.6068C22.7034 38.6068 23.3074 39.0488 23.5155 39.7066C23.7306 40.3877 24.0227 41.1634 24.3834 42.0121C24.6008 42.5241 25.0584 42.8848 25.6072 42.9773C25.6979 42.9924 25.7885 43 25.8782 43C26.3294 43 26.761 42.8111 27.0698 42.4697C28.786 40.5711 30.0968 38.1681 30.8605 35.5201C31.5865 33.0029 31.7607 30.3884 31.3513 28.1584C31.004 26.2683 30.2675 24.7908 29.2771 23.9982ZM26.2005 41.6839C26.0554 41.8443 25.8732 41.8336 25.8016 41.8217C25.7283 41.8093 25.5489 41.7585 25.4619 41.5539C25.1158 40.7395 24.8368 39.9991 24.6329 39.3534C24.2701 38.2058 23.2168 37.4349 22.012 37.4349C20.8071 37.4349 19.7538 38.2058 19.391 39.3534C19.1871 39.9991 18.9081 40.7395 18.5623 41.5539C18.4753 41.7585 18.2956 41.8093 18.2224 41.8217C18.151 41.8336 17.9685 41.8443 17.8234 41.6839C14.6704 38.196 13.0263 32.7211 13.8253 28.3701C14.1174 26.7807 14.72 25.5207 15.4792 24.9131C16.7383 23.9053 17.7294 24.2342 19.1013 24.6895C19.9372 24.9669 20.8847 25.2813 22.0017 25.3008C22.0085 25.301 22.0154 25.301 22.0223 25.3008C23.1392 25.2813 24.0868 24.9671 24.9227 24.6895C26.2943 24.2342 27.2856 23.9053 28.5447 24.9131C29.3039 25.5207 29.9066 26.7807 30.1986 28.3699C30.9976 32.7211 29.3536 38.196 26.2005 41.6839Z" fill="#67BC9E"/>
</g>
<defs>
<clipPath id="clip0">
<rect width="30" height="30" fill="white" transform="translate(7 13)"/>
</clipPath>
</defs>
</svg>
