<svg width="42" height="56" viewBox="0 0 42 56" fill="none" xmlns="http://www.w3.org/2000/svg">
<path d="M40.8947 13.2632C34.1913 13.2632 28.7368 7.80868 28.7368 1.10526C28.7368 0.495158 28.2428 0 27.6316 0H14.3684C13.7583 0 13.2632 0.495158 13.2632 1.10526C13.2632 7.80868 7.80868 13.2632 1.10526 13.2632C0.495158 13.2632 0 13.7583 0 14.3684V27.6316C0 40.2603 19.5234 54.4574 20.3545 55.0554C20.5468 55.1946 20.7734 55.2632 21 55.2632C21.2266 55.2632 21.4532 55.1946 21.6455 55.0554C22.4766 54.4574 42 40.2603 42 27.6316V14.3684C42 13.7583 41.5059 13.2632 40.8947 13.2632ZM39.7895 27.6316C39.7895 37.9249 24.3733 50.2143 21 52.7785C17.6256 50.2143 2.21053 37.9315 2.21053 27.6316V15.4317C9.25437 14.8934 14.8934 9.25437 15.4317 2.21053H26.5683C27.1066 9.25437 32.7456 14.8934 39.7895 15.4317V27.6316Z" fill="#F39035"/>
<path d="M12.7553 30.2252C13.2128 30.4161 13.687 30.5128 14.1648 30.5128C14.1672 30.5128 14.1698 30.5128 14.1718 30.5128L15.6369 30.5084C17.3928 30.5024 19.21 30.4961 20.9901 30.5238C20.9934 30.5238 20.9964 30.5238 20.9998 30.5238C21.0001 30.5238 21.0001 30.5238 21.0004 30.5238C21.0038 30.5238 21.0068 30.5238 21.0101 30.5238C22.7902 30.4964 24.6067 30.5028 26.3633 30.5084L27.8283 30.5128C27.8307 30.5128 27.833 30.5128 27.8354 30.5128C28.3132 30.5128 28.7878 30.4161 29.2452 30.2252C31.7901 29.1625 33.1397 25.4836 33.4925 24.3814C34.473 21.3223 34.0192 18.3397 32.2482 16.1992C30.3086 13.8543 26.7977 12.613 23.5148 13.1076C22.6641 13.2343 21.8204 13.4938 21.0001 13.8674C20.1798 13.4938 19.3364 13.2343 18.4867 13.1083C15.2008 12.6137 11.6912 13.855 9.75165 16.1995C7.98063 18.3401 7.52718 21.3223 8.50733 24.3814C8.86046 25.4836 10.2098 29.1625 12.7553 30.2252ZM10.7823 17.0519C12.4078 15.0869 15.4961 14.0092 18.2884 14.4312C19.1037 14.5522 19.9166 14.8107 20.7038 15.1996C20.7165 15.206 20.7299 15.2087 20.7426 15.214C20.7643 15.223 20.7861 15.2317 20.8085 15.2388C20.8145 15.2404 20.8205 15.2438 20.8269 15.2455C20.8566 15.2685 20.8874 15.2906 20.9218 15.309C21.7876 15.7681 22.5644 16.3634 23.2306 17.0783C23.3623 17.2198 23.5409 17.2914 23.7198 17.2914C23.883 17.2914 24.0469 17.2318 24.1756 17.1118C24.4462 16.86 24.4609 16.4366 24.2091 16.1664C23.6964 15.616 23.1222 15.1334 22.5036 14.7121C22.9039 14.5853 23.3082 14.491 23.7131 14.4308C26.5058 14.0102 29.5923 15.0869 31.2176 17.0519C32.692 18.8343 33.0571 21.3571 32.2188 23.9735C31.5824 25.9605 30.3314 28.3221 28.7299 28.9909C28.435 29.114 28.1169 29.1788 27.8307 29.1752L26.3673 29.1712C24.6087 29.1651 22.7892 29.1598 20.9998 29.1862C19.2103 29.1598 17.3912 29.1648 15.6322 29.1712L14.1688 29.1752C14.1672 29.1752 14.1658 29.1752 14.1642 29.1752C13.8642 29.1752 13.5629 29.113 13.2696 28.9909C11.6678 28.3221 10.4171 25.9605 9.78041 23.9735C8.94272 21.3571 9.30789 18.8343 10.7823 17.0519Z" fill="#67BC9E"/>
<path d="M27.0165 32.3721C27.0165 32.0029 26.7169 31.7033 26.3477 31.7033H15.6527C15.2835 31.7033 14.9839 32.0029 14.9839 32.3721C14.9839 32.7413 15.2835 33.0409 15.6527 33.0409H26.3477C26.7172 33.0409 27.0165 32.7416 27.0165 32.3721Z" fill="#67BC9E"/>
<path d="M26.1689 34.8869C26.1689 34.5177 25.8693 34.218 25.5001 34.218H16.4999C16.1307 34.218 15.8311 34.5177 15.8311 34.8869C15.8311 35.256 16.1307 35.5557 16.4999 35.5557H25.5001C25.8696 35.5557 26.1689 35.2564 26.1689 34.8869Z" fill="#67BC9E"/>
<path d="M25.3213 37.4019C25.3213 37.0327 25.0217 36.7331 24.6525 36.7331H17.347C16.9779 36.7331 16.6782 37.0327 16.6782 37.4019C16.6782 37.7711 16.9779 38.0707 17.347 38.0707H24.6525C25.0217 38.0707 25.3213 37.7711 25.3213 37.4019Z" fill="#67BC9E"/>
<path d="M24.2478 39.9166C24.2478 39.5475 23.9481 39.2478 23.579 39.2478H18.4217C18.0526 39.2478 17.7529 39.5475 17.7529 39.9166C17.7529 40.2858 18.0526 40.5855 18.4217 40.5855H23.579C23.9481 40.5855 24.2478 40.2862 24.2478 39.9166Z" fill="#67BC9E"/>
<path d="M20.0975 43.1005H21.9033C22.2725 43.1005 22.5721 42.8009 22.5721 42.4317C22.5721 42.0625 22.2725 41.7629 21.9033 41.7629H20.0975C19.7283 41.7629 19.4287 42.0625 19.4287 42.4317C19.4287 42.8009 19.728 43.1005 20.0975 43.1005Z" fill="#67BC9E"/>
</svg>
