<svg width="50" height="50" viewBox="0 0 50 50" fill="none" xmlns="http://www.w3.org/2000/svg">
<path d="M13.4408 13.8752C13.0024 13.8752 12.6437 14.2339 12.6437 14.6723V15.1107C12.6537 15.6289 12.2451 16.0474 11.727 16.0673H11.717C11.1889 16.0673 10.7605 15.6388 10.7505 15.1107V14.6723C10.7505 14.2339 10.3918 13.8752 9.95338 13.8752C9.51496 13.8752 9.15625 14.2339 9.15625 14.6723V15.1107C9.16621 15.7883 9.43524 16.436 9.92349 16.9142C10.3918 17.3925 11.0395 17.6616 11.7071 17.6616C13.112 17.6616 14.2379 16.5256 14.2379 15.1107V14.6723C14.2379 14.2339 13.8792 13.8752 13.4408 13.8752Z" fill="#F39035"/>
<path d="M22.2094 13.8851C21.771 13.8851 21.4123 14.2438 21.4123 14.6823V15.1207C21.4123 15.6388 20.9838 16.0673 20.4657 16.0673C19.9475 16.0673 19.5191 15.6388 19.5191 15.1207V14.6823C19.5191 14.2438 19.1604 13.8851 18.7219 13.8851C18.2835 13.8851 17.9248 14.2438 17.9248 14.6823V15.1207C17.9248 16.5256 19.0707 17.6615 20.4756 17.6615C21.8806 17.6615 23.0165 16.5157 23.0065 15.1207V14.6823C23.0065 14.2438 22.6478 13.8851 22.2094 13.8851Z" fill="#F39035"/>
<path d="M38.322 26.3801C34.6652 26.3701 31.2176 28.074 29.0155 30.9935C27.77 30.1964 26.3252 29.7679 24.8505 29.7679H20.6158V28.3729C22.4392 27.5559 24.0036 26.2705 25.1495 24.6364C26.3252 22.9724 27.0128 21.0194 27.1323 18.9867C28.4177 18.6878 29.3344 17.5419 29.3444 16.2267C29.3444 15.4694 29.0454 14.742 28.5074 14.2039C28.1387 13.8452 27.6903 13.5862 27.1921 13.4666V8.84324H28.8262C29.2646 8.84324 29.6234 8.48453 29.6234 8.04611C29.6134 3.76153 26.1459 0.284052 21.8513 0.274088H14.6772C13.5413 0.264124 12.4552 0.71251 11.6481 1.5196C11.4289 1.73882 11.2296 1.97795 11.0701 2.24699C7.51295 2.41638 5.66959 5.09673 5.13153 7.62762C5.13153 7.63758 5.13153 7.63758 5.13153 7.64754C5.10163 7.83686 5.08171 8.02618 5.08171 8.2155V13.4267C4.50379 13.5164 3.97569 13.7954 3.56716 14.2139C2.45118 15.3199 2.45118 17.1234 3.55719 18.2394C3.97569 18.6579 4.51375 18.9369 5.10163 19.0365C5.39059 23.2813 8.10084 26.978 12.0566 28.5523V29.7679H7.82184C3.51734 29.7679 0 33.3151 0 37.6097V47.3646C0.00996413 47.8129 0.358709 48.1816 0.817059 48.2015H32.1244C32.224 48.1916 32.3336 48.1717 32.4233 48.1218C34.2168 49.178 36.2595 49.7261 38.332 49.7261C44.7688 49.7261 50 44.4849 50 38.0581C50 31.6312 44.7589 26.3801 38.322 26.3801ZM5.07174 17.3725C4.57354 17.1832 4.31447 16.7348 4.31447 16.2267C4.31447 15.8978 4.444 15.579 4.68314 15.3399C4.79275 15.2203 4.92228 15.1306 5.07174 15.0708V17.3725ZM27.3914 15.3498C27.6305 15.579 27.77 15.8978 27.77 16.2267C27.77 16.6651 27.4811 17.0537 27.1821 17.2729V15.1804C27.1921 15.2203 27.3316 15.2801 27.3914 15.3498ZM12.2559 3.37293C12.3854 3.09394 12.5648 2.8548 12.774 2.64555C13.2822 2.14734 13.9597 1.85838 14.6772 1.86835H21.8513C24.9601 1.84842 27.5907 4.1601 27.9693 7.24898H14.6772C14.6473 7.24898 14.6273 7.23901 14.5974 7.23901C14.5676 7.23901 14.5476 7.22905 14.5177 7.22905C13.0929 7.14934 11.9868 5.97357 11.9868 4.5487C11.9868 4.14017 12.0765 3.74161 12.2559 3.37293ZM6.666 8.2155C6.666 8.12582 6.67597 8.03614 6.68593 7.95643C6.77561 7.52797 7.06457 6.45185 7.80191 5.51522C8.44958 4.66827 9.38621 4.10031 10.4424 3.92096C10.1534 5.86397 11.2196 7.75715 13.043 8.50446C10.6118 11.0951 7.8617 11.4239 6.666 11.414V8.2155ZM9.43603 24.9652C7.65245 23.1916 6.65604 20.7803 6.666 18.2693V13.0282C8.33998 13.0282 11.9171 12.53 14.8565 8.84324H25.5978V18.2693C25.5779 22.2151 23.1367 25.7324 19.44 27.1274C17.4073 27.8847 15.1754 27.9245 13.1228 27.237C11.7377 26.7787 10.4723 25.9915 9.43603 24.9652ZM15.3348 46.6073H1.5843V37.6097C1.59426 34.3116 4.17497 31.5913 7.46313 31.412V33.5543C6.72579 33.7037 6.03826 34.0724 5.52013 34.6204C4.78278 35.3578 4.36429 36.3642 4.37425 37.4104V41.8046C4.37425 42.243 4.6931 42.6216 5.13153 42.6216H6.38701C6.82543 42.6216 7.18414 42.2629 7.18414 41.8245C7.18414 41.3861 6.82543 41.0274 6.38701 41.0274H5.96851V37.4104C5.95855 36.7926 6.19769 36.1848 6.63611 35.7464C7.0546 35.308 7.63252 35.0589 8.24033 35.0489H8.27023C9.57553 35.0589 10.6317 36.1051 10.6517 37.4104V41.0274H9.84456C9.40614 41.0274 9.04743 41.3861 9.04743 41.8245C9.04743 42.2629 9.40614 42.6216 9.84456 42.6216H11.4189C11.8673 42.6117 12.236 42.253 12.2459 41.8046V37.4104C12.236 35.5272 10.9008 33.913 9.05739 33.5443V31.3622H12.495L15.3348 34.4311V46.6073ZM13.6409 30.296V29.0405C14.458 29.2298 15.285 29.3295 16.122 29.3295C17.0984 29.3295 18.0749 29.2 19.0215 28.9409V30.2661L16.1917 32.9764L13.6409 30.296ZM16.9291 46.6073V34.451L20.1275 31.3622H21.6122V35.567C20.1873 35.9257 19.1809 37.2111 19.171 38.6858C19.1809 40.4594 20.6357 41.8843 22.3994 41.8743C24.173 41.8644 25.5978 40.4096 25.5879 38.646C25.5779 37.809 25.2491 37.0118 24.6612 36.414C24.2527 36.0154 23.7545 35.7265 23.1965 35.567V31.3622H24.8406C26.0064 31.3622 27.1523 31.701 28.1387 32.3287C25.5281 37.0318 26.4348 42.9206 30.3607 46.6073H16.9291ZM22.3695 37.0616C22.7979 37.0616 23.2164 37.231 23.5253 37.5399C24.153 38.1776 24.153 39.194 23.5253 39.8317C22.8876 40.4694 21.8613 40.4694 21.2236 39.8317C20.5859 39.194 20.5859 38.1677 21.2236 37.53C21.5225 37.231 21.941 37.0616 22.3695 37.0616ZM38.322 48.1218C32.7621 48.1218 28.2483 43.618 28.2483 38.0581C28.2483 36.1051 28.8163 34.192 29.8824 32.5579C32.9215 27.8947 39.159 26.5794 43.8123 29.6184C48.4755 32.6575 49.7908 38.8951 46.7517 43.5483C44.9083 46.398 41.7298 48.1218 38.322 48.1218Z" fill="#67BC9E"/>
<path d="M42.1782 31.6511C41.9291 31.6212 41.6899 31.6113 41.4408 31.6312C40.7931 31.681 40.1554 31.7906 39.5277 31.97C39.0993 32.0796 38.8501 32.518 38.9598 32.9465C39.0694 33.3749 39.5078 33.624 39.9362 33.5144C40.4643 33.365 41.0124 33.2753 41.5604 33.2255C42.8757 33.1258 44.0215 34.1123 44.1212 35.4176C44.1311 35.567 44.1311 35.7065 44.1112 35.856C43.9119 37.7093 43.2543 40.589 41.3113 43.9568L39.6871 40.9676C39.4779 40.569 39.0694 40.3299 38.621 40.3299C38.1626 40.3299 37.7541 40.589 37.5448 40.9975L36.0901 43.907C34.167 40.5591 33.5094 37.6994 33.3101 35.856C33.1706 34.5407 34.1272 33.365 35.4424 33.2255C35.552 33.2155 35.6517 33.2055 35.7613 33.2155C35.9107 33.3849 36.0502 33.5642 36.1897 33.7436C36.937 34.74 38.332 36.5834 41.0124 36.2446C41.4508 36.1948 41.7597 35.7962 41.6999 35.3578C41.6401 34.9194 41.2515 34.6105 40.8131 34.6703C39.0494 34.8895 38.1626 33.7237 37.4651 32.787C37.0167 32.1892 36.6281 31.681 36.0104 31.6312C33.8183 31.4618 31.8952 33.0959 31.7258 35.298C31.7059 35.5471 31.7059 35.7862 31.7358 36.0353C31.9649 38.1477 32.7322 41.4857 35.0937 45.3518C35.3229 45.7304 35.7413 45.9497 36.1798 45.9297C36.6182 45.9098 37.0068 45.6507 37.1961 45.2621L38.6309 42.3825L40.2252 45.312C40.4245 45.6906 40.8131 45.9297 41.2515 45.9497C41.2615 45.9497 41.2714 45.9497 41.2914 45.9497C41.7098 45.9497 42.1084 45.7304 42.3276 45.3717C44.6991 41.4957 45.4663 38.1577 45.7055 36.0353C45.9446 33.8532 44.3603 31.8903 42.1782 31.6511Z" fill="#F39035"/>
</svg>
