<svg width="50" height="50" viewBox="0 0 50 50" fill="none" xmlns="http://www.w3.org/2000/svg">
<path d="M44.7273 2.42914H12.3956C9.58968 2.42914 7.30682 4.69065 7.30682 7.4614L7.09846 35.9312H0.788762C0.341599 35.9312 0 36.3265 0 36.7737V40.6918C0 44.3596 2.93522 47.3593 6.47773 47.5238V47.5708H33.7044V47.5179C33.9069 47.5262 34.0294 47.5708 34.1686 47.5708H34.188C37.9661 47.5487 41.0117 44.4692 40.9919 40.691V15.7895H49.2112C49.6584 15.7895 50 15.3846 50 14.9378V7.74883C50.0051 4.82705 47.6491 2.45009 44.7273 2.42914V2.42914ZM6.83198 45.9514H6.82645C3.94618 45.9514 1.61943 43.5709 1.61943 40.691V37.5506H27.3279V40.6776C27.3216 42.5002 28.0416 44.2501 29.3285 45.5406C29.4653 45.6782 29.6084 45.749 29.7547 45.9514H6.83198ZM39.3725 40.6902C39.3725 43.5709 37.0682 45.9514 34.1868 45.9514H34.1702C31.2745 45.9305 28.9406 43.5737 28.9474 40.678V36.7737C28.9497 36.3202 28.5911 35.947 28.1376 35.9312H8.71789L8.92625 7.46694C8.92625 5.58379 10.4824 4.04857 12.3956 4.04857H40.9045C39.9817 5.06072 39.3725 6.34132 39.3725 7.77058V40.6902ZM48.3806 7.76307V14.17H40.9919V7.769C40.9919 5.74233 42.6777 4.04857 44.7036 4.04857H44.7262C46.7572 4.06874 48.39 5.72573 48.3806 7.75714V7.76307Z" fill="#67BC9E"/>
<path d="M19.0141 22.3598L23.1888 25.2139C23.4612 25.4017 23.8214 25.4017 24.0938 25.2139L28.2559 22.3606C29.7018 21.3741 30.7697 19.3119 30.7697 17.5631V11.7884C30.7784 11.4832 30.6099 11.2001 30.3379 11.0613L23.9816 7.93471C23.7586 7.82401 23.4968 7.82401 23.2738 7.93471L16.9294 11.0526C16.6573 11.1914 16.4893 11.4745 16.4984 11.7797V17.5631C16.4984 19.3119 17.5687 21.3741 19.0141 22.3598ZM18.1178 12.285L23.634 9.56324L29.1502 12.2925V17.5631C29.1502 18.7829 28.3508 20.3343 27.3422 21.0218L23.6245 23.5645L19.9215 21.0222C18.9129 20.3339 18.1178 18.7829 18.1178 17.5631V12.285Z" fill="#67BC9E"/>
<path d="M22.2636 18.7856C22.4146 18.9398 22.621 19.0272 22.8369 19.0284H22.8389C23.0539 19.0276 23.2599 18.9414 23.4114 18.7888L26.6324 15.5665C26.9491 15.2502 26.9491 14.737 26.6328 14.4207C26.3169 14.104 25.8037 14.104 25.4875 14.4203L22.8416 17.0658L21.784 15.9979C21.4689 15.68 20.9561 15.6776 20.6382 15.9927C20.3204 16.3078 20.3184 16.8206 20.6331 17.1385L22.2636 18.7856Z" fill="#F39035"/>
<path d="M33.7048 27.5304H14.2716C13.8245 27.5304 13.4619 27.8929 13.4619 28.3401C13.4619 28.7873 13.8245 29.1498 14.2716 29.1498H33.7048C34.152 29.1498 34.5145 28.7873 34.5145 28.3401C34.5145 27.8929 34.152 27.5304 33.7048 27.5304Z" fill="#F39035"/>
<path d="M33.7048 31.2753H14.2716C13.8245 31.2753 13.4619 31.6379 13.4619 32.085C13.4619 32.5322 13.8245 32.8948 14.2716 32.8948H33.7048C34.152 32.8948 34.5145 32.5322 34.5145 32.085C34.5145 31.6379 34.152 31.2753 33.7048 31.2753Z" fill="#F39035"/>
</svg>
