<svg width="49" height="49" viewBox="0 0 49 49" fill="none" xmlns="http://www.w3.org/2000/svg">
<g clip-path="url(#clip0)">
<path d="M47.9792 10.7187C47.4157 10.7187 46.9583 10.2614 46.9583 9.69788V8.06863C46.9583 6.73338 46.0968 5.53697 44.8636 5.15926C31.3518 1.02284 17.6482 1.02284 4.13846 5.15926C2.90325 5.53697 2.04167 6.73338 2.04167 8.06863V9.69788C2.04167 10.2614 1.58433 10.7187 1.02083 10.7187C0.457333 10.7187 0 10.2614 0 9.69788V8.06863C0 5.84526 1.45571 3.84647 3.53821 3.20743C17.4481 -1.04945 31.5519 -1.04945 45.4598 3.20743C47.5443 3.84443 49 5.84322 49 8.06863V9.69788C49 10.2614 48.5427 10.7187 47.9792 10.7187Z" fill="#67BC9E"/>
<path d="M29.6042 20.4167H19.3958C18.8323 20.4167 18.375 19.9594 18.375 19.3959V14.2917C18.375 10.9148 21.1231 8.16669 24.5 8.16669C27.8769 8.16669 30.625 10.9148 30.625 14.2917V19.3959C30.625 19.9594 30.1677 20.4167 29.6042 20.4167ZM20.4167 18.375H28.5833V14.2917C28.5833 12.0397 26.752 10.2084 24.5 10.2084C22.248 10.2084 20.4167 12.0397 20.4167 14.2917V18.375Z" fill="#67BC9E"/>
<path d="M39.8122 20.4167H29.6038C29.0403 20.4167 28.583 19.9594 28.583 19.3959V14.2917C28.583 10.9148 31.3311 8.16669 34.708 8.16669C38.0849 8.16669 40.833 10.9148 40.833 14.2917V19.3959C40.833 19.9594 40.3757 20.4167 39.8122 20.4167ZM30.6247 18.375H38.7913V14.2917C38.7913 12.0397 36.96 10.2084 34.708 10.2084C32.456 10.2084 30.6247 12.0397 30.6247 14.2917V18.375Z" fill="#67BC9E"/>
<path d="M35.7295 36.75H29.6045C27.916 36.75 26.542 35.376 26.542 33.6875V30.625C26.542 27.2481 29.2901 24.5 32.667 24.5C36.0439 24.5 38.792 27.2481 38.792 30.625V33.6875C38.792 35.376 37.418 36.75 35.7295 36.75ZM32.667 26.5417C30.415 26.5417 28.5837 28.373 28.5837 30.625V33.6875C28.5837 34.251 29.041 34.7083 29.6045 34.7083H35.7295C36.293 34.7083 36.7503 34.251 36.7503 33.6875V30.625C36.7503 28.373 34.919 26.5417 32.667 26.5417Z" fill="#67BC9E"/>
<path d="M45.9378 20.4166H39.8128C39.2493 20.4166 38.792 19.9593 38.792 19.3958V14.5816C38.792 12.1214 40.1109 9.86327 42.1505 8.83223C44.2228 7.78077 46.7545 8.00127 48.5961 9.39368C48.8513 9.58764 49.0003 9.88777 49.0003 10.2083V17.3541C49.0003 19.0426 47.6263 20.4166 45.9378 20.4166ZM40.8337 18.375H45.9378C46.5013 18.375 46.9586 17.9176 46.9586 17.3541V10.7575C45.9909 10.2083 44.5311 9.91431 43.0713 10.6534C41.7116 11.3414 40.8337 12.8849 40.8337 14.5816V18.375Z" fill="#67BC9E"/>
<path d="M19.3962 20.4167H9.18783C8.62433 20.4167 8.16699 19.9594 8.16699 19.3959V14.2917C8.16699 10.9148 10.9151 8.16669 14.292 8.16669C17.6689 8.16669 20.417 10.9148 20.417 14.2917V19.3959C20.417 19.9594 19.9597 20.4167 19.3962 20.4167ZM10.2087 18.375H18.3753V14.2917C18.3753 12.0397 16.544 10.2084 14.292 10.2084C12.04 10.2084 10.2087 12.0397 10.2087 14.2917V18.375Z" fill="#67BC9E"/>
<path d="M9.1875 20.4167H3.0625C1.37404 20.4167 0 19.0426 0 17.3542V10.2083C0 9.88778 0.149042 9.58766 0.40425 9.3937C2.75217 7.62153 6.33529 7.87062 8.41779 9.95516C9.57337 11.1087 10.2083 12.6502 10.2083 14.2917V19.3958C10.2083 19.9593 9.751 20.4167 9.1875 20.4167ZM2.04167 10.7555V17.3542C2.04167 17.9177 2.499 18.375 3.0625 18.375H8.16667V14.2917C8.16667 13.1953 7.74404 12.1683 6.97637 11.3986C5.70442 10.1267 3.59333 9.8592 2.04167 10.7555Z" fill="#67BC9E"/>
<path d="M19.3951 49C19.2604 49 19.1236 48.9735 18.9929 48.9163C18.4743 48.6938 18.2334 48.0935 18.456 47.577L24.581 33.2853C24.6953 33.0179 24.9199 32.8116 25.1955 32.7198L31.3205 30.6781C31.8616 30.4964 32.4332 30.7904 32.6109 31.3233C32.7885 31.8582 32.5006 32.436 31.9657 32.6136L26.2756 34.5103L20.3302 48.3793C20.1669 48.7693 19.7912 49 19.3951 49Z" fill="#F39035"/>
<path d="M11.2286 49C11.0448 49 10.857 48.951 10.6875 48.8448C10.2098 48.5467 10.0648 47.9159 10.3629 47.4381L20.5712 31.1048C20.7101 30.8802 20.9326 30.721 21.1899 30.6556L27.3353 29.1244C27.8886 28.9917 28.4378 29.3224 28.5725 29.8675C28.7073 30.4147 28.3745 30.97 27.8294 31.1048L22.0841 32.536L12.0942 48.5202C11.9003 48.8305 11.5675 49 11.2286 49Z" fill="#F39035"/>
</g>
<defs>
<clipPath id="clip0">
<rect width="49" height="49" fill="white"/>
</clipPath>
</defs>
</svg>
