<svg width="50" height="50" viewBox="0 0 50 50" fill="none" xmlns="http://www.w3.org/2000/svg">
<g clip-path="url(#clip0)">
<path d="M17.4043 41.0148C16.0521 40.5481 15.2546 39.116 14.9744 38.5219C14.8309 38.2176 14.5206 38.0209 14.1842 38.0209C13.8477 38.0209 13.5374 38.2176 13.3938 38.5219C13.3938 38.5219 13.3938 38.5219 13.3938 38.522C13.1137 39.1161 12.3161 40.548 10.964 41.0147C10.6123 41.1361 10.376 41.4678 10.376 41.8402C10.376 42.2125 10.6123 42.5443 10.964 42.6657C12.3161 43.1324 13.1137 44.5644 13.3938 45.1585C13.5374 45.4628 13.8477 45.6595 14.1842 45.6595C14.5207 45.6595 14.8309 45.4628 14.9745 45.1584C15.2546 44.5644 16.0521 43.1325 17.4043 42.6658C17.756 42.5444 17.9923 42.2126 17.9923 41.8403C17.9923 41.4679 17.756 41.1362 17.4043 41.0148ZM14.1841 43.5793C13.8058 43.003 13.2629 42.342 12.5383 41.8403C13.2629 41.3385 13.8058 40.6776 14.1841 40.1012C14.5625 40.6776 15.1053 41.3385 15.83 41.8403C15.1054 42.342 14.5624 43.003 14.1841 43.5793Z" fill="#F39035"/>
<path d="M35.5495 15.6099C34.4502 15.2304 33.7937 13.9904 33.6187 13.6197C33.4794 13.3239 33.178 13.1327 32.851 13.1326C32.8508 13.1326 32.8507 13.1326 32.8506 13.1326C32.5236 13.1326 32.2222 13.3235 32.0826 13.6192C32.0825 13.6193 32.0824 13.6194 32.0824 13.6195C31.9074 13.9904 31.2512 15.2303 30.1514 15.6099C29.8097 15.7279 29.5801 16.0503 29.5801 16.412C29.5801 16.7738 29.8097 17.0962 30.1516 17.2143C31.2512 17.5939 31.9074 18.8337 32.0826 19.205C32.2222 19.5006 32.5236 19.6915 32.8506 19.6915H32.851C33.178 19.6913 33.4794 19.5002 33.6187 19.2047C33.7937 18.8337 34.4502 17.5937 35.5495 17.2142C35.8913 17.0962 36.1211 16.7738 36.1211 16.4119C36.1211 16.0503 35.8913 15.7278 35.5495 15.6099ZM32.8506 17.6191C32.5667 17.2131 32.1895 16.7741 31.7108 16.4121C32.1895 16.0502 32.5667 15.6112 32.8506 15.2053C33.1346 15.6112 33.5117 16.0502 33.9904 16.4121C33.5117 16.7741 33.1346 17.2131 32.8506 17.6191Z" fill="#F39035"/>
<path d="M44.2822 12.8336C43.6332 12.6511 42.9551 12.4756 42.2531 12.3073C42.8624 11.6752 43.6191 11.1052 44.53 10.7908C44.9133 10.6585 45.1707 10.297 45.1707 9.89104C45.1707 9.48518 44.9133 9.12366 44.53 8.99133C42.2716 8.21184 40.9588 5.86116 40.4993 4.88694C40.3405 4.54993 40.0105 4.34055 39.6377 4.34045C39.6376 4.34045 39.6375 4.34045 39.6374 4.34045C39.2648 4.34045 38.9347 4.54973 38.7757 4.88665V4.88684C38.3162 5.86116 37.0036 8.21174 34.7449 8.99133C34.3616 9.12366 34.1042 9.48518 34.1042 9.89104C34.1042 10.297 34.3616 10.6585 34.7449 10.7908C34.9236 10.8526 35.0957 10.925 35.2626 11.0049C27.188 9.8929 19.0418 10.095 10.9937 11.6142C9.09746 11.9721 7.32246 12.3823 5.71787 12.8335C2.35127 13.7802 0 16.8948 0 20.4079V32.9118C0 34.1147 0.978516 35.0932 2.18135 35.0932H6.66455C7.06445 35.0932 7.43926 34.9845 7.76182 34.7959C8.09863 35.3 8.63359 35.6636 9.27207 35.7693C9.67148 35.835 10.0489 35.5652 10.115 35.1657C10.1812 34.7663 9.91094 34.3889 9.51152 34.3228C9.12588 34.259 8.846 33.928 8.846 33.536V25.8474C8.846 24.1012 10.2666 22.6806 12.0128 22.6806C13.759 22.6806 15.1796 24.1012 15.1796 25.8474V33.536C15.1796 33.9758 14.8218 34.3336 14.3819 34.3336H12.7704C12.3655 34.3336 12.0373 34.6618 12.0373 35.0667C12.0373 35.4716 12.3655 35.7998 12.7704 35.7998H14.3819C14.7775 35.7998 15.1497 35.6976 15.4736 35.5184C15.8961 36.3101 16.7302 36.8502 17.6884 36.8502H23.1855C23.8823 36.8502 24.5134 36.5646 24.9685 36.1044C25.4235 36.5646 26.0546 36.8502 26.7514 36.8502H32.2485C33.218 36.8502 34.0602 36.2972 34.4777 35.4903C34.8129 35.6866 35.2024 35.7997 35.6182 35.7997H40.3565C41.1391 35.7997 41.8301 35.4005 42.2368 34.7951C42.5598 34.9843 42.9351 35.0932 43.3354 35.0932H47.8187C49.0215 35.0932 50 34.1147 50 32.9118V20.4079C50 16.8948 47.6487 13.7802 44.2822 12.8336ZM39.6374 6.39485C40.2727 7.48889 41.3658 8.97786 42.9781 9.89114C41.366 10.8043 40.2728 12.2934 39.6374 13.3874C39.0022 12.2934 37.9094 10.8045 36.2967 9.89114C37.9095 8.97776 39.0022 7.48889 39.6374 6.39485ZM7.37979 32.9118C7.37979 33.3062 7.05898 33.627 6.66455 33.627H2.18135C1.78701 33.627 1.46611 33.3062 1.46611 32.9118V25.6373C1.46611 25.59 1.46729 25.5429 1.46934 25.4965C1.50117 24.8138 1.85225 24.202 2.43232 23.8178C2.80996 23.5677 3.25088 23.4392 3.69453 23.4392C3.96123 23.4392 4.229 23.4857 4.48438 23.5801C6.26709 24.2393 7.24102 25.2678 7.37969 26.6375V32.9118H7.37979ZM24.2283 34.3411C24.2283 34.9161 23.7605 35.3839 23.1855 35.3839H17.6884C17.1135 35.3839 16.6457 34.9161 16.6457 34.3411V25.4213C16.6457 23.3308 18.3465 21.63 20.437 21.63C22.5275 21.63 24.2283 23.3308 24.2283 25.4213V34.3411ZM41.1541 33.5359C41.1541 33.9757 40.7963 34.3335 40.3564 34.3335H35.6181C35.1783 34.3335 34.8205 33.9757 34.8205 33.5359V25.8473C34.8205 24.1011 36.241 22.6805 37.9872 22.6805C39.7334 22.6805 41.154 24.1011 41.154 25.8473V33.5359H41.1541ZM47.8187 33.627H43.3354C42.9411 33.627 42.6203 33.3062 42.6203 32.9118V26.6375C42.759 25.2679 43.7329 24.2393 45.5156 23.5801C46.1958 23.3286 46.963 23.4173 47.5677 23.8178C48.1478 24.202 48.4987 24.8139 48.5306 25.4961C48.5327 25.5429 48.5338 32.9119 48.5338 32.9119C48.5338 33.3062 48.213 33.627 47.8187 33.627ZM48.5338 22.7056C48.4826 22.6679 48.4309 22.6308 48.3773 22.5954C47.3843 21.9377 46.1245 21.7917 45.007 22.205C43.8146 22.646 42.8847 23.2518 42.2351 24.0004C41.5201 22.3625 39.8856 21.2144 37.9872 21.2144C36.4445 21.2144 35.0765 21.9731 34.234 23.1361C33.3822 21.3786 31.5803 20.1639 29.4999 20.1639C29.1173 20.1639 28.7355 20.2053 28.3649 20.2868C27.9695 20.3739 27.7196 20.7651 27.8067 21.1605C27.8937 21.5559 28.2843 21.8058 28.6804 21.7188C28.9475 21.6599 29.2232 21.6301 29.4999 21.6301C31.5904 21.6301 33.2912 23.3309 33.2912 25.4214V34.3412C33.2912 34.9162 32.8233 35.384 32.2484 35.384H26.7513C26.1764 35.384 25.7085 34.9162 25.7085 34.3412V25.4214C25.7085 24.6824 25.921 23.9665 26.323 23.3513C26.5444 23.0123 26.4491 22.558 26.1102 22.3366C25.7713 22.1151 25.3169 22.2105 25.0955 22.5494C25.0508 22.618 25.0083 22.6877 24.967 22.7579C24.0517 21.2073 22.3643 20.1641 20.4369 20.1641C18.3771 20.1641 16.5912 21.3554 15.7293 23.0846C14.884 21.9504 13.5327 21.2145 12.0127 21.2145C10.1144 21.2145 8.47988 22.3625 7.76494 24.0004C7.11533 23.2519 6.18545 22.646 4.99297 22.205C3.87568 21.7918 2.61582 21.9377 1.62275 22.5954C1.56924 22.6309 1.51738 22.668 1.46611 22.7057V20.4079C1.46611 17.549 3.37764 15.0147 6.11465 14.245C7.67812 13.8053 9.41113 13.4049 11.2655 13.0549C19.9629 11.4132 28.7771 11.3402 37.485 12.832C38.1247 13.6193 38.5518 14.4207 38.7756 14.8956C38.9346 15.2325 39.2647 15.4417 39.6373 15.4417H39.6376C40.0103 15.4417 40.3403 15.2323 40.4991 14.8954C40.6518 14.5719 40.899 14.0963 41.2433 13.5771C42.167 13.7875 43.0511 14.0105 43.8853 14.245C46.6224 15.0146 48.5338 17.5489 48.5338 20.4079V22.7056Z" fill="#67BC9E"/>
</g>
<defs>
<clipPath id="clip0">
<rect width="50" height="50" fill="white"/>
</clipPath>
</defs>
</svg>
