<svg width="56" height="56" viewBox="0 0 56 56" fill="none" xmlns="http://www.w3.org/2000/svg">
<g clip-path="url(#clip0)">
<path d="M4.96777 23.1116C4.97106 23.11 4.974 23.1082 4.97717 23.1067L4.96777 23.1116Z" fill="black"/>
<path d="M55.1794 10.4846C55.6327 10.4846 56 10.1173 56 9.66406V5.43332C56 3.91891 54.7678 2.6868 53.2535 2.6868H18.3598C16.8454 2.6868 15.6133 3.91902 15.6133 5.43332V22.6934C14.9105 22.9233 14.2245 23.2357 13.5615 23.6311C10.6789 21.9108 7.47655 21.8279 4.96825 23.1112C-1.62324 26.4163 -1.66513 36.9605 4.8976 42.0061C4.0961 50.0814 8.64752 55.8791 10.2115 52.1641C10.6658 51.1181 10.497 49.557 10.6541 48.2649L10.6565 48.2458C10.735 47.649 10.848 47.2152 11.0006 46.7578L11.0007 46.7579C11.7218 44.6846 14.0067 44.4758 15.2181 45.4476C17.1489 46.989 16.1406 50.3373 16.9088 52.1577H16.9087C17.0811 52.5725 17.3611 52.9434 17.7716 53.1247L17.7717 53.1246C20.1852 54.2226 22.8142 47.9353 22.2256 42.0058C25.6906 39.3552 27.49 34.8883 27.0856 30.8415H40.1607V38.9162C40.1607 39.6606 41.0785 40.0205 41.5841 39.4727L49.5514 30.8415H53.2534C54.7678 30.8415 55.9999 29.6093 55.9999 28.095V12.4152C55.9999 11.9619 55.6326 11.5946 55.1793 11.5946C54.7262 11.5946 54.3588 11.9619 54.3588 12.4152V28.0952C54.3588 28.7048 53.8629 29.2008 53.2532 29.2008C48.8837 29.2008 48.9142 29.1128 48.5892 29.4648L41.8016 36.8179V30.0213C41.8016 29.5681 41.4343 29.2008 40.981 29.2008H26.7988C26.2724 27.0824 25.1305 25.1526 23.3047 23.8116C22.4593 23.191 21.3936 24.4443 22.4113 25.1915C22.449 25.2196 22.4864 25.2487 22.5233 25.2775V25.2774C23.9778 26.424 24.7588 27.9083 25.2237 29.6644L25.2222 29.6601C26.2469 34.2279 24.1214 38.7021 20.8879 40.9507C20.6362 41.1255 20.5029 41.4261 20.5424 41.73C21.2038 46.835 19.3044 50.8403 18.4215 51.5219C18.0177 50.6526 18.4632 48.3065 17.6657 46.2007C16.1858 41.997 10.3141 42.3678 9.27939 46.7724L9.28114 46.7656C9.20763 47.0251 9.0964 47.522 9.02935 48.0329L9.02673 48.0531C8.8572 49.4539 8.99107 50.8305 8.70188 51.5203C7.81179 50.8259 5.92036 46.8258 6.58044 41.7299C6.70458 40.7729 5.586 41.0187 3.76206 38.5008C-0.968632 31.9328 2.63933 22.6426 10.0238 24.0009C12.769 24.5196 13.1428 25.8638 14.015 25.2843C15.8189 24.0867 17.9875 23.5459 20.086 24.0792C20.5247 24.1911 20.9718 23.9255 21.0833 23.4861C21.1949 23.0469 20.9295 22.6004 20.4902 22.4888C19.3627 22.2022 18.1131 22.1767 17.2539 22.3044V5.43332C17.2539 4.82377 17.7498 4.32775 18.3595 4.32775H53.2529C53.8625 4.32775 54.3585 4.82366 54.3585 5.43332V9.66406C54.3589 10.1172 54.7262 10.4846 55.1794 10.4846Z" fill="#67BC9E"/>
<path d="M48.8922 9.44312H22.4631C22.0099 9.44312 21.6426 9.8104 21.6426 10.2636C21.6426 10.7169 22.0099 11.0842 22.4631 11.0842H48.8922C49.3455 11.0842 49.7127 10.7169 49.7127 10.2636C49.7127 9.8104 49.3454 9.44312 48.8922 9.44312Z" fill="#F39035"/>
<path d="M48.8922 14.0188H22.4631C22.0099 14.0188 21.6426 14.3861 21.6426 14.8394C21.6426 15.2926 22.0099 15.6599 22.4631 15.6599H48.8922C49.3455 15.6599 49.7127 15.2926 49.7127 14.8394C49.7127 14.3862 49.3454 14.0188 48.8922 14.0188Z" fill="#F39035"/>
<path d="M48.8922 18.595H22.4631C22.0099 18.595 21.6426 18.9623 21.6426 19.4155C21.6426 19.8688 22.0099 20.2361 22.4631 20.2361H48.8922C49.3455 20.2361 49.7127 19.8688 49.7127 19.4155C49.7127 18.9623 49.3454 18.595 48.8922 18.595Z" fill="#F39035"/>
<path d="M48.8925 23.1709H28.4934C28.0401 23.1709 27.6729 23.5383 27.6729 23.9914C27.6729 24.4447 28.0401 24.812 28.4934 24.812H48.8925C49.3458 24.812 49.7131 24.4447 49.7131 23.9914C49.7131 23.5382 49.3457 23.1709 48.8925 23.1709Z" fill="#F39035"/>
</g>
<defs>
<clipPath id="clip0">
<rect width="56" height="56" fill="white"/>
</clipPath>
</defs>
</svg>
