<svg width="56" height="56" viewBox="0 0 56 56" fill="none" xmlns="http://www.w3.org/2000/svg">
<g clip-path="url(#clip0)">
<path d="M26.1729 48.7526C26.77 48.7663 27.3786 48.7742 28 48.7742V46.9677C27.3932 46.9677 26.7978 46.9598 26.2143 46.9461L26.1729 48.7526Z" fill="#F39035"/>
<path d="M5.96484 44.8614C8.81653 46.0897 14.9953 48.2198 24.3421 48.6838L24.432 46.8791C15.3693 46.4292 9.41986 44.382 6.68019 43.2031L5.96484 44.8614Z" fill="#F39035"/>
<path d="M52.3664 31.4096C52.2605 30.0115 51.1019 28.9032 49.6774 28.9032H46.0645C45.3681 28.9032 44.7388 29.1749 44.2581 29.6076C43.7773 29.174 43.148 28.9032 42.4516 28.9032H38.8387C38.0475 28.9032 37.3401 29.2499 36.8444 29.7928C36.249 29.2455 35.4618 28.9032 34.5907 28.9032H30.4415C29.4757 28.9032 28.6104 29.3213 28 29.978C27.3887 29.3213 26.5243 28.9032 25.5585 28.9032H21.4093C20.5382 28.9032 19.751 29.2455 19.1547 29.7928C18.6599 29.2499 17.9525 28.9032 17.1613 28.9032H13.5484C12.852 28.9032 12.2227 29.1749 11.7419 29.6076C11.2612 29.174 10.6319 28.9032 9.93548 28.9032H6.32258C4.89806 28.9032 3.73948 30.0115 3.63363 31.4096L0.163622 42.6884C0.0551285 43.0395 0 43.4064 0 43.7747C0 45.4802 1.17887 46.966 2.82258 47.3669C3.99042 48.0064 12.5512 52.3871 28 52.3871C43.4488 52.3871 52.0096 48.0064 53.1774 47.366C54.8211 46.966 56 45.4802 56 43.7747C56 43.4064 55.9449 43.0404 55.8364 42.6884L52.3664 31.4096ZM46.0645 30.7097H49.6774C50.1758 30.7097 50.5806 31.1145 50.5806 31.6129V35.2258C50.5806 36.7196 49.3647 37.9355 47.871 37.9355C46.3772 37.9355 45.1613 36.7196 45.1613 35.2258V31.6129C45.1613 31.1145 45.5662 30.7097 46.0645 30.7097ZM37.9355 31.6129C37.9355 31.1145 38.3403 30.7097 38.8387 30.7097H42.4516C42.95 30.7097 43.3548 31.1145 43.3548 31.6129V35.2258C43.3548 36.7196 42.1389 37.9355 40.6452 37.9355C39.1514 37.9355 37.9355 36.7196 37.9355 35.2258V31.6129ZM30.4415 30.7097H34.5907C35.4388 30.7097 36.129 31.3999 36.129 32.248C36.129 32.36 36.1162 32.4729 36.092 32.5823L34.9312 37.8036C34.6785 38.9454 33.6849 39.7419 32.5161 39.7419C31.3474 39.7419 30.3538 38.9454 30.1011 37.8036L28.9403 32.5823C28.916 32.4729 28.9032 32.36 28.9032 32.248C28.9032 31.3999 29.5934 30.7097 30.4415 30.7097ZM21.4093 30.7097H25.5585C26.4066 30.7097 27.0968 31.3999 27.0968 32.248C27.0968 32.36 27.084 32.4729 27.0597 32.5823L25.8989 37.8036C25.6462 38.9454 24.6526 39.7419 23.4839 39.7419C22.3151 39.7419 21.3215 38.9454 21.0688 37.8036L19.908 32.5823C19.8838 32.4729 19.871 32.36 19.871 32.248C19.871 31.3999 20.5612 30.7097 21.4093 30.7097ZM13.5484 30.7097H17.1613C17.6597 30.7097 18.0645 31.1145 18.0645 31.6129V35.2258C18.0645 36.7196 16.8486 37.9355 15.3548 37.9355C13.8611 37.9355 12.6452 36.7196 12.6452 35.2258V31.6129C12.6452 31.1145 13.05 30.7097 13.5484 30.7097ZM5.41935 31.6129C5.41935 31.1145 5.82422 30.7097 6.32258 30.7097H9.93548C10.4338 30.7097 10.8387 31.1145 10.8387 31.6129V35.2258C10.8387 36.7196 9.62279 37.9355 8.12903 37.9355C6.63527 37.9355 5.41935 36.7196 5.41935 35.2258V31.6129ZM52.6742 45.6283L52.5291 45.657L52.399 45.732C52.3156 45.7809 43.8325 50.5806 28 50.5806C12.216 50.5806 3.68347 45.7801 3.59923 45.7311L3.46913 45.657L3.32491 45.6283C2.44506 45.451 1.80645 44.6726 1.80645 43.7747C1.80645 43.5859 1.83424 43.3989 1.89025 43.2194L3.88855 36.7253C4.50995 38.4766 6.16734 39.7419 8.12903 39.7419C9.61133 39.7419 10.9181 39.0138 11.7419 37.9077C12.5658 39.0138 13.8725 39.7419 15.3548 39.7419C16.9681 39.7419 18.3754 38.8846 19.1746 37.6096L19.3047 38.1957C19.7426 40.1702 21.4618 41.5484 23.4839 41.5484C25.506 41.5484 27.2251 40.1702 27.6631 38.1957L28 36.6799L28.3369 38.1957C28.7749 40.1702 30.494 41.5484 32.5161 41.5484C34.5382 41.5484 36.2574 40.1702 36.6953 38.1957L36.8254 37.6096C37.6246 38.8846 39.0319 39.7419 40.6452 39.7419C42.1275 39.7419 43.4342 39.0138 44.2581 37.9077C45.0819 39.0138 46.3887 39.7419 47.871 39.7419C49.8327 39.7419 51.49 38.4766 52.1115 36.7253L54.1098 43.2194C54.1658 43.3989 54.1935 43.5859 54.1935 43.7747C54.1935 44.6726 53.5549 45.451 52.6742 45.6283Z" fill="#67BC9E"/>
<path d="M29.8281 7.24829C29.2309 7.23286 28.6214 7.2258 28 7.2258V9.03225C28.606 9.03225 29.2014 9.03931 29.7848 9.05386L29.8281 7.24829Z" fill="#F39035"/>
<path d="M50.0346 11.1386C47.1829 9.91035 41.0041 7.78018 31.6574 7.31622L31.5674 9.12003C40.6318 9.57164 46.5804 11.618 49.3192 12.7978L50.0346 11.1386Z" fill="#F39035"/>
<path d="M3.63363 24.5904C3.73948 25.9885 4.89806 27.0968 6.32258 27.0968H9.93548C10.6319 27.0968 11.2612 26.8251 11.7419 26.3925C12.2227 26.826 12.852 27.0968 13.5484 27.0968H17.1613C17.9525 27.0968 18.6599 26.7501 19.1556 26.2072C19.751 26.7545 20.5382 27.0968 21.4093 27.0968H25.5585C26.5243 27.0968 27.3896 26.6787 28 26.022C28.6113 26.6787 29.4757 27.0968 30.4415 27.0968H34.5907C35.4618 27.0968 36.249 26.7545 36.8453 26.2072C37.3401 26.7501 38.0475 27.0968 38.8387 27.0968H42.4516C43.148 27.0968 43.7773 26.8251 44.2581 26.3925C44.7388 26.826 45.3681 27.0968 46.0645 27.0968H49.6774C51.1019 27.0968 52.2605 25.9885 52.3664 24.5904L55.8364 13.3124C55.9449 12.9614 56 12.5945 56 12.2253C56 10.5199 54.8211 9.03315 53.1774 8.63314C52.0096 7.99365 43.4488 3.61292 28 3.61292C12.5512 3.61292 3.99042 7.99365 2.82258 8.63402C1.17887 9.03315 0 10.5199 0 12.2253C0 12.5945 0.0551285 12.9605 0.163622 13.3116L3.63363 24.5904ZM9.93548 25.2903H6.32258C5.82422 25.2903 5.41935 24.8846 5.41935 24.3871V20.7742C5.41935 19.2804 6.63527 18.0645 8.12903 18.0645C9.62279 18.0645 10.8387 19.2804 10.8387 20.7742V24.3871C10.8387 24.8846 10.4338 25.2903 9.93548 25.2903ZM18.0645 24.3871C18.0645 24.8846 17.6597 25.2903 17.1613 25.2903H13.5484C13.05 25.2903 12.6452 24.8846 12.6452 24.3871V20.7742C12.6452 19.2804 13.8611 18.0645 15.3548 18.0645C16.8486 18.0645 18.0645 19.2804 18.0645 20.7742V24.3871ZM25.5585 25.2903H21.4093C20.5612 25.2903 19.871 24.6001 19.871 23.752C19.871 23.6391 19.8838 23.5271 19.908 23.4177L21.0688 18.1955C21.3215 17.0546 22.3151 16.2581 23.4839 16.2581C24.6526 16.2581 25.6462 17.0546 25.8989 18.1964L27.0606 23.4199C27.084 23.528 27.0968 23.64 27.0968 23.7529C27.0968 24.6001 26.4066 25.2903 25.5585 25.2903ZM34.5907 25.2903H30.4415C29.5934 25.2903 28.9032 24.6001 28.9032 23.752C28.9032 23.6391 28.916 23.5271 28.9403 23.4177L30.1011 18.1955C30.3538 17.0546 31.3474 16.2581 32.5161 16.2581C33.6849 16.2581 34.6785 17.0546 34.9312 18.1964L36.0929 23.4199C36.1162 23.528 36.129 23.64 36.129 23.7529C36.129 24.6001 35.4388 25.2903 34.5907 25.2903ZM42.4516 25.2903H38.8387C38.3403 25.2903 37.9355 24.8846 37.9355 24.3871V20.7742C37.9355 19.2804 39.1514 18.0645 40.6452 18.0645C42.1389 18.0645 43.3548 19.2804 43.3548 20.7742V24.3871C43.3548 24.8846 42.95 25.2903 42.4516 25.2903ZM50.5806 24.3871C50.5806 24.8846 50.1758 25.2903 49.6774 25.2903H46.0645C45.5662 25.2903 45.1613 24.8846 45.1613 24.3871V20.7742C45.1613 19.2804 46.3772 18.0645 47.871 18.0645C49.3647 18.0645 50.5806 19.2804 50.5806 20.7742V24.3871ZM3.32579 10.3717L3.47089 10.343L3.601 10.268C3.68435 10.22 12.1675 5.41937 28 5.41937C43.784 5.41937 52.3165 10.22 52.4008 10.2689L52.5309 10.3439L52.6751 10.3726C53.5549 10.5481 54.1935 11.3274 54.1935 12.2253C54.1935 12.4141 54.1658 12.6011 54.1098 12.7806L52.1115 19.2747C51.49 17.5234 49.8327 16.2581 47.871 16.2581C46.3887 16.2581 45.0819 16.9862 44.2581 18.0923C43.4342 16.9862 42.1275 16.2581 40.6452 16.2581C39.0319 16.2581 37.6246 17.1154 36.8254 18.3904L36.6953 17.8043C36.2574 15.8298 34.5382 14.4516 32.5161 14.4516C30.494 14.4516 28.7749 15.8298 28.3369 17.8043L28 19.321L27.6631 17.8043C27.2251 15.8298 25.506 14.4516 23.4839 14.4516C21.4618 14.4516 19.7426 15.8298 19.3047 17.8043L19.1746 18.3904C18.3754 17.1154 16.9681 16.2581 15.3548 16.2581C13.8725 16.2581 12.5658 16.9862 11.7419 18.0923C10.9181 16.9862 9.61133 16.2581 8.12903 16.2581C6.16734 16.2581 4.51084 17.5234 3.88855 19.2747L1.89025 12.7797C1.83424 12.6011 1.80645 12.4141 1.80645 12.2253C1.80645 11.3274 2.44506 10.5481 3.32579 10.3717Z" fill="#67BC9E"/>
</g>
<defs>
<clipPath id="clip0">
<rect width="56" height="56" fill="white"/>
</clipPath>
</defs>
</svg>
