<svg width="52" height="52" viewBox="0 0 52 52" fill="none" xmlns="http://www.w3.org/2000/svg">
<path d="M50.8269 42.8502L48.6929 40.4288V35.1302C48.6929 33.826 47.635 32.7681 46.3308 32.7681H43.2073C42.5917 32.7681 42.0354 33.0052 41.6113 33.3928C41.1918 33.0052 40.6309 32.7681 40.0153 32.7681H36.8917C36.2761 32.7681 35.7198 33.0052 35.2958 33.3928C34.8762 33.0052 34.3154 32.7681 33.6998 32.7681H30.5762C29.9606 32.7681 29.4043 33.0052 28.9803 33.3928C28.5607 33.0052 27.9999 32.7681 27.3843 32.7681H24.2607C22.9566 32.7681 21.8987 33.826 21.8987 35.1302V39.9318C20.2799 39.7996 19.6506 38.9651 18.9347 38.0075C18.3282 37.1958 17.6351 36.2793 16.331 36.0011C13.9689 35.495 11.7756 35.9783 9.98811 37.3873C7.71726 39.1748 6.25352 42.3759 6.16688 45.7457C6.13496 46.9495 6.51344 48.6641 7.6671 49.8451C8.50157 50.7024 9.63243 51.1538 10.932 51.1538H46.0709C48.3645 51.1538 50.9956 50.6568 50.9956 46.7626V43.3609C51.0184 43.1739 50.95 42.9915 50.8269 42.8502ZM43.2118 34.3048H46.3354C46.7914 34.3048 47.1607 34.6742 47.1607 35.1302V39.9546H42.3865V35.1302C42.3865 34.6742 42.7558 34.3048 43.2118 34.3048ZM36.9009 34.3048H40.0244C40.4804 34.3048 40.8498 34.6742 40.8498 35.1302V39.9546H36.0755V35.1302C36.0755 34.6742 36.4449 34.3048 36.9009 34.3048ZM30.5945 34.3048H33.718C34.174 34.3048 34.5434 34.6742 34.5434 35.1302V39.9546H29.7691V35.1302C29.7646 34.6742 30.1385 34.3048 30.5945 34.3048ZM24.2835 34.3048H27.4071C27.8631 34.3048 28.2324 34.6742 28.2324 35.1302V39.9546H23.4582V35.1302C23.4582 34.6742 23.8275 34.3048 24.2835 34.3048ZM49.4817 46.7626C49.4817 48.9513 48.6883 49.6217 46.0891 49.6217H10.9503C10.0565 49.6217 9.32692 49.3389 8.78429 48.7781C7.9635 47.9345 7.69902 46.6395 7.72182 45.7913C7.79934 42.914 9.067 40.0914 10.9594 38.6003C12.0173 37.7658 13.2211 37.3463 14.548 37.3463C15.0268 37.3463 15.5193 37.401 16.03 37.5105C16.7368 37.6609 17.1335 38.1489 17.7263 38.9377C18.5836 40.0777 19.6461 41.4958 22.3866 41.4958H47.5802L49.4863 43.6573V46.7626H49.4817Z" fill="#F39035" stroke="#F39035" stroke-width="0.3"/>
<path d="M14.5936 30.1599C15.4008 29.0974 15.3232 27.9528 15.2548 26.9405C15.1728 25.7504 15.1089 24.7062 16.2443 23.5479L19.3816 27.1822C19.8467 27.7248 20.5079 27.9984 21.1736 27.9984C21.7208 27.9984 22.268 27.8115 22.7149 27.4284L25.0769 25.3902C25.5284 25.0026 25.8065 24.4645 25.8795 23.8763C25.9023 23.8763 25.9297 23.8808 25.9525 23.8808C26.4996 23.8808 27.0468 23.6939 27.4937 23.3108L29.8558 21.2725C30.3072 20.8849 30.5899 20.3469 30.6583 19.7586C30.6811 19.7586 30.7085 19.7632 30.7313 19.7632C31.2785 19.7632 31.8257 19.5762 32.2725 19.1932L34.6346 17.1549C35.086 16.7673 35.3642 16.2338 35.4326 15.6456C35.4554 15.6456 35.4827 15.6501 35.5055 15.6501C36.071 15.6501 36.6136 15.4495 37.0422 15.0756L39.4043 13.0373C39.8831 12.6269 40.1703 12.0523 40.2159 11.4231C40.2615 10.7938 40.0609 10.1828 39.6505 9.70853L36.2032 5.71403C36.2078 5.62283 36.2078 5.53163 36.2078 5.43587C36.2169 4.84308 36.2214 3.83989 36.2214 2.45823C36.2214 2.09344 35.9661 1.78336 35.615 1.70584C25.0496 -0.533088 23.1663 2.9735 21.3469 6.3661C20.5945 7.77056 19.8102 9.22518 18.3738 10.3241C16.3401 11.8745 13.9553 12.937 11.6525 13.9584C8.36477 15.4221 5.25946 16.7992 3.38532 19.4531C-1.43909 26.293 2.33654 29.8635 3.61332 30.7937C5.16826 31.9291 7.14271 32.4854 9.03509 32.4854C11.2923 32.4809 13.4354 31.692 14.5936 30.1599ZM24.0738 24.2319L21.7117 26.2702C21.3652 26.5666 20.8453 26.5301 20.5489 26.1836L17.398 22.5311L21.014 19.4121L24.165 23.0646C24.3109 23.2333 24.3793 23.4431 24.361 23.6665C24.3428 23.8854 24.2425 24.086 24.0738 24.2319ZM28.8526 20.1098L26.4905 22.148C26.144 22.4444 25.6241 22.408 25.3277 22.0614L22.1768 18.4089L25.7929 15.2899L28.9438 18.9424C29.0897 19.1111 29.1581 19.3209 29.1399 19.5443C29.1216 19.7632 29.0213 19.9638 28.8526 20.1098ZM33.6314 15.9876L31.2693 18.0259C30.9228 18.3223 30.403 18.2858 30.1066 17.9392L26.9556 14.2867L30.5717 11.1677L33.7226 14.8202C33.8685 14.9889 33.9369 15.1987 33.9187 15.4221C33.9004 15.6456 33.7955 15.8462 33.6314 15.9876ZM38.6929 11.3045C38.6747 11.5234 38.5744 11.724 38.4102 11.8699L36.0482 13.9082C35.8794 14.0542 35.6697 14.1226 35.4462 14.1043C35.2274 14.0861 35.0267 13.9858 34.8808 13.8216L31.7299 10.1691L35.3459 7.05009L38.4968 10.7026C38.6382 10.8713 38.7066 11.0856 38.6929 11.3045ZM4.52075 29.5488C1.80758 27.5652 1.85318 24.2912 4.64387 20.3332C6.27176 18.0259 9.19012 16.7263 12.2772 15.3537C14.662 14.2913 17.129 13.1969 19.3086 11.5371C21.014 10.2375 21.9123 8.56399 22.7058 7.08657C24.0418 4.59684 25.1681 2.50383 29.7372 2.50383C31.0687 2.50383 32.692 2.68167 34.6984 3.07838C34.6984 4.533 34.6893 5.24891 34.6847 5.60003L15.5832 22.066C13.5084 23.858 13.6269 25.6273 13.7227 27.0454C13.7911 28.0258 13.8093 28.6551 13.3716 29.2342C11.7619 31.3546 7.21111 31.5187 4.52075 29.5488Z" fill="#67BC9E" stroke="#67BC9E" stroke-width="0.3"/>
</svg>
