<svg width="49" height="49" viewBox="0 0 49 49" fill="none" xmlns="http://www.w3.org/2000/svg">
<g clip-path="url(#clip0)">
<path d="M47.9792 10.7187C47.4157 10.7187 46.9583 10.2614 46.9583 9.69788V8.06863C46.9583 6.73338 46.0968 5.53697 44.8636 5.15926C31.3518 1.02284 17.6482 1.02284 4.13846 5.15926C2.90325 5.53697 2.04167 6.73338 2.04167 8.06863V9.69788C2.04167 10.2614 1.58433 10.7187 1.02083 10.7187C0.457333 10.7187 0 10.2614 0 9.69788V8.06863C0 5.84526 1.45571 3.84647 3.53821 3.20743C17.4481 -1.04945 31.5519 -1.04945 45.4598 3.20743C47.5443 3.84443 49 5.84322 49 8.06863V9.69788C49 10.2614 48.5427 10.7187 47.9792 10.7187Z" fill="#67BC9E"/>
<path d="M29.6042 20.4167H19.3958C18.8323 20.4167 18.375 19.9594 18.375 19.3959V14.2917C18.375 10.9148 21.1231 8.16669 24.5 8.16669C27.8769 8.16669 30.625 10.9148 30.625 14.2917V19.3959C30.625 19.9594 30.1677 20.4167 29.6042 20.4167ZM20.4167 18.375H28.5833V14.2917C28.5833 12.0397 26.752 10.2084 24.5 10.2084C22.248 10.2084 20.4167 12.0397 20.4167 14.2917V18.375Z" fill="#67BC9E"/>
<path d="M39.8122 20.4167H29.6038C29.0403 20.4167 28.583 19.9594 28.583 19.3959V14.2917C28.583 10.9148 31.3311 8.16669 34.708 8.16669C38.0849 8.16669 40.833 10.9148 40.833 14.2917V19.3959C40.833 19.9594 40.3757 20.4167 39.8122 20.4167ZM30.6247 18.375H38.7913V14.2917C38.7913 12.0397 36.96 10.2084 34.708 10.2084C32.456 10.2084 30.6247 12.0397 30.6247 14.2917V18.375Z" fill="#67BC9E"/>
<path d="M24.5215 34.25H18.3965C16.708 34.25 15.334 32.876 15.334 31.1875V28.125C15.334 24.7481 18.0821 22 21.459 22C24.8359 22 27.584 24.7481 27.584 28.125V31.1875C27.584 32.876 26.2099 34.25 24.5215 34.25ZM21.459 24.0417C19.207 24.0417 17.3757 25.873 17.3757 28.125V31.1875C17.3757 31.751 17.833 32.2083 18.3965 32.2083H24.5215C25.085 32.2083 25.5423 31.751 25.5423 31.1875V28.125C25.5423 25.873 23.7109 24.0417 21.459 24.0417Z" fill="#67BC9E"/>
<path d="M45.9378 20.4166H39.8128C39.2493 20.4166 38.792 19.9593 38.792 19.3958V14.5816C38.792 12.1214 40.1109 9.86327 42.1505 8.83223C44.2228 7.78077 46.7545 8.00127 48.5961 9.39368C48.8513 9.58764 49.0003 9.88777 49.0003 10.2083V17.3541C49.0003 19.0426 47.6263 20.4166 45.9378 20.4166ZM40.8337 18.375H45.9378C46.5013 18.375 46.9586 17.9176 46.9586 17.3541V10.7575C45.9909 10.2083 44.5311 9.91431 43.0713 10.6534C41.7116 11.3414 40.8337 12.8849 40.8337 14.5816V18.375Z" fill="#67BC9E"/>
<path d="M19.3962 20.4167H9.18783C8.62433 20.4167 8.16699 19.9594 8.16699 19.3959V14.2917C8.16699 10.9148 10.9151 8.16669 14.292 8.16669C17.6689 8.16669 20.417 10.9148 20.417 14.2917V19.3959C20.417 19.9594 19.9597 20.4167 19.3962 20.4167ZM10.2087 18.375H18.3753V14.2917C18.3753 12.0397 16.544 10.2084 14.292 10.2084C12.04 10.2084 10.2087 12.0397 10.2087 14.2917V18.375Z" fill="#67BC9E"/>
<path d="M9.1875 20.4167H3.0625C1.37404 20.4167 0 19.0426 0 17.3542V10.2083C0 9.88778 0.149042 9.58766 0.40425 9.3937C2.75217 7.62153 6.33529 7.87062 8.41779 9.95516C9.57337 11.1087 10.2083 12.6502 10.2083 14.2917V19.3958C10.2083 19.9593 9.751 20.4167 9.1875 20.4167ZM2.04167 10.7555V17.3542C2.04167 17.9177 2.499 18.375 3.0625 18.375H8.16667V14.2917C8.16667 13.1953 7.74404 12.1683 6.97637 11.3986C5.70442 10.1267 3.59333 9.8592 2.04167 10.7555Z" fill="#67BC9E"/>
<path d="M8.18713 46.5C8.05238 46.5 7.91559 46.4735 7.78492 46.4163C7.26634 46.1938 7.02542 45.5935 7.24796 45.077L13.373 30.7853C13.4873 30.5179 13.7119 30.3116 13.9875 30.2198L20.1125 28.1781C20.6536 27.9964 21.2252 28.2904 21.4028 28.8233C21.5805 29.3582 21.2926 29.936 20.7577 30.1136L15.0675 32.0103L9.12221 45.8793C8.95888 46.2693 8.58321 46.5 8.18713 46.5Z" fill="#F39035"/>
<path d="M0.0205669 46.5C-0.163183 46.5 -0.351016 46.451 -0.520474 46.3448C-0.998225 46.0467 -1.14318 45.4159 -0.845099 44.9381L9.36323 28.6048C9.50207 28.3802 9.72461 28.221 9.98186 28.1556L16.1273 26.6244C16.6806 26.4917 17.2298 26.8224 17.3645 27.3675C17.4993 27.9147 17.1665 28.47 16.6214 28.6048L10.8761 30.036L0.886233 46.0202C0.692275 46.3305 0.359484 46.5 0.0205669 46.5Z" fill="#F39035"/>
</g>
<path d="M39.8651 28.403V26.7723H40.6095C41.0989 26.7723 41.4956 26.3755 41.4956 25.8861C41.4956 25.3968 41.0989 25 40.6095 25H36.3915C35.9021 25 35.5053 25.3968 35.5053 25.8861C35.5053 26.3755 35.9021 26.7723 36.3915 26.7723H37.1358V28.403C32.9009 29.0612 29.6494 32.7324 29.6494 37.1489C29.6494 42.0294 33.62 45.9999 38.5005 45.9999C43.3809 45.9999 47.3516 42.0293 47.3516 37.1489C47.3516 32.7324 44.1001 29.0612 39.8651 28.403ZM38.5005 44.2277C34.5972 44.2277 31.4217 41.0521 31.4217 37.1489C31.4217 33.2457 34.5973 30.0701 38.5005 30.0701C42.4037 30.0701 45.5793 33.2457 45.5793 37.1489C45.5793 41.0521 42.4038 44.2277 38.5005 44.2277Z" fill="#67BC9E"/>
<path d="M39.3865 36.7807V32.606C39.3865 32.1166 38.9898 31.7198 38.5004 31.7198C38.011 31.7198 37.6143 32.1166 37.6143 32.606V37.2919C37.6143 37.436 37.6717 37.5742 37.7738 37.6759L40.2528 40.1444C40.5996 40.4898 41.1606 40.4885 41.506 40.1418C41.8513 39.795 41.8501 39.2339 41.5034 38.8886L39.3865 36.7807Z" fill="#F39035"/>
<defs>
<clipPath id="clip0">
<rect width="49" height="49" fill="white"/>
</clipPath>
</defs>
</svg>
