<svg width="52" height="52" viewBox="0 0 52 52" fill="none" xmlns="http://www.w3.org/2000/svg">
<g clip-path="url(#clip0)">
<path d="M0.938716 39.8568H6.85197C7.027 40.4506 7.15295 41.0579 7.22902 41.6725C7.40936 43.7099 7.75205 45.7292 8.25423 47.7122C8.65826 49.2101 9.4103 51.9999 11.9061 51.9999C12.6323 51.9999 14.8455 51.9999 16.2944 41.6075C16.5753 39.6192 17.3723 39.4005 17.7935 39.3444C18.2127 39.3996 19.0134 39.6156 19.2952 41.6059C20.7424 51.9999 22.9564 51.9999 23.6843 51.9999C26.1793 51.9999 26.9317 49.2101 27.3337 47.7179C27.8338 45.7325 28.1773 43.7107 28.3605 41.6717C28.4362 41.0575 28.5621 40.4506 28.7368 39.8568H51.0812C51.5588 39.8568 51.9457 39.47 51.9457 38.9923C51.9457 38.5151 51.5588 38.1278 51.0812 38.1278H38.4004L39.6243 33.5461C39.8452 33.6042 40.0725 33.6332 40.3007 33.6324C41.4728 33.6299 42.4976 32.8419 42.8006 31.7095L43.068 30.713C44.1648 30.6463 45.0931 29.8804 45.3667 28.8159L49.2103 14.465C50.4694 14.3685 51.475 13.378 51.5903 12.121C51.706 10.8635 50.8976 9.70658 49.6773 9.3823L48.0068 8.93533L48.6787 6.42853C50.0633 6.79903 51.4864 5.97706 51.8569 4.59239C52.2278 3.20773 51.4059 1.78503 50.0212 1.41412L45.0121 0.0887494C43.6295 -0.28134 42.208 0.538991 41.8367 1.92161C41.6584 2.58614 41.7516 3.29401 42.0956 3.88984C42.4395 4.48566 43.0059 4.92077 43.6704 5.09866L42.9989 7.60587L41.3284 7.15808C40.1081 6.82316 38.8249 7.42021 38.2949 8.56933C37.7653 9.71844 38.1444 11.0823 39.1913 11.7926L35.3468 26.1353C35.0561 27.1949 35.4736 28.3215 36.3843 28.9361L36.1251 29.9225C35.9468 30.587 36.0396 31.2949 36.3835 31.8907C36.727 32.4865 37.2934 32.9216 37.9575 33.0999L36.6117 38.1278H29.3428C29.5424 37.6637 29.7636 37.1934 30.0221 36.7101C30.3189 36.1523 30.6436 35.6166 30.9679 35.0812C31.6116 34.0822 32.1673 33.0296 32.6286 31.9345C34.1998 27.9301 34.6173 22.4463 31.0906 19.066C27.6821 15.7928 21.6527 15.671 17.7944 18.6595C13.9352 15.671 7.90499 15.7936 4.49894 19.0652C0.968977 22.4463 1.3865 27.9301 2.9601 31.9353C3.42261 33.0308 3.97918 34.0843 4.62326 35.0837C4.94673 35.6182 5.27183 36.1535 5.5675 36.7101C5.82676 37.1934 6.04718 37.6608 6.24593 38.1278H0.938716C0.461484 38.1278 0.0742188 38.5151 0.0742188 38.9923C0.0742188 39.47 0.461484 39.8568 0.938716 39.8568ZM43.5927 3.02207C43.4385 2.75503 43.4381 2.42584 43.5923 2.15839C43.746 1.89094 44.0311 1.72614 44.3394 1.72532C44.4159 1.72532 44.4915 1.73514 44.5651 1.75477L49.5796 3.09731C49.8777 3.17747 50.1108 3.41056 50.1905 3.70909C50.2703 4.00761 50.1848 4.32618 49.9664 4.54455C49.7476 4.76251 49.4291 4.84798 49.131 4.76783L48.2955 4.54373L44.9524 3.64897L44.1174 3.42487C43.8957 3.36599 43.7068 3.22122 43.5927 3.02207ZM47.0102 5.99015L46.3391 8.49735L44.669 8.05038L45.3397 5.54318L47.0102 5.99015ZM43.6982 28.3726C43.6397 28.5947 43.4945 28.784 43.2954 28.8981C43.0966 29.013 42.8607 29.0441 42.639 28.9848L37.625 27.6422C37.4034 27.5825 37.2145 27.4378 37.1 27.239C36.9851 27.0407 36.9544 26.8043 37.0137 26.5831L37.2374 25.748L38.9079 26.1958C38.9811 26.215 39.0567 26.2253 39.1324 26.2253C39.5663 26.2244 39.9323 25.9026 39.9883 25.4728C40.0447 25.0426 39.7736 24.6378 39.3549 24.5253L37.6856 24.0783L38.1325 22.4074L39.8026 22.8552C39.8758 22.8748 39.9515 22.8851 40.0276 22.8855C40.4623 22.8867 40.8307 22.5649 40.8876 22.1334C40.944 21.702 40.6712 21.2959 40.2504 21.1851L38.5803 20.7381L39.0281 19.0676L40.6974 19.5146C40.7706 19.535 40.8463 19.5448 40.9223 19.5448C41.3558 19.5448 41.7226 19.223 41.779 18.7928C41.8355 18.3626 41.5644 17.9573 41.1452 17.8453L39.4751 17.3975L39.9229 15.7274L41.5922 16.1752C41.6654 16.1948 41.741 16.205 41.8171 16.2054C42.2522 16.2067 42.6202 15.8844 42.6771 15.453C42.7335 15.022 42.4608 14.6155 42.04 14.5047L40.3698 14.0569L40.8176 12.3868L44.1648 13.2815L47.5013 14.1804L43.6982 28.3726ZM39.8227 9.43955C39.9229 9.06169 40.2643 8.79833 40.6549 8.7971C40.7313 8.79751 40.807 8.80774 40.8806 8.82737L49.2311 11.0647C49.5309 11.1436 49.7652 11.3767 49.8462 11.6756C49.9268 11.975 49.8413 12.2944 49.6221 12.5131C49.4029 12.7319 49.0831 12.8166 48.7842 12.7352L40.4336 10.4979C39.9728 10.374 39.6992 9.90042 39.8227 9.43955ZM37.7927 30.3707L38.0164 29.536L41.3562 30.4337L41.1321 31.2687C41.0086 31.7296 40.5351 32.0032 40.0742 31.8801L38.4037 31.4323C38.1824 31.3726 37.9935 31.2278 37.879 31.0291C37.7641 30.8307 37.733 30.5948 37.7927 30.3731V30.3707ZM4.56969 31.3035C3.20383 27.8201 2.7818 23.1042 5.69386 20.3136C8.6055 17.5226 14.0926 17.5684 17.21 20.4155C17.2186 20.4232 17.23 20.4249 17.2394 20.4326C17.2488 20.4404 17.2525 20.4527 17.2627 20.4596C17.2983 20.4883 20.8393 23.2674 21.7202 26.2682C21.8285 26.6371 22.1676 26.8902 22.552 26.889C22.6342 26.889 22.7159 26.8771 22.7949 26.8538C23.0149 26.7892 23.2005 26.6399 23.3105 26.4387C23.4205 26.2375 23.4463 26.0008 23.3817 25.7808C22.6264 23.2069 20.3887 20.9152 19.1569 19.8025C22.3442 17.5844 27.211 17.739 29.8945 20.3145C32.8069 23.1042 32.3849 27.8201 31.0182 31.3027C30.5913 32.3054 30.0789 33.2701 29.4872 34.1857C29.1473 34.7476 28.8059 35.3094 28.4947 35.8967C27.5263 37.6195 26.8969 39.5121 26.6401 41.4717C26.4659 43.4228 26.1396 45.3571 25.664 47.2574C25.2718 48.7132 24.7635 50.2668 23.6835 50.2668C23.2063 50.2104 21.9242 47.9608 21.0037 41.3621C20.6786 39.0651 19.6305 37.8036 17.8913 37.6101C17.8577 37.6109 17.8246 37.6142 17.7919 37.6195C17.758 37.6142 17.7232 37.6109 17.6889 37.6101C15.9488 37.8036 14.9015 39.066 14.5768 41.3638C13.6575 47.9575 12.3755 50.2095 11.9011 50.2684C10.8203 50.2684 10.3112 48.7124 9.91779 47.2529C9.43933 45.3558 9.113 43.4236 8.94247 41.4746C8.68525 39.5146 8.05589 37.622 7.08834 35.8983C6.77714 35.3139 6.43649 34.7512 6.09666 34.1889C5.50657 33.2721 4.9958 32.307 4.56969 31.3035Z" fill="#67BC9E"/>
<path d="M8.99284 22.1706C9.39605 21.9338 9.53795 21.4194 9.31304 21.0092C9.08853 20.5995 8.57817 20.4424 8.16187 20.6551C5.9262 21.9506 4.78772 24.5457 5.34878 27.0681C5.43343 27.4688 5.78798 27.7551 6.19774 27.7535C6.25826 27.7535 6.31838 27.7473 6.37767 27.7355C6.60218 27.688 6.79847 27.5535 6.92361 27.3613C7.04915 27.1687 7.0925 26.9348 7.04506 26.7102C6.64307 24.9346 7.42905 23.1026 8.99284 22.1706Z" fill="#F39035"/>
</g>
<defs>
<clipPath id="clip0">
<rect width="52" height="52" fill="white"/>
</clipPath>
</defs>
</svg>
