<svg width="164" height="37" viewBox="0 0 164 37" fill="none" xmlns="http://www.w3.org/2000/svg">
<path fill-rule="evenodd" clip-rule="evenodd" d="M20.7806 30.4188C20.6806 30.1188 20.5806 29.6188 20.5806 29.1188C20.6806 28.2188 20.8806 27.5188 21.0806 26.5188C21.2806 25.9188 21.2806 25.1188 20.9806 24.3188V22.5188C20.9806 22.6188 21.2806 23.1188 21.8806 24.0188C22.0806 24.2188 22.2806 24.6188 22.3806 25.2188C22.4806 25.6188 22.6806 26.3188 23.1806 27.2188C23.3806 27.5188 23.4806 28.0188 23.5806 28.6188C23.6806 28.9188 23.8806 29.4188 24.1806 29.9188C24.2806 30.0188 24.6806 30.0188 24.9806 29.8188C25.0806 29.7188 25.2806 29.6188 25.4806 29.5188C25.5806 29.4188 25.5806 29.3188 25.4806 29.1188C25.1806 29.1188 24.7806 28.7188 24.3806 28.0188C24.3806 27.8188 24.1806 26.9188 23.8806 25.5188C23.8806 24.7188 23.5806 23.9188 22.9806 23.3188L22.3806 21.8188C22.2806 20.6188 21.9806 19.5188 21.3806 18.6188C21.2806 18.5188 21.0806 18.0188 20.7806 17.1188C20.4806 16.1188 20.4806 15.2188 20.6806 14.2188C20.9806 13.5188 21.1806 12.9188 21.3806 12.4188C22.0806 12.3188 22.8806 12.3188 23.8806 12.3188C24.3806 12.4188 25.0806 12.4188 25.8806 12.3188C26.2806 12.2188 26.7806 12.2188 27.3806 12.3188C27.4806 12.4188 27.5806 12.5188 27.7806 12.6188C27.8806 12.6188 28.1806 12.6188 28.7806 12.6188C28.7806 12.6188 28.8806 12.6188 28.8806 12.5188C28.8806 12.4188 28.6806 12.4188 28.4806 12.4188C28.3806 12.4188 28.3806 12.3188 28.3806 12.3188H29.8806V12.2188C29.6806 12.0188 28.9806 11.9188 27.5806 11.9188C26.7806 11.8188 25.9806 11.7188 24.8806 11.4188C24.5806 11.3188 23.8806 11.2188 22.6806 11.3188C22.8806 11.0188 23.2806 10.7188 23.8806 10.4188C24.5806 10.2188 24.9806 10.0188 25.2806 9.61876C25.6806 9.31876 26.1806 9.01877 26.7806 8.81877C26.8806 8.91877 27.0806 8.91877 27.3806 8.81877C27.6806 8.81877 27.9806 8.71876 28.2806 8.51876C28.2806 8.31876 28.1806 8.31876 27.9806 8.41876C27.8806 8.41876 27.7806 8.41876 27.6806 8.41876C27.6806 8.31876 28.0806 8.11876 28.6806 7.91876C28.7806 7.91876 28.7806 7.81877 28.8806 7.81877C28.9806 7.71877 28.9806 7.71876 29.0806 7.61876C28.9806 7.51876 28.8806 7.51876 28.6806 7.61876C28.4806 7.71876 28.2806 7.71876 27.9806 7.91876L26.8806 8.31877C26.7806 8.31877 26.0806 8.61876 24.8806 9.01876C24.0806 9.11876 23.4806 9.41877 22.9806 9.81877C22.9806 9.91877 22.8806 9.91876 22.7806 10.0188C22.3806 10.1188 22.0806 10.3188 21.8806 10.5188H21.2806C20.9806 10.5188 20.6806 10.7188 20.4806 11.0188C20.4806 11.0188 20.3806 11.1188 20.2806 11.0188C20.0806 10.8188 19.8806 10.7188 19.4806 10.5188V9.71877C19.6806 9.61877 19.7806 9.51876 19.7806 9.41876V8.81877C19.7806 8.71877 19.6806 8.71877 19.5806 8.71877V8.01876C19.5806 7.81876 19.3806 7.61876 19.1806 7.41876C18.9806 7.31876 18.7806 7.21877 18.3806 7.31877C17.9806 7.41877 17.7806 7.61876 17.6806 8.01876V8.71877C17.5806 8.71877 17.5806 8.71877 17.5806 8.71877V9.31877C17.5806 9.41877 17.6806 9.61876 17.8806 9.61876V10.5188C17.6806 10.5188 17.4806 10.7188 17.0806 11.0188H16.9806C16.5806 10.6188 16.0806 10.4188 15.5806 10.5188C15.1806 10.2188 14.8806 10.0188 14.4806 10.0188C14.0806 9.51876 13.2806 9.21876 12.1806 9.01876C11.8806 8.91876 11.2806 8.71877 10.2806 8.31877C9.8806 8.21877 9.3806 8.01876 8.6806 7.61876C8.4806 7.51876 8.3806 7.51876 8.2806 7.61876C8.2806 7.81876 8.4806 7.91876 8.9806 8.01876C9.0806 8.01876 9.1806 8.11877 9.4806 8.31877C9.5806 8.31877 9.6806 8.41876 9.5806 8.51876C9.5806 8.51876 9.3806 8.51876 9.1806 8.41876C9.0806 8.41876 8.9806 8.41876 8.9806 8.51876C8.9806 8.61876 9.3806 8.81876 9.9806 8.91876C10.1806 8.91876 10.3806 8.91877 10.5806 8.81877C10.6806 8.81877 11.2806 9.21876 12.5806 10.0188C12.8806 10.3188 13.1806 10.4188 13.5806 10.4188C13.9806 10.6188 14.3806 10.9188 14.7806 11.3188C14.4806 11.3188 13.8806 11.3188 12.9806 11.4188C12.6806 11.4188 12.1806 11.5188 11.5806 11.7188C11.4806 11.8188 10.9806 11.8188 9.9806 12.0188C9.5806 12.0188 8.8806 12.1188 7.8806 12.3188C7.7806 12.3188 7.6806 12.4188 7.6806 12.5188C7.8806 12.6188 8.4806 12.6188 9.2806 12.5188C9.3806 12.6188 9.2806 12.6188 9.0806 12.6188C8.8806 12.6188 8.8806 12.7188 8.8806 12.8188C8.8806 12.9188 9.0806 12.9188 9.3806 12.9188C9.8806 12.9188 10.1806 12.8188 10.2806 12.6188C10.4806 12.5188 10.7806 12.5188 11.3806 12.6188C12.1806 12.7188 12.9806 12.7188 13.6806 12.6188C13.6806 12.5188 14.6806 12.6188 16.3806 12.7188C16.3806 12.9188 16.5806 13.6188 17.0806 14.6188C17.1806 15.2188 17.6806 16.3188 16.7806 18.0188L16.0806 19.1188C15.9806 19.3188 15.5806 20.2188 15.0806 22.0188C14.9806 22.3188 14.7806 23.1188 14.2806 24.1188C14.0806 24.5188 13.8806 25.1188 13.7806 25.9188C13.6806 26.4188 13.5806 27.1188 13.4806 28.1188C13.3806 28.2188 13.2806 28.4188 13.1806 28.6188C12.9806 28.8188 12.7806 29.0188 12.3806 29.2188C12.2806 29.2188 12.1806 29.3188 12.2806 29.5188C12.2806 29.6188 12.4806 29.7188 12.7806 29.8188C12.8806 29.9188 13.1806 30.0188 13.5806 30.0188C13.5806 30.0188 13.5806 29.9188 13.6806 29.8188C13.7806 29.7188 13.9806 29.4188 14.1806 28.9188C14.2806 28.8188 14.2806 28.5188 14.3806 28.1188C14.4806 27.6188 14.5806 27.0188 14.8806 26.4188C15.1806 26.0188 15.3806 25.3188 15.5806 24.3188C15.9806 23.7188 16.3806 23.1188 16.7806 22.4188C16.8806 22.5188 16.7806 23.2188 16.6806 24.8188C16.6806 25.2188 16.5806 25.7188 16.6806 26.2188L17.1806 28.5188C17.2806 28.7188 17.2806 29.0188 17.2806 29.5188C17.2806 29.7188 17.1806 29.9188 17.1806 30.2188C17.1806 30.2188 17.0806 30.3188 16.8806 30.5188C16.7806 30.6188 16.7806 30.7188 16.6806 30.9188H18.0806L18.1806 29.4188C17.9806 29.1188 17.8806 27.2188 17.9806 26.8188C18.0806 26.2188 18.0806 25.7188 17.9806 25.2188C18.0806 24.6188 17.9806 24.0188 18.2806 23.3188C18.2806 23.2188 18.2806 22.8188 18.3806 21.6188C18.4806 21.4188 18.6806 20.8188 18.7806 19.9188L18.8806 19.1188L18.9806 19.9188C18.9806 20.6188 19.1806 21.3188 19.2806 21.6188L19.3806 23.3188C19.5806 23.8188 19.5806 24.4188 19.6806 25.2188C19.5806 25.6188 19.5806 26.1188 19.6806 26.8188C19.6806 27.0188 19.8806 27.6188 19.8806 28.8188C19.8806 29.0188 19.7806 29.2188 19.6806 29.5188C19.6806 29.5188 19.6806 30.0188 19.6806 31.0188H20.8806H21.0806C20.9806 30.8188 20.9806 30.6188 20.7806 30.4188Z" fill="white"/>
<path fill-rule="evenodd" clip-rule="evenodd" d="M53.4806 24.7187L53.3806 26.4187H42.9806C43.0806 24.1187 43.1806 21.6188 43.1806 18.8188C43.1806 16.2188 43.0806 13.9187 42.9806 11.9187H52.7806L52.6806 13.6187C50.2806 13.5187 47.7806 13.5188 45.1806 13.5188C45.2806 14.7188 45.2806 16.2187 45.2806 18.2187C47.5806 18.2187 49.5806 18.2187 51.3806 18.1187V19.8188C49.4806 19.7188 47.4806 19.7187 45.2806 19.7187C45.2806 21.6187 45.2806 23.4187 45.3806 25.1187C48.1806 24.9187 50.8806 24.8187 53.4806 24.7187ZM68.5806 22.0188C68.5806 23.4188 67.8806 24.6188 66.4806 25.3188C65.0806 26.1188 63.1806 26.5188 60.7806 26.5188C60.0806 26.5188 58.7806 26.5187 56.8806 26.4187C56.9806 24.1187 57.0806 21.6188 57.0806 18.8188C57.0806 16.2188 56.9806 13.9187 56.8806 11.9187H58.3806C58.6806 11.9187 59.2806 11.9187 60.1806 11.9187C61.0806 11.9187 61.7806 11.9187 62.1806 11.9187C65.7806 11.9187 67.5806 13.0187 67.5806 15.1187C67.5806 16.8187 66.7806 17.9187 65.0806 18.4187V18.5188C67.3806 18.8188 68.5806 20.0188 68.5806 22.0188ZM66.3806 22.2187C66.3806 20.4187 64.4806 19.5188 60.7806 19.5188C60.0806 19.5188 59.4806 19.5187 58.9806 19.6187C58.9806 21.6187 58.9806 23.4187 59.0806 24.9187C59.3806 25.0187 59.9806 25.0188 60.7806 25.0188C62.8806 25.0188 64.2806 24.8188 65.1806 24.3188C65.9806 23.8188 66.3806 23.1187 66.3806 22.2187ZM65.2806 15.6187C65.2806 14.1187 64.0806 13.3188 61.6806 13.3188C60.4806 13.3188 59.4806 13.4188 58.7806 13.5188C58.8806 14.0188 58.8806 15.5188 58.8806 18.0188C59.2806 18.0188 59.7806 18.0188 60.2806 18.0188C61.9806 18.0188 63.1806 17.8188 63.9806 17.5188C64.8806 17.1188 65.2806 16.5187 65.2806 15.6187ZM83.5806 15.5188C83.5806 17.2188 82.8806 18.5188 81.3806 19.3188C79.8806 20.1188 77.8806 20.6187 75.3806 20.6187C75.0806 20.6187 74.7806 20.6187 74.5806 20.6187C74.5806 22.2188 74.6806 24.2188 74.7806 26.5188H72.2806C72.3806 24.4188 72.4806 21.8187 72.4806 18.9187C72.4806 16.3187 72.3806 14.0187 72.2806 12.0187H74.0806C74.2806 12.0187 74.8806 12.0187 75.7806 12.0187C76.6806 12.0187 77.4806 12.0187 78.1806 12.0187C79.8806 12.0187 81.1806 12.3188 82.0806 13.0188C83.0806 13.4188 83.5806 14.3188 83.5806 15.5188ZM81.3806 16.1187C81.3806 14.2187 79.8806 13.2187 76.8806 13.2187C76.1806 13.2187 75.2806 13.3187 74.3806 13.4187C74.4806 14.6187 74.4806 16.5187 74.4806 19.1187C74.7806 19.1187 75.1806 19.1187 75.5806 19.1187C79.4806 19.1187 81.3806 18.1187 81.3806 16.1187ZM101.481 18.9187C101.481 21.3187 100.681 23.2187 99.0806 24.7187C97.4806 26.1187 95.5806 26.9187 93.4806 26.9187C91.4806 26.9187 89.6806 26.2187 88.0806 24.9187C86.5806 23.6187 85.7806 21.8187 85.7806 19.6187C85.7806 17.2187 86.5806 15.2188 88.1806 13.8188C89.7806 12.4188 91.6806 11.7188 93.7806 11.7188C95.7806 11.7188 97.5806 12.4187 99.1806 13.7187C100.681 14.9187 101.481 16.7187 101.481 18.9187ZM99.1806 19.2187C99.1806 17.3187 98.5806 15.8187 97.4806 14.7187C96.2806 13.7187 94.9806 13.1187 93.4806 13.1187C92.0806 13.1187 90.7806 13.7188 89.6806 14.8188C88.5806 15.9188 87.9806 17.4187 87.9806 19.2187C87.9806 21.1187 88.5806 22.6187 89.7806 23.7187C90.9806 24.8187 92.2806 25.3188 93.7806 25.3188C95.1806 25.3188 96.4806 24.7188 97.5806 23.6187C98.5806 22.5187 99.1806 21.0187 99.1806 19.2187ZM118.481 18.6187C118.481 20.7188 117.681 22.6187 116.181 24.2187C114.581 25.8187 112.481 26.6187 109.681 26.6187C108.781 26.6187 107.281 26.5187 105.181 26.4187C105.281 24.1187 105.381 21.6188 105.381 18.8188C105.381 16.2188 105.281 13.9187 105.181 11.9187H106.581C106.881 11.9187 107.481 11.9187 108.181 11.9187C108.881 11.9187 109.381 11.9187 109.581 11.9187C112.581 11.9187 114.881 12.5188 116.281 13.8188C117.681 15.0188 118.481 16.6187 118.481 18.6187ZM116.181 19.1187C116.181 17.4187 115.581 16.1188 114.381 15.0188C113.181 13.9188 111.281 13.3188 108.781 13.3188C108.381 13.3188 107.881 13.3187 107.281 13.4187C107.381 15.1187 107.381 16.9187 107.381 18.7187C107.381 20.7187 107.381 22.7188 107.481 24.8188C108.181 24.9188 108.881 25.0188 109.481 25.0188C111.781 25.0188 113.481 24.4188 114.581 23.3188C115.681 22.1188 116.181 20.7188 116.181 19.1187ZM132.681 24.7187L132.581 26.4187H122.181C122.281 24.1187 122.381 21.6188 122.381 18.8188C122.381 16.2188 122.281 13.9187 122.181 11.9187H131.981L131.881 13.6187C129.481 13.5187 126.981 13.5188 124.381 13.5188C124.481 14.7188 124.481 16.2187 124.481 18.2187C126.781 18.2187 128.781 18.2187 130.581 18.1187V19.8188C128.681 19.7188 126.681 19.7187 124.481 19.7187C124.481 21.6187 124.481 23.4187 124.581 25.1187C127.381 24.9187 130.081 24.8187 132.681 24.7187ZM148.281 26.4187H145.881C145.981 23.8187 145.981 21.5188 145.981 19.5188H138.281C138.281 21.1188 138.281 23.5187 138.381 26.4187H135.981C136.081 23.7187 136.181 21.1188 136.181 18.8188C136.181 16.3188 136.081 14.0187 135.981 11.9187H138.381C138.281 14.0187 138.181 16.1187 138.181 18.1187H145.981C145.981 16.5187 145.881 14.4187 145.781 11.9187H148.181C148.081 14.0187 147.981 16.3188 147.981 18.8188C148.081 21.5188 148.181 24.1187 148.281 26.4187ZM163.881 11.9187L163.781 13.5188C162.081 13.4188 160.281 13.4187 158.481 13.4187C158.481 14.8187 158.481 16.6188 158.481 18.8188C158.481 21.2188 158.481 23.8187 158.581 26.4187H156.181C156.281 23.9187 156.381 21.3188 156.381 18.8188C156.381 16.6188 156.381 14.8187 156.281 13.4187C154.981 13.4187 153.181 13.4188 150.881 13.5188L150.981 11.9187H163.881Z" fill="white"/>
<path fill-rule="evenodd" clip-rule="evenodd" d="M46.2806 34.2186V34.6186C45.9806 34.7186 45.7806 34.7186 45.4806 34.7186C44.7806 34.7186 44.2806 34.5186 43.8806 34.1186C43.4806 33.7186 43.3806 33.3186 43.3806 32.7186C43.3806 32.1186 43.5806 31.6186 43.9806 31.2186C44.3806 30.8186 44.8806 30.6186 45.5806 30.6186C45.7806 30.6186 45.9806 30.6186 46.1806 30.7186L46.0806 31.2186C45.6806 31.2186 45.4806 31.1186 45.2806 31.1186C44.7806 31.1186 44.3806 31.3186 44.1806 31.6186C43.8806 31.9186 43.7806 32.3186 43.7806 32.7186C43.7806 33.1186 43.8806 33.5186 44.1806 33.8186C44.4806 34.1186 44.8806 34.3186 45.3806 34.3186C45.6806 34.3186 45.9806 34.3186 46.2806 34.2186ZM50.9806 30.7186V31.1186C50.5806 31.1186 50.1806 31.1186 49.6806 31.1186C49.6806 31.5186 49.6806 32.0186 49.6806 32.6186C49.6806 33.3186 49.6806 33.9186 49.6806 34.7186H49.0806C49.0806 34.0186 49.0806 33.3186 49.0806 32.6186C49.0806 32.0186 49.0806 31.5186 49.0806 31.1186C48.7806 31.1186 48.3806 31.1186 47.7806 31.1186V30.7186H50.9806ZM56.5806 32.6186C56.5806 33.2186 56.3806 33.8186 55.9806 34.2186C55.5806 34.6186 55.1806 34.8186 54.5806 34.8186C54.0806 34.8186 53.6806 34.6186 53.2806 34.3186C52.8806 33.9186 52.6806 33.5186 52.6806 32.9186C52.6806 32.2186 52.8806 31.7186 53.2806 31.3186C53.6806 30.9186 54.0806 30.7186 54.6806 30.7186C55.1806 30.7186 55.5806 30.9186 55.9806 31.2186C56.3806 31.6186 56.5806 32.0186 56.5806 32.6186ZM55.9806 32.7186C55.9806 32.2186 55.8806 31.8186 55.5806 31.5186C55.2806 31.2186 54.9806 31.1186 54.5806 31.1186C54.2806 31.1186 53.9806 31.2186 53.6806 31.5186C53.3806 31.8186 53.2806 32.2186 53.2806 32.7186C53.2806 33.2186 53.3806 33.6186 53.6806 33.9186C53.9806 34.2186 54.2806 34.3186 54.6806 34.3186C54.9806 34.3186 55.2806 34.1186 55.5806 33.8186C55.8806 33.6186 55.9806 33.2186 55.9806 32.7186ZM63.1806 34.7186H62.5806C62.5806 34.3186 62.5806 33.6186 62.4806 32.8186C62.3806 32.0186 62.3806 31.4186 62.3806 31.3186C62.1806 32.0186 61.8806 32.7186 61.5806 33.4186C61.2806 34.2186 61.0806 34.6186 61.0806 34.7186H60.6806C60.6806 34.6186 60.5806 34.1186 60.2806 33.3186C59.9806 32.5186 59.7806 32.0186 59.6806 31.8186C59.5806 31.5186 59.5806 31.4186 59.4806 31.2186C59.4806 31.5186 59.4806 32.0186 59.3806 32.9186C59.2806 33.7186 59.2806 34.3186 59.2806 34.7186H58.6806C58.6806 34.7186 58.7806 34.1186 58.8806 33.0186C58.9806 31.9186 59.0806 31.2186 59.0806 30.7186H59.8806C59.8806 30.9186 60.0806 31.5186 60.3806 32.4186C60.6806 33.3186 60.8806 33.8186 60.8806 34.0186C60.8806 33.8186 61.0806 33.3186 61.4806 32.4186C61.8806 31.5186 62.0806 31.0186 62.0806 30.8186H62.8806C62.8806 31.2186 62.8806 32.0186 62.9806 33.0186C63.0806 34.1186 63.1806 34.6186 63.1806 34.7186ZM68.8806 34.7186H68.1806C68.1806 34.6186 68.0806 34.1186 67.7806 33.4186H65.9806C65.6806 34.1186 65.5806 34.5186 65.5806 34.7186H64.9806C64.9806 34.6186 65.2806 34.0186 65.7806 32.8186C66.2806 31.6186 66.5806 30.9186 66.5806 30.8186H67.2806C67.2806 30.9186 67.5806 31.6186 68.0806 32.8186C68.6806 33.9186 68.8806 34.5186 68.8806 34.7186ZM67.7806 33.0186C67.2806 31.8186 67.0806 31.2186 67.0806 31.1186C67.0806 31.2186 66.7806 31.8186 66.2806 33.0186H67.7806ZM73.4806 30.7186V31.1186C73.0806 31.1186 72.6806 31.1186 72.1806 31.1186C72.1806 31.5186 72.1806 32.0186 72.1806 32.6186C72.1806 33.3186 72.1806 33.9186 72.1806 34.7186H71.6806C71.6806 34.0186 71.6806 33.3186 71.6806 32.6186C71.6806 32.0186 71.6806 31.5186 71.6806 31.1186C71.3806 31.1186 70.9806 31.1186 70.3806 31.1186V30.7186H73.4806ZM79.0806 32.6186C79.0806 33.2186 78.8806 33.8186 78.4806 34.2186C78.0806 34.6186 77.6805 34.8186 77.0806 34.8186C76.5806 34.8186 76.1806 34.6186 75.7806 34.3186C75.3806 33.9186 75.1806 33.5186 75.1806 32.9186C75.1806 32.2186 75.3806 31.7186 75.7806 31.3186C76.1806 30.9186 76.5806 30.7186 77.1806 30.7186C77.6806 30.7186 78.0806 30.9186 78.4806 31.2186C78.8806 31.6186 79.0806 32.0186 79.0806 32.6186ZM78.4806 32.7186C78.4806 32.2186 78.3806 31.8186 78.0806 31.5186C77.7806 31.2186 77.4806 31.1186 77.0806 31.1186C76.7806 31.1186 76.4806 31.2186 76.1806 31.5186C75.8806 31.8186 75.7806 32.2186 75.7806 32.7186C75.7806 33.2186 75.8806 33.6186 76.1806 33.9186C76.4806 34.2186 76.7806 34.3186 77.1806 34.3186C77.4806 34.3186 77.7806 34.1186 78.0806 33.8186C78.3806 33.6186 78.4806 33.2186 78.4806 32.7186ZM84.0806 30.7186C84.0806 31.3186 84.0806 32.0186 84.0806 32.5186C84.0806 33.2186 84.0806 33.9186 84.0806 34.6186H83.4806C83.4806 34.0186 83.4806 33.4186 83.4806 32.6186C83.4806 32.0186 83.4806 31.5186 83.4806 31.0186H82.6806C82.6806 31.1186 82.6805 31.2186 82.5806 31.4186C82.5806 31.6186 82.4806 31.7186 82.3806 31.9186C82.2806 32.1186 82.2806 32.3186 82.1806 32.5186C82.0806 32.7186 81.9806 32.9186 81.8806 33.1186C81.7806 33.3186 81.6805 33.5186 81.5806 33.7186C81.4806 33.9186 81.3806 34.0186 81.2806 34.2186C81.1806 34.3186 81.0806 34.5186 80.9806 34.5186C80.8806 34.6186 80.7806 34.6186 80.6806 34.6186V34.1186C80.7806 34.1186 80.7806 34.0186 80.8806 34.0186C80.9806 33.9186 80.9806 33.8186 81.0806 33.7186C81.1805 33.6186 81.2806 33.4186 81.2806 33.3186C81.3806 33.1186 81.4806 33.0186 81.5806 32.8186C81.6805 32.6186 81.7806 32.4186 81.7806 32.3186C81.8806 32.1186 81.8806 31.9186 81.9806 31.7186C82.0806 31.5186 82.0806 31.3186 82.1806 31.2186C82.1806 31.0186 82.2806 30.9186 82.2806 30.7186H84.0806ZM90.1806 32.6186C90.1806 33.2186 89.9806 33.8186 89.5806 34.2186C89.1805 34.6186 88.7806 34.8186 88.1806 34.8186C87.6806 34.8186 87.2806 34.6186 86.8806 34.3186C86.4806 33.9186 86.2806 33.5186 86.2806 32.9186C86.2806 32.2186 86.4806 31.7186 86.8806 31.3186C87.2806 30.9186 87.6806 30.7186 88.2806 30.7186C88.7806 30.7186 89.1805 30.9186 89.5806 31.2186C89.9806 31.6186 90.1806 32.0186 90.1806 32.6186ZM89.5806 32.7186C89.5806 32.2186 89.4806 31.8186 89.1806 31.5186C88.8806 31.2186 88.5806 31.1186 88.1806 31.1186C87.8806 31.1186 87.5806 31.2186 87.2806 31.5186C86.9806 31.8186 86.8806 32.2186 86.8806 32.7186C86.8806 33.2186 86.9806 33.6186 87.2806 33.9186C87.5806 34.2186 87.8806 34.3186 88.2806 34.3186C88.5806 34.3186 88.8806 34.1186 89.1806 33.8186C89.4806 33.6186 89.5806 33.2186 89.5806 32.7186ZM94.7806 30.7186V31.2186C94.0806 31.2186 93.3806 31.2186 92.8806 31.2186C92.8806 31.6186 92.8806 32.1186 92.8806 32.8186C92.8806 33.6186 92.8806 34.3186 92.8806 34.7186H92.2806C92.2806 34.2186 92.2806 33.6186 92.2806 32.8186C92.2806 31.9186 92.2806 31.2186 92.2806 30.7186H94.7806ZM99.9806 34.7186H99.3806C99.3806 34.3186 99.3806 33.8186 99.3806 33.0186C99.3806 32.7186 99.3806 32.2186 99.3806 31.7186C99.2806 31.9186 98.8806 32.4186 98.1806 33.2186C97.4806 34.0186 97.1806 34.4186 97.1806 34.6186H96.7806C96.7806 34.1186 96.8806 33.5186 96.8806 32.7186C96.8806 32.0186 96.8806 31.3186 96.7806 30.6186H97.3806C97.3806 31.1186 97.3806 31.7186 97.3806 32.4186C97.3806 32.7186 97.3806 33.1186 97.3806 33.5186C97.4806 33.3186 97.8806 32.8186 98.5806 32.0186C99.1805 31.3186 99.5806 30.8186 99.5806 30.6186H99.9806C99.9806 31.3186 99.9806 31.9186 99.9806 32.7186C99.9806 33.5186 99.9806 34.1186 99.9806 34.7186ZM105.281 34.7186H104.681C104.681 34.2186 104.681 33.6186 104.681 32.9186C104.381 33.0186 104.081 33.0186 103.581 33.0186C103.181 33.0186 102.781 32.9186 102.581 32.7186C102.381 32.5186 102.281 32.1186 102.281 31.6186C102.281 31.4186 102.281 31.1186 102.281 30.8186H102.881C102.881 31.0186 102.881 31.3186 102.881 31.4186C102.881 31.9186 102.981 32.3186 103.081 32.4186C103.181 32.5186 103.481 32.6186 103.981 32.6186C104.281 32.6186 104.581 32.6186 104.781 32.5186C104.781 31.8186 104.781 31.2186 104.781 30.7186H105.381C105.381 31.2186 105.381 31.9186 105.381 32.6186C105.181 33.3186 105.181 34.0186 105.281 34.7186ZM110.281 34.2186V34.7186H107.781C107.781 34.1186 107.781 33.4186 107.781 32.6186C107.781 31.9186 107.781 31.3186 107.781 30.7186H110.081V31.1186C109.481 31.1186 108.881 31.1186 108.281 31.1186C108.281 31.4186 108.281 31.8186 108.281 32.4186C108.881 32.4186 109.281 32.4186 109.781 32.4186V32.8186C109.281 32.8186 108.781 32.8186 108.281 32.8186C108.281 33.3186 108.281 33.8186 108.281 34.2186C109.081 34.3186 109.681 34.2186 110.281 34.2186ZM115.281 34.2186V34.6186C114.981 34.7186 114.781 34.7186 114.481 34.7186C113.781 34.7186 113.281 34.5186 112.881 34.1186C112.481 33.7186 112.381 33.3186 112.381 32.7186C112.381 32.1186 112.581 31.6186 112.981 31.2186C113.381 30.8186 113.881 30.6186 114.581 30.6186C114.781 30.6186 114.981 30.6186 115.181 30.7186L115.081 31.2186C114.881 31.1186 114.581 31.1186 114.481 31.1186C113.981 31.1186 113.581 31.3186 113.381 31.6186C113.081 31.9186 112.981 32.3186 112.981 32.7186C112.981 33.1186 113.081 33.5186 113.381 33.8186C113.681 34.1186 114.081 34.3186 114.581 34.3186C114.681 34.3186 114.881 34.3186 115.281 34.2186ZM120.381 34.7186H119.681C119.681 34.7186 119.681 34.6186 119.581 34.4186C119.381 33.8186 119.281 33.3186 119.081 33.2186C118.881 33.0186 118.581 32.9186 118.181 32.9186C118.081 32.9186 117.981 32.9186 117.881 32.9186C117.881 33.5186 117.881 34.1186 117.881 34.7186H117.281C117.281 34.1186 117.281 33.4186 117.281 32.6186C117.281 31.9186 117.281 31.3186 117.281 30.7186H117.881C117.881 31.3186 117.881 31.9186 117.881 32.4186C117.981 32.4186 118.081 32.4186 118.181 32.4186C118.581 32.4186 118.781 32.3186 119.081 32.1186C119.281 31.9186 119.481 31.5186 119.581 30.9186C119.581 30.8186 119.581 30.7186 119.681 30.7186H120.181C120.181 30.8186 120.081 30.9186 120.081 31.0186C119.981 31.5186 119.781 31.8186 119.681 32.0186C119.481 32.2186 119.281 32.4186 119.081 32.5186C119.381 32.6186 119.581 32.7186 119.681 32.9186C119.781 33.1186 119.981 33.5186 120.281 34.2186C120.281 34.4186 120.281 34.5186 120.381 34.7186ZM125.681 34.7186H125.081C125.081 34.3186 125.081 33.8186 125.081 33.0186C125.081 32.7186 125.081 32.2186 125.081 31.7186C124.981 31.9186 124.581 32.4186 123.881 33.2186C123.181 34.0186 122.881 34.4186 122.881 34.6186H122.481C122.481 34.1186 122.581 33.5186 122.581 32.7186C122.581 32.0186 122.581 31.3186 122.481 30.6186H123.081C123.081 31.1186 123.081 31.7186 123.081 32.4186C123.081 32.7186 123.081 33.1186 123.081 33.5186C123.181 33.3186 123.581 32.8186 124.281 32.0186C124.881 31.3186 125.281 30.8186 125.281 30.6186H125.681C125.681 31.3186 125.681 31.9186 125.681 32.7186C125.681 33.5186 125.681 34.1186 125.681 34.7186ZM131.381 34.7186H130.781C130.781 34.3186 130.781 33.8186 130.781 33.0186C130.781 32.7186 130.781 32.2186 130.781 31.7186C130.681 31.9186 130.281 32.4186 129.581 33.2186C128.881 34.0186 128.581 34.4186 128.581 34.6186H128.181C128.181 34.1186 128.281 33.5186 128.281 32.7186C128.281 32.0186 128.281 31.3186 128.181 30.6186H128.781C128.781 31.1186 128.781 31.7186 128.781 32.4186C128.781 32.7186 128.781 33.1186 128.781 33.5186C128.881 33.3186 129.281 32.8186 129.981 32.0186C130.581 31.3186 130.981 30.8186 130.981 30.6186H131.381C131.381 31.3186 131.381 31.9186 131.381 32.7186C131.381 33.5186 131.381 34.1186 131.381 34.7186ZM130.781 29.6186C130.781 29.8186 130.681 30.0186 130.581 30.2186C130.481 30.4186 130.181 30.5186 129.881 30.5186C129.481 30.5186 129.281 30.4186 129.081 30.2186C128.981 30.0186 128.881 29.8186 128.881 29.6186L129.281 29.5186C129.281 29.9186 129.481 30.1186 129.781 30.1186C129.981 30.1186 130.181 30.0186 130.181 29.9186C130.281 29.8186 130.281 29.6186 130.281 29.5186L130.781 29.6186ZM138.681 34.3186C138.681 34.4186 138.681 34.7186 138.581 35.1186C138.581 35.5186 138.481 35.8186 138.481 36.0186H138.081C138.081 35.7186 138.081 35.3186 138.081 34.8186H135.281C135.281 34.2186 135.281 33.6186 135.281 33.0186C135.281 32.4186 135.281 31.7186 135.281 30.9186H135.881C135.881 31.5186 135.881 32.1186 135.881 32.9186V34.4186H137.581V32.9186C137.581 32.1186 137.581 31.5186 137.581 30.9186H138.181C138.181 31.7186 138.181 32.4186 138.181 33.0186C138.181 33.5186 138.181 34.0186 138.181 34.4186H138.681V34.3186ZM143.281 34.2186V34.7186H140.781C140.781 34.1186 140.781 33.4186 140.781 32.6186C140.781 31.9186 140.781 31.3186 140.781 30.7186H143.081V31.1186C142.481 31.1186 141.881 31.1186 141.281 31.1186C141.281 31.4186 141.281 31.8186 141.281 32.4186C141.881 32.4186 142.281 32.4186 142.781 32.4186V32.8186C142.281 32.8186 141.781 32.8186 141.281 32.8186C141.281 33.3186 141.281 33.8186 141.281 34.2186C141.981 34.3186 142.681 34.2186 143.281 34.2186ZM148.381 34.7186H147.781C147.781 34.0186 147.781 33.4186 147.781 32.8186H145.881C145.881 33.2186 145.881 33.9186 145.881 34.7186H145.281C145.281 34.0186 145.281 33.3186 145.281 32.6186C145.281 31.9186 145.281 31.3186 145.281 30.7186H145.881C145.881 31.3186 145.881 31.8186 145.881 32.4186H147.781C147.781 32.0186 147.781 31.4186 147.781 30.7186H148.381C148.381 31.3186 148.381 31.9186 148.381 32.6186C148.381 33.4186 148.381 34.0186 148.381 34.7186ZM153.581 30.7186V31.1186C153.181 31.1186 152.781 31.1186 152.281 31.1186C152.281 31.5186 152.281 32.0186 152.281 32.6186C152.281 33.3186 152.281 33.9186 152.281 34.7186H151.681C151.681 34.0186 151.681 33.3186 151.681 32.6186C151.681 32.0186 151.681 31.5186 151.681 31.1186C151.381 31.1186 150.981 31.1186 150.381 31.1186V30.7186H153.581ZM158.281 31.7186C158.281 32.2186 158.081 32.5186 157.781 32.7186C157.381 32.9186 156.981 33.0186 156.381 33.0186C156.281 33.0186 156.281 33.0186 156.181 33.0186C156.181 33.4186 156.181 34.0186 156.181 34.6186H155.581C155.581 34.0186 155.581 33.3186 155.581 32.5186C155.581 31.8186 155.581 31.2186 155.581 30.6186H155.981C155.981 30.6186 156.181 30.6186 156.381 30.6186C156.581 30.6186 156.781 30.6186 156.981 30.6186C157.381 30.6186 157.681 30.7186 157.881 30.9186C158.181 31.2186 158.281 31.4186 158.281 31.7186ZM157.781 31.9186C157.781 31.4186 157.381 31.1186 156.681 31.1186C156.481 31.1186 156.281 31.1186 156.081 31.1186C156.081 31.4186 156.081 31.9186 156.081 32.6186C156.181 32.6186 156.281 32.6186 156.381 32.6186C157.381 32.7186 157.781 32.4186 157.781 31.9186Z" fill="white"/>
<path fill-rule="evenodd" clip-rule="evenodd" d="M8.18058 2.41846C1.78058 6.81846 -1.51942 14.8185 0.680579 22.8185C3.38058 32.8185 13.6806 38.8185 23.6806 36.1185C31.8806 33.9185 37.2806 26.6185 37.5806 18.6185C36.4806 25.2185 31.5806 30.9185 24.6806 32.7185C15.2806 35.2185 5.48058 29.6185 2.98058 20.2185C1.18058 13.5185 3.48058 6.71846 8.18058 2.41846Z" fill="white"/>
<path fill-rule="evenodd" clip-rule="evenodd" d="M28.6806 28.9186C34.0806 25.2186 36.8806 18.4186 35.0806 11.7186C32.7806 3.31861 24.0806 -1.68139 15.6806 0.51861C8.78059 2.31861 4.18059 8.51861 3.98059 15.3186C4.98059 9.71861 8.98059 4.91861 14.8806 3.41861C22.8806 1.31861 31.0806 6.01861 33.1806 14.0186C34.5806 19.6186 32.6806 25.3186 28.6806 28.9186Z" fill="white"/>
</svg>
