<svg width="62" height="44" viewBox="0 0 62 44" fill="none" xmlns="http://www.w3.org/2000/svg">
<path d="M52.799 23.1829C52.7977 23.1829 52.7964 23.1829 52.7953 23.1829C52.0275 23.186 51.2298 23.1878 50.413 23.1878C45.2129 23.1878 43.3678 26.2018 42.7357 28.7303C42.664 29.0169 42.5866 29.3432 42.5016 29.7013C41.4857 33.9849 39.372 42.8987 33.1197 41.6477C30.817 41.1872 30.4176 37.2994 30.1262 34.4604C30.0161 33.3887 29.9211 32.4632 29.7435 31.7411C29.4564 30.5739 28.8993 29.9823 28.088 29.9823C26.8972 29.9823 26.0201 31.3208 24.806 33.1734C22.7967 36.2398 20.9519 38.7054 18.7195 37.8126C15.9545 36.7066 15.4236 30.9625 15.1065 27.5303C14.8715 24.9882 14.7643 23.8279 14.0331 23.3405C10.8982 21.2504 1.7629 22.9992 0.731666 23.2053C0.238813 23.304 -0.0806328 23.7832 0.0178166 24.2759C0.116387 24.7688 0.596162 25.0882 1.08841 24.99C4.62823 24.283 10.8803 23.6208 12.9066 24.7826C13.065 25.2151 13.1915 26.5841 13.2943 27.6979C13.6729 31.7935 14.2449 37.9829 18.0438 39.5023C19.7507 40.1852 21.4463 39.7878 23.0825 38.3213C24.3581 37.178 25.4048 35.5806 26.3283 34.171C26.8363 33.3959 27.4987 32.385 27.9253 31.9693C28.0998 32.5436 28.2219 33.7329 28.3157 34.6464C28.665 38.0488 29.1436 42.7086 32.7629 43.4325C33.3112 43.5422 33.8431 43.5969 34.3595 43.5969C37.1279 43.5969 39.4311 42.0219 41.2215 38.8976C42.876 36.0102 43.7164 32.4664 44.2725 30.1214C44.3555 29.7712 44.4312 29.4521 44.5012 29.1718C45.2114 26.3309 47.09 25.0078 50.4129 25.0078C51.2321 25.0078 52.0323 25.006 52.8026 25.003C53.3051 25.0009 53.7109 24.5919 53.709 24.0893C53.7068 23.5878 53.2998 23.1829 52.799 23.1829Z" fill="#67BC9E"/>
<path d="M61.0732 23.0982C61.0586 23.0985 59.5812 23.1255 57.3187 23.1497C56.8162 23.155 56.4132 23.5669 56.4185 24.0694C56.4238 24.5687 56.8302 24.9697 57.3283 24.9697C57.3316 24.9697 57.3348 24.9697 57.3382 24.9697C59.6076 24.9456 61.092 24.9184 61.1069 24.918C61.6093 24.9088 62.0093 24.4938 61.9999 23.9914C61.9906 23.4886 61.5778 23.0913 61.0732 23.0982Z" fill="#F39035"/>
<path d="M45.1138 10.2022C43.9724 8.49966 42.0985 7.24319 39.8377 6.6646C38.1049 6.22103 36.2206 6.50342 34.5396 7.43561C33.5103 5.80968 31.983 4.65408 30.2342 4.20639C27.9731 3.62756 25.7262 3.82943 23.9073 4.7742C22.0983 5.71389 20.8266 7.30725 20.3265 9.26098C19.1833 13.728 20.3675 16.0494 21.1511 17.5856C21.7958 18.8493 22.013 19.2751 21.1563 20.3405C19.3551 22.5806 18.6276 25.3102 18.3345 27.2057C17.9813 29.4899 18.0767 31.7731 18.5898 33.3134C18.9551 34.4106 19.5111 35.0616 20.2422 35.2487C21.323 35.5255 22.0843 34.4921 22.3346 34.1526C22.7719 33.5593 23.2061 32.7671 23.7088 31.8496C25.5412 28.5054 27.2544 25.788 29.6686 26.4055C32.0828 27.0234 32.2796 30.2302 32.28 34.0435C32.28 35.0897 32.2801 35.9932 32.3787 36.7234C32.4351 37.1414 32.6067 38.4134 33.6872 38.69C34.5828 38.9193 35.4376 38.3698 36.0661 37.7865C37.2561 36.682 38.4367 34.7255 39.2243 32.5524C39.8779 30.7494 40.5513 28.0058 40.0478 25.1759C39.8083 23.8298 40.2033 23.5608 41.3759 22.7621C42.8012 21.7913 44.9552 20.3242 46.0985 15.8573C46.5986 13.9037 46.2488 11.8954 45.1138 10.2022ZM44.3354 15.4064C43.3624 19.2074 41.6928 20.3446 40.3514 21.2582C39.102 22.1092 37.8101 22.9892 38.2558 25.4948C38.8973 29.1003 37.2805 33.491 35.4337 35.7917C34.8822 36.4789 34.4692 36.7709 34.2522 36.8742C34.1001 36.3512 34.1 35.0356 34.1 34.0434C34.0999 32.3178 34.0996 30.3622 33.6593 28.6388C33.0987 26.4447 31.9078 25.1001 30.12 24.6425C29.7352 24.5439 29.3548 24.4948 28.9794 24.4948C27.6111 24.4948 26.3089 25.1483 25.0958 26.447C23.8816 27.7468 22.9419 29.462 22.1129 30.9752C21.636 31.8454 21.0039 32.9992 20.6193 33.3847C20.4786 33.1898 20.2567 32.7354 20.1031 31.8678C19.5885 28.9627 20.28 24.3352 22.5748 21.4813C24.1697 19.4978 23.4594 18.1054 22.7724 16.7589C22.0348 15.313 21.1168 13.5136 22.0898 9.71254C22.4597 8.26728 23.4032 7.08722 24.7463 6.38935C26.1675 5.65104 27.9563 5.50198 29.783 5.96952C31.0878 6.3035 32.2725 7.22938 33.0544 8.49845C32.1292 9.29113 31.569 9.66446 29.9656 9.25408C29.4851 9.13116 28.9814 9.42954 28.8585 9.91004C28.7355 10.3904 29.0339 10.8943 29.5144 11.0172C30.111 11.1699 30.6321 11.2364 31.0945 11.2364C32.6704 11.2364 33.563 10.4651 34.4325 9.7135C35.4789 8.80905 36.885 8.25674 38.2746 8.27999C38.6494 8.28629 39.0234 8.33485 39.3867 8.42773C41.2134 8.89539 42.7106 9.88534 43.6024 11.2157C44.4448 12.4729 44.7053 13.9611 44.3354 15.4064Z" fill="#67BC9E"/>
<path d="M54.8416 6.0059C54.4397 5.7045 53.8691 5.78587 53.5676 6.1879L52.2597 7.9319C51.8811 3.49538 48.1514 0 43.6185 0C43.116 0 42.7085 0.407481 42.7085 0.910022C42.7085 1.41256 43.116 1.82004 43.6185 1.82004C47.3985 1.82004 50.4737 4.89535 50.4737 8.67518C50.4737 8.71913 50.4778 8.76188 50.4838 8.80414L48.047 6.97659C47.6505 6.67918 47.0705 6.76201 46.773 7.1586C46.4755 7.55518 46.5583 8.1351 46.955 8.43262L50.8377 11.3446C51.2344 11.6421 51.8143 11.5592 52.1117 11.1626L55.0236 7.27993C55.325 6.8779 55.2435 6.30755 54.8416 6.0059Z" fill="#F39035"/>
<path d="M17.0078 9.46858L16.3214 4.66417C16.2503 4.1666 15.7888 3.821 15.2918 3.89208L10.4874 4.57844C9.98987 4.64952 9.64414 5.11053 9.71535 5.60798C9.78643 6.10531 10.2477 6.45079 10.745 6.37996L12.903 6.07165C10.0336 9.47657 10.1992 14.5852 13.4046 17.7905C13.7747 18.1606 14.3995 18.1358 14.7398 17.7383C15.0448 17.3822 15.0228 16.8349 14.6913 16.5037C12.0186 13.8309 12.0186 9.48178 14.6913 6.80899C14.7225 6.77787 14.7497 6.74469 14.7754 6.71054L15.2061 9.72603C15.2772 10.2232 15.7566 10.5762 16.2525 10.4955C16.7354 10.4167 17.077 9.95356 17.0078 9.46858Z" fill="#F39035"/>
</svg>
