<svg width="49" height="49" viewBox="0 0 49 49" fill="none" xmlns="http://www.w3.org/2000/svg">
<g clip-path="url(#clip0)">
<path d="M24.5 0C19.6544 0 14.9175 1.4369 10.8885 4.12899C6.85954 6.82109 3.71931 10.6475 1.86496 15.1243C0.0106154 19.601 -0.474566 24.5272 0.470772 29.2797C1.41611 34.0322 3.74951 38.3977 7.1759 41.8241C10.6023 45.2505 14.9678 47.5839 19.7203 48.5292C24.4728 49.4746 29.399 48.9894 33.8758 47.135C38.3525 45.2807 42.1789 42.1405 44.871 38.1115C47.5631 34.0825 49 29.3456 49 24.5C48.9927 18.0044 46.4091 11.777 41.8161 7.18394C37.223 2.59088 30.9956 0.00729521 24.5 0V0ZM24.5 47.6602C19.9194 47.6602 15.4416 46.3018 11.6329 43.757C7.82425 41.2121 4.85575 37.595 3.10282 33.363C1.34988 29.131 0.891231 24.4743 1.78487 19.9817C2.67851 15.489 4.8843 11.3623 8.12331 8.1233C11.3623 4.88429 15.4891 2.6785 19.9817 1.78486C24.4743 0.89122 29.1311 1.34987 33.363 3.10281C37.595 4.85574 41.2121 7.82424 43.757 11.6329C46.3018 15.4416 47.6602 19.9194 47.6602 24.5C47.6533 30.6403 45.211 36.5272 40.8691 40.8691C36.5272 45.211 30.6404 47.6533 24.5 47.6602Z" fill="#67BC9E"/>
<path d="M24.5 3.82812C20.4115 3.82813 16.4148 5.04051 13.0153 7.31196C9.61586 9.58342 6.96629 12.8119 5.40169 16.5892C3.83708 20.3665 3.42771 24.5229 4.22534 28.5329C5.02297 32.5428 6.99177 36.2262 9.88279 39.1172C12.7738 42.0082 16.4572 43.977 20.4671 44.7747C24.4771 45.5723 28.6335 45.1629 32.4108 43.5983C36.1881 42.0337 39.4166 39.3842 41.688 35.9847C43.9595 32.5852 45.1719 28.5885 45.1719 24.5C45.1657 19.0194 42.9858 13.765 39.1104 9.8896C35.235 6.01421 29.9806 3.83431 24.5 3.82812ZM24.5 43.832C20.6765 43.832 16.9388 42.6982 13.7597 40.574C10.5806 38.4498 8.10274 35.4305 6.63954 31.898C5.17635 28.3656 4.79351 24.4786 5.53944 20.7285C6.28537 16.9785 8.12657 13.5338 10.8302 10.8302C13.5338 8.12656 16.9785 6.28536 20.7285 5.53943C24.4786 4.7935 28.3656 5.17634 31.8981 6.63953C35.4305 8.10273 38.4498 10.5806 40.574 13.7597C42.6982 16.9388 43.832 20.6765 43.832 24.5C43.8263 29.6254 41.7876 34.5392 38.1634 38.1634C34.5392 41.7876 29.6254 43.8263 24.5 43.832Z" fill="#67BC9E"/>
<path d="M24.5 10.8502C24.6776 10.8501 24.848 10.7795 24.9736 10.6539C25.0992 10.5283 25.1698 10.3579 25.1699 10.1803V7.18018C25.1699 7.0025 25.0993 6.8321 24.9737 6.70647C24.8481 6.58083 24.6777 6.51025 24.5 6.51025C24.3223 6.51025 24.1519 6.58083 24.0263 6.70647C23.9007 6.8321 23.8301 7.0025 23.8301 7.18018V10.1803C23.8302 10.3579 23.9008 10.5283 24.0264 10.6539C24.152 10.7795 24.3224 10.8501 24.5 10.8502Z" fill="#F39035"/>
<path d="M24.5 38.1511C24.3223 38.1511 24.1519 38.2217 24.0263 38.3473C23.9007 38.473 23.8301 38.6434 23.8301 38.821V41.8208C23.8301 41.9984 23.9007 42.1688 24.0263 42.2945C24.1519 42.4201 24.3223 42.4907 24.5 42.4907C24.6777 42.4907 24.8481 42.4201 24.9737 42.2945C25.0993 42.1688 25.1699 41.9984 25.1699 41.8208V38.821C25.1699 38.6434 25.0993 38.473 24.9737 38.3473C24.8481 38.2217 24.6777 38.1511 24.5 38.1511Z" fill="#F39035"/>
<path d="M36.2734 11.7795L34.1523 13.9006C34.0266 14.0263 33.9561 14.1967 33.9561 14.3744C33.9561 14.5521 34.0266 14.7225 34.1523 14.8481C34.2779 14.9737 34.4483 15.0443 34.626 15.0443C34.8037 15.0443 34.9741 14.9737 35.0997 14.8481L37.2209 12.7269C37.2831 12.6647 37.3325 12.5909 37.3661 12.5096C37.3998 12.4283 37.4171 12.3412 37.4171 12.2532C37.4171 12.1652 37.3998 12.0781 37.3661 11.9968C37.3325 11.9155 37.2831 11.8417 37.2209 11.7795C37.1587 11.7173 37.0848 11.6679 37.0036 11.6342C36.9223 11.6006 36.8352 11.5833 36.7472 11.5833C36.6592 11.5833 36.5721 11.6006 36.4908 11.6342C36.4095 11.6679 36.3357 11.7173 36.2734 11.7795Z" fill="#F39035"/>
<path d="M13.9004 34.1528L11.7792 36.2739C11.6536 36.3996 11.583 36.57 11.583 36.7477C11.583 36.9253 11.6536 37.0958 11.7792 37.2214C11.9049 37.347 12.0753 37.4176 12.253 37.4176C12.4306 37.4176 12.6011 37.347 12.7267 37.2214L14.8479 35.1002C14.9735 34.9746 15.0441 34.8042 15.0441 34.6265C15.0441 34.4488 14.9735 34.2784 14.8479 34.1528C14.7857 34.0906 14.7118 34.0412 14.6305 34.0075C14.5492 33.9739 14.4621 33.9565 14.3741 33.9565C14.1964 33.9565 14.026 34.0271 13.9004 34.1528Z" fill="#F39035"/>
<path d="M41.8204 23.8306H38.8203C38.6426 23.8306 38.4722 23.9011 38.3466 24.0268C38.221 24.1524 38.1504 24.3228 38.1504 24.5005C38.1504 24.6782 38.221 24.8486 38.3466 24.9742C38.4722 25.0998 38.6426 25.1704 38.8203 25.1704H41.8204C41.9981 25.1704 42.1685 25.0998 42.2941 24.9742C42.4198 24.8486 42.4903 24.6782 42.4903 24.5005C42.4903 24.3228 42.4198 24.1524 42.2941 24.0268C42.1685 23.9011 41.9981 23.8306 41.8204 23.8306Z" fill="#F39035"/>
<path d="M10.1798 23.8306H7.17969C7.00201 23.8306 6.83162 23.9011 6.70598 24.0268C6.58035 24.1524 6.50977 24.3228 6.50977 24.5005C6.50977 24.6782 6.58035 24.8486 6.70598 24.9742C6.83162 25.0998 7.00201 25.1704 7.17969 25.1704H10.1798C10.3575 25.1704 10.5279 25.0998 10.6535 24.9742C10.7791 24.8486 10.8497 24.6782 10.8497 24.5005C10.8497 24.3228 10.7791 24.1524 10.6535 24.0268C10.5279 23.9011 10.3575 23.8306 10.1798 23.8306Z" fill="#F39035"/>
<path d="M35.0997 34.1528C34.9741 34.0271 34.8037 33.9565 34.626 33.9565C34.4483 33.9565 34.2779 34.0271 34.1523 34.1528C34.0266 34.2784 33.9561 34.4488 33.9561 34.6265C33.9561 34.8042 34.0266 34.9746 34.1523 35.1002L36.2734 37.2214C36.3357 37.2836 36.4095 37.333 36.4908 37.3666C36.5721 37.4003 36.6592 37.4176 36.7472 37.4176C36.8352 37.4176 36.9223 37.4003 37.0036 37.3666C37.0848 37.333 37.1587 37.2836 37.2209 37.2214C37.2831 37.1592 37.3325 37.0853 37.3661 37.004C37.3998 36.9228 37.4171 36.8356 37.4171 36.7477C37.4171 36.6597 37.3998 36.5726 37.3661 36.4913C37.3325 36.41 37.2831 36.3361 37.2209 36.2739L35.0997 34.1528Z" fill="#F39035"/>
<path d="M12.7267 11.7795C12.6645 11.7173 12.5906 11.6679 12.5093 11.6342C12.4281 11.6006 12.3409 11.5833 12.253 11.5833C12.165 11.5833 12.0779 11.6006 11.9966 11.6342C11.9153 11.6679 11.8414 11.7173 11.7792 11.7795C11.717 11.8417 11.6677 11.9155 11.634 11.9968C11.6003 12.0781 11.583 12.1652 11.583 12.2532C11.583 12.3412 11.6003 12.4283 11.634 12.5096C11.6677 12.5909 11.717 12.6647 11.7792 12.7269L13.9004 14.8481C14.026 14.9737 14.1964 15.0443 14.3741 15.0443C14.5518 15.0443 14.7222 14.9737 14.8479 14.8481C14.9735 14.7225 15.0441 14.5521 15.0441 14.3744C15.0441 14.1967 14.9735 14.0263 14.8479 13.9006L12.7267 11.7795Z" fill="#F39035"/>
<path d="M28.1286 25.0161C28.2266 24.3663 28.1455 23.702 27.8939 23.0949C27.6424 22.4878 27.2299 21.9608 26.701 21.5708V14.7766C26.701 14.1928 26.4691 13.6329 26.0563 13.2201C25.6435 12.8073 25.0837 12.5754 24.4999 12.5754C23.9161 12.5754 23.3562 12.8073 22.9434 13.2201C22.5306 13.6329 22.2987 14.1928 22.2987 14.7766V21.5719C21.6425 22.0574 21.1675 22.7484 20.9494 23.535C20.7313 24.3216 20.7826 25.1586 21.0952 25.9127C21.4077 26.6668 21.9636 27.2946 22.6742 27.6963C23.3848 28.0979 24.2094 28.2503 25.0167 28.1291L28.72 31.8324C29.1328 32.2453 29.6927 32.4772 30.2765 32.4772C30.8603 32.4772 31.4202 32.2453 31.833 31.8324C32.2458 31.4196 32.4778 30.8597 32.4778 30.2759C32.4778 29.6921 32.2458 29.1322 31.833 28.7194L28.1286 25.0161ZM23.6385 14.7766C23.6385 14.5482 23.7293 14.3291 23.8908 14.1676C24.0524 14.006 24.2714 13.9153 24.4999 13.9153C24.7283 13.9153 24.9474 14.006 25.1089 14.1676C25.2705 14.3291 25.3612 14.5482 25.3612 14.7766V20.9399C24.7957 20.7985 24.2041 20.7985 23.6385 20.9399V14.7766ZM22.1708 24.5001C22.1709 24.0394 22.3076 23.5892 22.5635 23.2062C22.8195 22.8233 23.1833 22.5248 23.6089 22.3486C24.0344 22.1724 24.5027 22.1263 24.9545 22.2162C25.4062 22.3061 25.8212 22.528 26.1469 22.8537C26.4726 23.1794 26.6943 23.5944 26.7842 24.0462C26.874 24.498 26.8279 24.9663 26.6516 25.3918C26.4753 25.8174 26.1768 26.1811 25.7938 26.437C25.4108 26.6929 24.9605 26.8295 24.4999 26.8295C23.8823 26.8288 23.2903 26.5831 22.8537 26.1464C22.417 25.7097 22.1715 25.1176 22.1708 24.5001ZM30.8848 30.8854C30.7231 31.0466 30.504 31.1372 30.2756 31.1372C30.0471 31.1372 29.8281 31.0466 29.6663 30.8854L26.409 27.6276C26.9054 27.3234 27.3228 26.906 27.6271 26.4095L30.8848 29.6669C31.0461 29.8286 31.1366 30.0477 31.1366 30.2761C31.1366 30.5045 31.0461 30.7236 30.8848 30.8854Z" fill="#F39035"/>
</g>
<defs>
<clipPath id="clip0">
<rect width="49" height="49" fill="white"/>
</clipPath>
</defs>
</svg>
