<svg width="50" height="50" viewBox="0 0 50 50" fill="none" xmlns="http://www.w3.org/2000/svg">
<path d="M44.0106 37.2933L43.3779 37.926L40.8723 35.42L42.7719 33.5203C43.0828 33.2087 43.2574 32.7866 43.2574 32.3464C43.2574 31.9063 43.0828 31.4841 42.7719 31.1725L24.9789 13.3795C24.6673 13.0687 24.2451 12.8941 23.805 12.8941C23.3649 12.8941 22.9427 13.0687 22.6311 13.3795L22.2682 13.7424L20.7032 12.1778C20.6397 12.1143 20.5643 12.0639 20.4814 12.0296C20.3984 11.9952 20.3095 11.9775 20.2198 11.9775C20.13 11.9775 20.0411 11.9952 19.9581 12.0296C19.8752 12.0639 19.7998 12.1143 19.7364 12.1778L19.1952 12.7189L17.2579 10.7813C17.1945 10.7178 17.1191 10.6674 17.0362 10.6331C16.9532 10.5987 16.8643 10.581 16.7745 10.581C16.6848 10.581 16.5959 10.5987 16.5129 10.6331C16.43 10.6674 16.3546 10.7178 16.2911 10.7813L15.2376 11.8347L8.38871 4.98539C8.32523 4.92191 8.24986 4.87155 8.16692 4.83719C8.08398 4.80284 7.99508 4.78516 7.90531 4.78516C7.724 4.78516 7.55011 4.85718 7.42191 4.98539C7.35843 5.04887 7.30807 5.12423 7.27372 5.20717C7.23936 5.29011 7.22168 5.37901 7.22168 5.46878C7.22168 5.65009 7.2937 5.82398 7.42191 5.95218L14.2714 12.8016L13.218 13.8549C13.1545 13.9184 13.1042 13.9938 13.0698 14.0767C13.0354 14.1596 13.0178 14.2485 13.0178 14.3383C13.0178 14.4281 13.0354 14.517 13.0698 14.5999C13.1042 14.6829 13.1545 14.7582 13.218 14.8217L15.1551 16.7587L14.614 17.2998C14.5505 17.3633 14.5002 17.4387 14.4658 17.5216C14.4314 17.6046 14.4138 17.6935 14.4138 17.7832C14.4138 17.873 14.4314 17.9619 14.4658 18.0449C14.5002 18.1278 14.5505 18.2032 14.614 18.2666L16.1796 19.8324L15.8167 20.1952C15.5059 20.5068 15.3313 20.929 15.3313 21.3691C15.3313 21.8093 15.5059 22.2315 15.8167 22.5431L20.9054 27.6318L20.9073 27.6336L33.6094 40.3357C33.921 40.6465 34.3432 40.8211 34.7833 40.8211C35.2234 40.8211 35.6456 40.6465 35.9572 40.3357L37.8569 38.4361L40.3625 40.9417L39.7299 41.5743C39.3322 41.9747 39.1095 42.5164 39.1104 43.0807C39.1114 43.645 39.336 44.186 39.735 44.585C40.134 44.9841 40.6749 45.2087 41.2392 45.2097C41.8035 45.2106 42.3452 44.9879 42.7456 44.5903L47.0268 40.3091C47.2248 40.1111 47.3819 39.876 47.4891 39.6173C47.5963 39.3585 47.6514 39.0812 47.6514 38.8012C47.6514 38.5211 47.5963 38.2438 47.4891 37.9851C47.3819 37.7264 47.2249 37.4913 47.0268 37.2932C46.8288 37.0952 46.5937 36.9381 46.335 36.831C46.0763 36.7238 45.799 36.6686 45.5189 36.6686C45.2389 36.6686 44.9616 36.7238 44.7028 36.8309C44.4441 36.9381 44.209 37.0952 44.011 37.2932L44.0106 37.2933ZM14.668 14.3385L15.7204 13.2861L15.7214 13.2851L15.7224 13.2841L16.7748 12.2316L18.2285 13.6853L16.1217 15.7921L14.668 14.3385ZM16.0637 17.7832L20.2196 13.6274L21.3018 14.7097L17.1459 18.8655L16.0637 17.7832ZM16.7831 21.1621L23.2187 14.7266L20.9766 25.7698L16.7832 21.5764C16.7283 21.5215 16.6974 21.447 16.6974 21.3693C16.6974 21.2916 16.7282 21.2171 16.7831 21.1621ZM34.9903 39.369C34.9631 39.3962 34.9308 39.4178 34.8952 39.4325C34.8597 39.4472 34.8216 39.4548 34.7831 39.4548C34.7446 39.4548 34.7065 39.4472 34.671 39.4325C34.6354 39.4178 34.6031 39.3962 34.5759 39.369L22.1361 26.9293L24.5763 14.9108L28.7808 19.1153L26.1907 21.7056C26.0625 21.8338 25.9904 22.0077 25.9904 22.189C25.9904 22.3703 26.0625 22.5442 26.1907 22.6724C26.3189 22.8006 26.4927 22.8726 26.6741 22.8726C26.8554 22.8726 27.0293 22.8006 27.1575 22.6724L29.7477 20.0822L31.274 21.6083L30.2205 22.6618C30.0923 22.79 30.0203 22.9638 30.0203 23.1451C30.0203 23.3265 30.0923 23.5003 30.2205 23.6285C30.3487 23.7568 30.5226 23.8288 30.7039 23.8288C30.8852 23.8288 31.0591 23.7568 31.1873 23.6285L32.2409 22.5751L33.7668 24.1016L31.1767 26.6914C31.0485 26.8196 30.9765 26.9935 30.9765 27.1748C30.9765 27.3561 31.0485 27.53 31.1767 27.6582C31.3049 27.7864 31.4788 27.8585 31.6601 27.8585C31.8414 27.8585 32.0153 27.7864 32.1435 27.6582L34.7336 25.0684L36.2598 26.5943L35.2065 27.6477C35.0783 27.7759 35.0062 27.9498 35.0062 28.1311C35.0062 28.3124 35.0783 28.4863 35.2065 28.6145C35.3347 28.7427 35.5086 28.8147 35.6899 28.8147C35.8712 28.8147 36.0451 28.7427 36.1733 28.6145L37.2266 27.5611L38.7529 29.0872L36.1626 31.6774C36.0344 31.8056 35.9624 31.9795 35.9624 32.1608C35.9624 32.3421 36.0344 32.516 36.1626 32.6442C36.2908 32.7724 36.4647 32.8444 36.646 32.8444C36.8273 32.8444 37.0012 32.7724 37.1294 32.6442L39.7197 30.0539L41.8051 32.1395C41.8323 32.1667 41.8539 32.199 41.8686 32.2345C41.8834 32.2701 41.8909 32.3082 41.8909 32.3467C41.8909 32.3851 41.8834 32.4232 41.8686 32.4588C41.8539 32.4943 41.8323 32.5266 41.8051 32.5538L34.9903 39.369ZM38.8235 37.4694L39.9055 36.3868L42.4112 38.8924L41.3289 39.9746L38.8235 37.4694ZM46.0598 39.3424L41.7785 43.6231C41.6345 43.764 41.4407 43.8424 41.2392 43.8412C41.0377 43.8401 40.8448 43.7596 40.7023 43.6171C40.5598 43.4746 40.4792 43.2817 40.4781 43.0802C40.477 42.8787 40.5554 42.6849 40.6962 42.5409L42.8368 40.4004L43.8614 39.3759L44.977 38.2604C45.048 38.1893 45.1324 38.133 45.2253 38.0945C45.3181 38.056 45.4176 38.0362 45.5181 38.0362C45.6186 38.0362 45.7181 38.056 45.8109 38.0945C45.9038 38.133 45.9882 38.1893 46.0592 38.2604C46.1303 38.3314 46.1866 38.4158 46.2251 38.5087C46.2636 38.6015 46.2833 38.701 46.2833 38.8015C46.2833 38.902 46.2636 39.0015 46.2251 39.0943C46.1866 39.1872 46.1303 39.2716 46.0592 39.3426L46.0598 39.3424Z" fill="#67BC9E"/>
<path d="M7.56427 11.2109C7.40254 10.9877 7.29304 10.731 7.24386 10.4598L7.02746 9.25663C7.00528 9.13337 6.94966 9.01857 6.86668 8.92476C6.7837 8.83095 6.67655 8.76175 6.55691 8.72469C6.43728 8.68764 6.30976 8.68417 6.18829 8.71465C6.06681 8.74513 5.95605 8.8084 5.86808 8.89755L3.27043 11.5302C2.71171 12.0967 2.38431 12.8512 2.35221 13.6463C2.32012 14.4413 2.58563 15.2197 3.09686 15.8295C3.6081 16.4392 4.32832 16.8364 5.11678 16.9434C5.90524 17.0505 6.70528 16.8597 7.36056 16.4083C7.40021 16.3809 7.43869 16.3527 7.47687 16.3241C8.8296 15.3001 9.10421 13.3301 8.08908 11.9336L7.56427 11.2109ZM6.65119 15.2344C6.6297 15.2506 6.60783 15.2665 6.58498 15.2823C6.20995 15.5412 5.7518 15.6509 5.30018 15.5898C4.84856 15.5288 4.43598 15.3014 4.14316 14.9522C3.85035 14.603 3.69837 14.1571 3.71698 13.7017C3.73559 13.2464 3.92343 12.8144 4.24376 12.4902L5.91652 10.7949C6.00978 11.2349 6.19436 11.6505 6.45831 12.0146L6.98302 12.7367C7.56369 13.5361 7.41496 14.6562 6.65119 15.2344Z" fill="#F39035"/>
</svg>
