<svg width="8" height="21" viewBox="0 0 8 21" fill="none" xmlns="http://www.w3.org/2000/svg">
<path d="M7.31156 6.08433L4.00038 2.77235L0.689204 6.08473C0.531338 6.24259 0.275967 6.24259 0.118101 6.08473C-0.039367 5.92686 -0.039367 5.67109 0.118101 5.51322L3.71465 1.91548C3.87212 1.75761 4.12788 1.75761 4.28535 1.91548L7.8819 5.51319C8.03937 5.67106 8.03937 5.92722 7.8819 6.08509C7.72483 6.24219 7.46903 6.24219 7.31156 6.08433Z" fill="#F39035"/>
<path d="M7.31156 14.9157L4.00038 18.2276L0.689204 14.9153C0.531338 14.7574 0.275967 14.7574 0.118101 14.9153C-0.039367 15.0731 -0.039367 15.3289 0.118101 15.4868L3.71465 19.0845C3.87212 19.2424 4.12788 19.2424 4.28535 19.0845L7.8819 15.4868C8.03937 15.3289 8.03937 15.0728 7.8819 14.9149C7.72483 14.7578 7.46903 14.7578 7.31156 14.9157Z" fill="#F39035"/>
</svg>
