<svg width="38" height="50" viewBox="0 0 38 50" fill="none" xmlns="http://www.w3.org/2000/svg">
<g clip-path="url(#clip0)">
<path d="M3.27883 32.5727C3.32103 32.4461 3.32103 32.3195 3.32103 32.1929C3.32103 31.7287 3.15223 31.1379 2.94122 30.4626" stroke="#67BC9E" stroke-width="0.7" stroke-miterlimit="10" stroke-linecap="round" stroke-linejoin="round"/>
<path d="M16.7408 32.2351C16.7408 32.3617 16.7408 32.4883 16.783 32.6149C17.9646 37.468 15.9812 46.7943 12.6051 46.7943C9.56671 46.7943 15.6014 35.1469 10.0731 35.1469C4.54484 35.1469 10.5373 46.7943 7.54108 46.7943C4.16503 46.7943 2.1394 37.468 3.32102 32.6149" stroke="#67BC9E" stroke-miterlimit="10" stroke-linecap="round" stroke-linejoin="round" stroke-dasharray="3 3"/>
<path d="M18.1334 27.0867C17.7536 28.9435 16.783 31.0113 16.7408 32.2351" stroke="#67BC9E" stroke-width="0.7" stroke-miterlimit="10" stroke-linecap="round" stroke-linejoin="round"/>
<path d="M33.2412 32.5727C33.199 32.4461 33.199 32.3195 33.199 32.1929C33.199 30.7159 34.7182 27.8463 34.7182 25.8206C34.7182 23.584 33.7054 20.8832 31.3 20.8832C28.8946 20.8832 28.557 22.0226 26.4891 22.0226C24.4213 22.0226 24.0837 20.8832 21.6783 20.8832C19.5682 20.8832 18.5554 22.9088 18.3444 24.8922" stroke="#67BC9E" stroke-width="0.7" stroke-miterlimit="10" stroke-linecap="round" stroke-linejoin="round"/>
<path d="M19.737 32.5726C18.5554 37.4257 20.5389 46.752 23.9571 46.752C26.9955 46.752 20.9609 35.1047 26.4891 35.1047C32.0174 35.1047 26.0249 46.752 29.0212 46.752C32.3972 46.752 34.4228 37.4257 33.2412 32.5726" stroke="#67BC9E" stroke-miterlimit="10" stroke-linecap="round" stroke-linejoin="round" stroke-dasharray="3 3"/>
<path d="M18.3866 27.0023C18.7664 28.8591 19.7792 30.9691 19.7792 32.1929C19.7792 32.3195 19.7792 32.4461 19.737 32.5727" stroke="#67BC9E" stroke-width="0.7" stroke-miterlimit="10" stroke-linecap="round" stroke-linejoin="round"/>
<path d="M18.2178 24.9766C18.0068 22.951 16.9518 20.9254 14.884 20.9254C12.563 20.9254 12.141 21.9804 10.2841 22.0648C10.1997 22.0648 10.1575 22.0648 10.0731 22.0648C9.10251 22.0648 8.5117 21.8116 7.92089 21.5584C7.24568 21.263 6.52828 20.9254 5.26226 20.9254C2.85683 20.9254 1.84401 23.6262 1.84401 25.8628C1.84401 26.4958 2.09721 27.5508 2.26602 28.1417C2.30822 28.3527 2.51922 28.4793 2.77242 28.4793C4.16504 28.2683 8.8071 27.5086 11.2547 26.8334C13.829 26.0738 16.15 25.4408 18.2178 24.9766ZM18.2178 24.9766C18.26 24.9766 18.3022 24.9766 18.3022 24.9344C22.6489 23.9216 25.6451 23.6684 27.0377 24.7234C27.5864 25.1454 27.8818 25.7362 27.8818 26.4536C27.8818 27.0022 27.4176 27.4664 26.8689 27.4664C26.3203 27.4664 25.8561 27.0022 25.8561 26.4536C25.8561 26.4114 25.8561 26.3692 25.8561 26.3692C25.8561 26.3692 25.3497 25.694 21.2141 26.4114C20.3279 26.5802 19.3994 26.749 18.3866 27.0022C18.3022 27.0444 18.2178 27.0444 18.0912 27.0866C16.0656 27.5508 13.8712 28.1839 11.7189 28.7325C7.33008 29.9141 4.46045 30.4627 2.94123 30.4627C1.80181 30.4627 1 30.0407 1 29.3233" stroke="#67BC9E" stroke-width="0.7" stroke-miterlimit="10" stroke-linecap="round" stroke-linejoin="round"/>
<path d="M14.9684 20.9253C18.9352 19.1951 25.8983 14.9751 37.5457 4.88913C38.0099 4.59373 38.1365 3.96072 37.8411 3.45431C37.5457 2.99011 36.9127 2.86351 36.4063 3.15891C12.9006 22.3602 8.1741 21.6006 7.87869 21.5162" stroke="#67BC9E" stroke-width="0.7" stroke-miterlimit="10" stroke-linecap="round" stroke-linejoin="round"/>
<path d="M2.91455 31.225C3.33215 31.1083 3.72655 30.8359 4.07455 30.408C4.21375 30.2523 4.39935 30.1356 4.58495 30.1356C5.09535 30.1356 5.42015 30.9137 5.42015 30.9137C6.78895 31.4584 8.04175 31.6918 9.10895 31.7697C10.1761 31.6918 11.4289 31.4584 12.7977 30.9137C12.7977 30.9137 13.1225 30.1356 13.6329 30.1356C14.1433 30.1356 14.4681 30.9137 14.4681 30.9137C15.8369 31.4584 17.0897 31.6918 18.1569 31.7697C19.2241 31.6918 20.4769 31.4584 21.8457 30.9137C21.8457 30.9137 22.1705 30.1356 22.6809 30.1356C23.1913 30.1356 23.5161 30.9137 23.5161 30.9137C24.8849 31.4584 26.1377 31.6918 27.2049 31.7697C28.2721 31.6918 29.5249 31.4584 30.8937 30.9137C30.8937 30.9137 31.2185 30.1356 31.7289 30.1356C31.9609 30.1356 32.1697 30.3301 32.3089 30.4858C32.5641 30.797 32.8425 31.0304 33.1441 31.1472" stroke="#67BC9E" stroke-width="0.7" stroke-miterlimit="10" stroke-linecap="round" stroke-linejoin="round"/>
</g>
<defs>
<clipPath id="clip0">
<rect width="38" height="50" fill="white"/>
</clipPath>
</defs>
</svg>
