<svg width="38" height="50" viewBox="0 0 38 50" fill="none" xmlns="http://www.w3.org/2000/svg">
<g clip-path="url(#clip0)">
<path d="M31.835 6.6601C31.2422 5.65876 30.4174 4.81211 29.429 4.19034C28.4406 3.56857 27.3171 3.1896 26.1516 3.08486C24.2903 2.85727 22.4018 3.13797 20.6894 3.89672C18.977 4.65547 17.5056 5.86352 16.4338 7.39074C15.9102 7.21651 15.4324 6.92864 15.035 6.54807H14.9909L14.9516 6.51398C14.937 6.51604 14.9221 6.51604 14.9074 6.51398C14.8782 6.49914 14.8467 6.48927 14.8142 6.48475L14.7111 6.41656H14.6228C14.5905 6.41945 14.559 6.42768 14.5295 6.44091C14.5011 6.4489 14.4745 6.46212 14.451 6.47988C14.4202 6.49486 14.3921 6.51459 14.3676 6.53833C14.3676 6.53833 14.3676 6.53833 14.3332 6.56756C14.2988 6.59678 14.3332 6.59678 14.3332 6.61139C14.3205 6.6215 14.309 6.63293 14.2988 6.64549L13.3909 8.22366L12.7725 6.86468L13.2387 5.07706C13.263 4.98019 13.2568 4.87825 13.2208 4.78502C13.1848 4.6918 13.1208 4.61181 13.0375 4.55587C11.4473 3.49401 10.2939 2.73902 7.19211 3.08486C6.02664 3.1896 4.90313 3.56857 3.91472 4.19034C2.92632 4.81211 2.10151 5.65876 1.50868 6.6601C0.242422 8.73024 -0.218927 11.531 0.0951825 14.8724C0.0927243 14.9016 0.0927243 14.931 0.0951825 14.9601C0.0951825 14.9601 0.0951825 14.9845 0.0951825 14.9991C0.472334 18.0988 1.26119 21.1354 2.44119 24.0298C7.37861 36.7282 9.04241 41 11.5946 41C11.7159 41.0007 11.8332 40.9568 11.9238 40.8768C12.0145 40.7967 12.072 40.6862 12.0853 40.5665C12.6252 35.6956 14.3528 27.9606 16.6743 27.9606C18.9958 27.9606 20.7185 35.6907 21.2583 40.5665C21.2717 40.6862 21.3292 40.7967 21.4199 40.8768C21.5105 40.9568 21.6278 41.0007 21.7491 41C24.3013 41 25.9651 36.7233 30.9074 24.0249C33.8031 16.587 34.1319 10.4204 31.835 6.6601ZM29.9896 23.679C25.9504 34.0638 23.9381 39.227 22.1761 39.943C21.8326 37.2397 20.3111 26.9913 16.6743 26.9913C13.0375 26.9913 11.5111 37.2202 11.1725 39.943C9.4056 39.227 7.39333 34.0638 3.35407 23.679C2.26273 20.9873 1.51261 18.1715 1.12095 15.2962L8.13443 14.249L11.3933 17.946C11.4403 17.9977 11.4979 18.0388 11.5623 18.0665C11.6266 18.0942 11.6962 18.108 11.7663 18.1067C11.8839 18.1054 11.9971 18.0622 12.0853 17.985C12.1836 17.9003 12.2439 17.7804 12.2531 17.6516C12.2623 17.5229 12.2196 17.3957 12.1344 17.2982L8.69885 13.4014C8.64468 13.3401 8.57584 13.2932 8.49866 13.2651C8.42149 13.237 8.33843 13.2286 8.25713 13.2407L1.0277 14.3269C0.811746 11.4044 1.24365 8.96891 2.34794 7.16668C2.86604 6.29574 3.58518 5.55939 4.44614 5.01826C5.3071 4.47713 6.28526 4.1467 7.30008 4.05417C9.87676 3.76679 10.8387 4.2831 12.208 5.17448L11.7663 6.79162C11.7296 6.89233 11.7296 7.00264 11.7663 7.10336L12.7479 9.30013L12.3013 10.0746C12.247 10.1677 12.2252 10.276 12.2395 10.3826C12.2537 10.4892 12.303 10.5881 12.3798 10.664L16.797 15.0478C16.8428 15.0942 16.8973 15.1312 16.9574 15.1566C17.0176 15.1821 17.0822 15.1955 17.1476 15.1962C17.213 15.1969 17.2779 15.1848 17.3386 15.1606C17.3993 15.1364 17.4546 15.1005 17.5013 15.0551C17.548 15.0097 17.5853 14.9556 17.6109 14.8959C17.6366 14.8362 17.6502 14.772 17.6508 14.7071C17.6515 14.6422 17.6393 14.5778 17.6149 14.5176C17.5905 14.4574 17.5544 14.4025 17.5087 14.3561L13.3565 10.2353L14.8289 7.6489C15.3465 8.09058 15.9935 8.35528 16.6743 8.40389C16.7583 8.4017 16.8403 8.37816 16.9125 8.33552C16.9846 8.29288 17.0446 8.23256 17.0866 8.16034C18.0254 6.69533 19.369 5.52926 20.9572 4.80119C22.5454 4.07313 24.311 3.81381 26.0436 4.05417C27.0584 4.1467 28.0366 4.47713 28.8976 5.01826C29.7585 5.55939 30.4777 6.29574 30.9958 7.16668C33.1307 10.6591 32.7773 16.5237 29.9896 23.679Z" fill="#67BC9E"/>
</g>
<defs>
<clipPath id="clip0">
<rect width="38" height="50" fill="white"/>
</clipPath>
</defs>
</svg>
