<svg width="38" height="50" viewBox="0 0 38 50" fill="none" xmlns="http://www.w3.org/2000/svg">
<g clip-path="url(#clip0)">
<path d="M25.4552 26.2667C25.5838 26.2675 25.7082 26.2218 25.8043 26.1386C25.9005 26.0553 25.9615 25.9404 25.9756 25.8159C26.3191 22.8226 27.2924 19.4848 28.1512 19.4848C29.0099 19.4848 29.9832 22.8226 30.3267 25.8159C30.3409 25.9404 30.4019 26.0553 30.498 26.1386C30.5941 26.2218 30.7185 26.2675 30.8472 26.2667C32.3773 26.2667 33.2049 24.185 35.9477 17.2815C37.9515 12.2166 37.3113 9.45622 36.4213 8.02791C36.0834 7.47677 35.6172 7.01049 35.0604 6.66654C34.5036 6.32259 33.8716 6.11057 33.2153 6.04753C31.9178 5.88063 30.601 6.15626 29.4888 6.82752C29.0854 7.07062 28.6204 7.19941 28.146 7.19941C27.6715 7.19941 27.2065 7.07062 26.8032 6.82752C25.6956 6.15894 24.3846 5.88339 23.0923 6.04753C22.4356 6.10939 21.8031 6.32092 21.2461 6.66499C20.6891 7.00905 20.2232 7.47597 19.8862 8.02791C18.991 9.45622 18.3248 12.2267 20.3546 17.2815C23.0975 24.185 23.925 26.2667 25.4552 26.2667ZM20.771 8.53947C21.0235 8.11916 21.3761 7.76404 21.7991 7.50401C22.2221 7.24399 22.7031 7.08668 23.2016 7.04532C24.2642 6.90611 25.3434 7.13371 26.2515 7.68856C26.8207 8.03115 27.4767 8.21263 28.146 8.21263C28.8152 8.21263 29.4712 8.03115 30.0404 7.68856C30.9505 7.14354 32.0257 6.91998 33.0852 7.05545C33.5861 7.10202 34.0683 7.26416 34.4919 7.52842C34.9156 7.79268 35.2683 8.15144 35.5209 8.57492C36.6087 10.3223 36.4109 13.2701 34.964 16.9067C33.2361 21.2676 32.0807 24.18 31.2687 25.0106C30.9669 22.8479 30.1185 18.4667 28.146 18.4667C26.1734 18.4667 25.325 22.853 25.0232 25.0106C24.2165 24.185 23.0558 21.2727 21.3279 16.9067C19.881 13.2701 19.6832 10.3223 20.7762 8.5496L20.771 8.53947ZM39.4452 28.5561C39.3431 28.3043 39.1901 28.075 38.9953 27.8817C38.8006 27.6885 38.568 27.5351 38.3114 27.4308C38.0547 27.3265 37.7792 27.2732 37.5011 27.2742C37.2229 27.2753 36.9478 27.3305 36.692 27.4367L17.5077 35.3583L9.40927 33.388L11.5536 31.2962L16.3366 30.5213C16.8485 30.4043 17.2959 30.1032 17.589 29.6785C17.8822 29.2538 17.9993 28.7368 17.9169 28.2315C17.8346 27.7262 17.5588 27.2699 17.145 26.9543C16.7312 26.6387 16.21 26.4871 15.6861 26.5301L7.70735 27.695C7.17276 27.7716 6.6818 28.0257 6.31772 28.4142L1.18595 33.8641H-0.479536C-0.617572 33.8641 -0.749954 33.9175 -0.84756 34.0125C-0.945166 34.1074 -1 34.2363 -1 34.3706V43.4875C-1 43.6218 -0.945166 43.7506 -0.84756 43.8456C-0.749954 43.9406 -0.617572 43.994 -0.479536 43.994C-0.43306 44.002 -0.385487 44.002 -0.339011 43.994H20.6721C20.7847 43.994 20.8943 43.9584 20.9844 43.8927L38.7582 30.9214C39.1233 30.6549 39.3883 30.2791 39.5124 29.8517C39.6366 29.4243 39.6129 28.9691 39.4452 28.5561ZM38.1389 30.1262L20.5003 42.981H0.0409271V34.8771H1.41495C1.48719 34.8776 1.55874 34.8634 1.62505 34.8355C1.69136 34.8076 1.75097 34.7666 1.80009 34.715L7.0828 29.1031C7.28852 28.8861 7.5637 28.7432 7.86349 28.6979L15.8422 27.5431C15.9892 27.5222 16.1392 27.5322 16.2819 27.5723C16.4246 27.6125 16.5569 27.682 16.6697 27.7761C16.8169 27.903 16.9242 28.068 16.979 28.2518C17.0338 28.4356 17.034 28.6308 16.9796 28.8147C16.9251 28.9986 16.8182 29.1638 16.6713 29.291C16.5243 29.4182 16.3433 29.5023 16.1493 29.5336L11.2049 30.3338C11.0976 30.3538 10.9983 30.403 10.9186 30.4757L8.3163 33.0081C8.28901 33.0433 8.26464 33.0806 8.24343 33.1196L7.24935 32.8764C7.11759 32.8499 6.9804 32.8741 6.86656 32.9439C6.75273 33.0137 6.67109 33.1237 6.63877 33.2508C6.60646 33.3779 6.62598 33.5122 6.69324 33.6256C6.7605 33.739 6.87027 33.8227 6.99953 33.859L17.4088 36.3915C17.5191 36.4146 17.6342 36.4022 17.7367 36.356L37.0979 28.3585C37.2264 28.3056 37.3644 28.2783 37.5039 28.2783C37.6434 28.2783 37.7814 28.3056 37.9099 28.3585C38.0392 28.41 38.1565 28.4864 38.2549 28.583C38.3532 28.6796 38.4306 28.7944 38.4824 28.9207C38.5681 29.1282 38.581 29.3575 38.5188 29.5728C38.4567 29.7881 38.3231 29.9773 38.1389 30.111V30.1262Z" fill="#67BC9E"/>
</g>
<defs>
<clipPath id="clip0">
<rect width="38" height="50" fill="white"/>
</clipPath>
</defs>
</svg>
