<svg width="38" height="50" viewBox="0 0 38 50" fill="none" xmlns="http://www.w3.org/2000/svg">
<path d="M37.9959 12.8735C38.0042 12.8099 37.9998 12.7454 37.9831 12.6836C37.9664 12.6217 37.9376 12.5638 37.8985 12.5131L34.912 8.65573C34.833 8.5539 34.7169 8.48749 34.589 8.47106C34.4612 8.45463 34.3321 8.48951 34.2299 8.56807L31.9644 10.3165C31.4186 9.15108 30.5785 8.14788 29.5269 7.40574C28.4752 6.6636 27.2483 6.20813 25.967 6.08418C23.7934 5.80267 21.5871 6.2315 19.6773 7.30664C18.725 7.84621 17.649 8.12982 16.5544 8.12982C15.4597 8.12982 14.3838 7.84621 13.4315 7.30664C11.5217 6.2315 9.31534 5.80267 7.14175 6.08418C5.98537 6.19085 4.87087 6.57057 3.89002 7.19208C2.90917 7.81359 2.09001 8.65911 1.50001 9.65903C-0.780076 13.419 -0.453654 19.5848 2.43055 27.0268C7.32688 39.7238 8.98335 44 11.5168 44C11.6372 44.0007 11.7537 43.9568 11.8436 43.8768C11.9336 43.7967 11.9907 43.6862 12.004 43.5665C12.5448 38.6962 14.2548 30.962 16.5593 30.962C18.8637 30.962 20.5738 38.6913 21.1146 43.5665C21.1278 43.6862 21.1849 43.7967 21.2749 43.8768C21.3649 43.9568 21.4813 44.0007 21.6017 44C24.1352 44 25.7868 39.7238 30.6928 27.0268C32.1544 23.2376 32.9632 19.8089 33.1045 16.8282L37.8108 13.1949C37.9125 13.1164 37.979 13.0008 37.9959 12.8735ZM29.7769 26.6761C25.7624 37.0597 23.7698 42.2223 22.0159 42.9382C21.6797 40.2352 20.1645 29.9879 16.5593 29.9879C12.954 29.9879 11.434 40.2157 11.0978 42.9382C9.34388 42.2223 7.35124 37.0597 3.33674 26.6761C0.574331 19.5215 0.218678 13.6576 2.36234 10.1655C2.8738 9.29846 3.58309 8.56455 4.43232 8.02369C5.28156 7.48283 6.24668 7.15035 7.24893 7.05338C9.21802 6.79623 11.2175 7.18233 12.9491 8.15409C14.0495 8.77413 15.2913 9.0999 16.5544 9.0999C17.8175 9.0999 19.0593 8.77413 20.1596 8.15409C21.8895 7.18237 23.8875 6.79624 25.855 7.05338C27.009 7.16877 28.1111 7.59099 29.0466 8.27618C29.9822 8.96136 30.7172 9.8845 31.1752 10.9497L19.0586 20.2667L14.0453 15.971C13.9967 15.9291 13.9402 15.8971 13.8792 15.8771C13.8181 15.857 13.7537 15.8492 13.6897 15.8541C13.5617 15.8636 13.4427 15.9231 13.3584 16.0197L10.1867 19.7212C10.101 19.8175 10.0569 19.9439 10.0642 20.0726C10.0715 20.2014 10.1296 20.3219 10.2257 20.4079L18.5665 27.5381C18.6548 27.6136 18.7671 27.655 18.8832 27.655C18.9899 27.6541 19.0938 27.62 19.1804 27.5576L32.0667 17.6172C31.7275 20.7284 30.9569 23.7773 29.7769 26.6761ZM18.8978 26.5397L11.2439 19.9842L13.7822 17.023L18.7273 21.2651C18.8141 21.3355 18.9225 21.3739 19.0342 21.3739C19.146 21.3739 19.2544 21.3355 19.3412 21.2651L34.4443 9.62007L36.8267 12.7079L18.8978 26.5397Z" fill="#67BC9E"/>
</svg>
