<svg width="38" height="50" viewBox="0 0 38 50" fill="none" xmlns="http://www.w3.org/2000/svg">
<path d="M33.8163 31.8636C32.447 31.2449 31.6674 30.7333 31.0582 29.871L31.1313 29.6712C33.5191 23.3375 33.7627 18.061 31.8233 14.8844C31.339 14.0634 30.6678 13.3681 29.8643 12.8551C29.0608 12.3421 28.1476 12.0258 27.1988 11.932C25.2801 11.6737 23.332 12.1054 21.7021 13.15C21.0398 13.5724 20.2705 13.7969 19.4849 13.7969C18.6992 13.7969 17.93 13.5724 17.2677 13.15C15.6374 12.1062 13.6896 11.6746 11.7709 11.932C10.8222 12.0258 9.90896 12.3421 9.10544 12.8551C8.30192 13.3681 7.63075 14.0634 7.14644 14.8844C7.02622 15.077 6.91563 15.2753 6.81508 15.4788C6.42298 14.881 6.08383 14.2501 5.80149 13.5933C5.76273 13.5083 5.70031 13.4362 5.62169 13.3856C5.54306 13.335 5.45154 13.3081 5.35805 13.3081C5.26456 13.3081 5.17304 13.335 5.09441 13.3856C5.01579 13.4362 4.95337 13.5083 4.91461 13.5933C3.75971 16.156 2.84846 17.0671 0.285261 18.2218C0.200184 18.2606 0.128054 18.323 0.0774739 18.4016C0.026894 18.4802 0 18.5717 0 18.6652C0 18.7586 0.026894 18.8501 0.0774739 18.9288C0.128054 19.0074 0.200184 19.0698 0.285261 19.1085C2.84846 20.2632 3.75971 21.1743 4.91461 23.737C4.95337 23.8221 5.01579 23.8942 5.09441 23.9448C5.17304 23.9953 5.26456 24.0222 5.35805 24.0222C5.45154 24.0222 5.54306 23.9953 5.62169 23.9448C5.70031 23.8942 5.76273 23.8221 5.80149 23.737L6.08413 23.1426C6.44006 25.366 7.02803 27.546 7.8384 29.6468C11.8684 40.3654 13.1987 44 15.3623 44C15.4828 44.0007 15.5992 43.9568 15.6892 43.8767C15.7792 43.7967 15.8364 43.6861 15.8496 43.5664C16.3369 39.1815 17.7598 33.0183 19.4897 33.0183C21.2197 33.0183 22.6572 39.1864 23.1299 43.5664C23.1431 43.6861 23.2002 43.7967 23.2902 43.8767C23.3802 43.9568 23.4967 44.0007 23.6172 44C25.2983 44 26.4971 41.7637 28.8897 35.5957C29.0213 35.8393 29.148 36.0829 29.2845 36.4044C29.3232 36.4895 29.3856 36.5616 29.4643 36.6122C29.5429 36.6627 29.6344 36.6896 29.7279 36.6896C29.8214 36.6896 29.9129 36.6627 29.9915 36.6122C30.0702 36.5616 30.1326 36.4895 30.1713 36.4044C31.0972 34.3581 31.7794 33.6761 33.8261 32.7504C33.9112 32.7116 33.9833 32.6492 34.0339 32.5706C34.0845 32.492 34.1113 32.4005 34.1113 32.307C34.1113 32.2135 34.0845 32.122 34.0339 32.0434C33.9833 31.9648 33.9112 31.9024 33.8261 31.8636H33.8163ZM7.15618 17.3692C7.74621 17.8848 8.40157 18.3206 9.10538 18.6652C8.2558 19.0707 7.48134 19.6177 6.81508 20.2827C6.80657 19.3011 6.92117 18.3223 7.15618 17.3692ZM5.35318 22.4118C4.59255 20.7549 3.26301 19.4257 1.60584 18.6652C3.26301 17.9047 4.59255 16.5754 5.35318 14.9185C5.64191 15.4974 5.988 16.0458 6.38625 16.5556C5.91423 18.147 5.74886 19.8135 5.89895 21.4666C5.71378 21.7541 5.53348 22.0756 5.35318 22.4118ZM24.0265 42.9038C23.6951 40.1657 22.4623 32.0439 19.4849 32.0439C16.5075 32.0439 15.2746 40.1657 14.9432 42.9038C13.5593 42.1242 11.8538 37.5835 8.76427 29.3058C7.80343 26.8772 7.17245 24.3308 6.88817 21.7346C7.69709 20.5702 8.67656 19.8978 10.426 19.1085C10.511 19.0698 10.5832 19.0074 10.6338 18.9288C10.6843 18.8501 10.7112 18.7586 10.7112 18.6652C10.7112 18.5717 10.6843 18.4802 10.6338 18.4016C10.5832 18.323 10.511 18.2606 10.426 18.2218C9.33705 17.7935 8.34345 17.1544 7.50217 16.3412C7.63771 16.0036 7.80069 15.6777 7.98947 15.3668C8.39598 14.6726 8.96121 14.0847 9.63883 13.6511C10.3164 13.2175 11.0872 12.9506 11.8879 12.8723C13.5874 12.6379 15.3149 13.0162 16.7609 13.9392C17.5796 14.4641 18.5318 14.7432 19.5044 14.7432C20.477 14.7432 21.4291 14.4641 22.2479 13.9392C23.6937 13.0158 25.4213 12.6375 27.1208 12.8723C27.9215 12.9506 28.6923 13.2175 29.3699 13.6511C30.0475 14.0847 30.6127 14.6726 31.0192 15.3668C32.7492 18.1926 32.5396 22.9282 30.4491 28.7455C30.3663 28.575 30.2786 28.3996 30.1908 28.2047C30.1521 28.1196 30.0897 28.0475 30.011 27.997C29.9324 27.9464 29.8409 27.9195 29.7474 27.9195C29.6539 27.9195 29.5624 27.9464 29.4838 27.997C29.4051 28.0475 29.3427 28.1196 29.304 28.2047C28.3781 30.251 27.6959 30.9331 25.6492 31.8588C25.5641 31.8975 25.492 31.9599 25.4414 32.0385C25.3908 32.1172 25.3639 32.2087 25.3639 32.3021C25.3639 32.3956 25.3908 32.4871 25.4414 32.5657C25.492 32.6443 25.5641 32.7067 25.6492 32.7455C26.6597 33.1201 27.5573 33.7475 28.2563 34.5676C26.3071 39.5225 25.0791 42.3094 24.0265 42.9038ZM26.9503 32.307C28.1578 31.7125 29.132 30.7316 29.7182 29.5202C29.801 29.6809 29.8887 29.8271 29.9716 29.9684C29.4843 31.2498 29.0408 32.4483 28.6266 33.5396C28.1304 33.0413 27.5579 32.6252 26.9308 32.307H26.9503ZM29.7182 35.0938C29.5915 34.8502 29.4599 34.6359 29.3283 34.4312C29.7376 33.3642 30.1762 32.1949 30.6586 30.9087C31.1817 31.4859 31.8081 31.9601 32.5055 32.307C31.2907 32.898 30.3093 33.8793 29.7182 35.0938ZM37.7147 8.96485C36.2139 8.28763 35.7119 7.78581 35.0346 6.28521C34.9958 6.20015 34.9334 6.12803 34.8548 6.07746C34.7762 6.02689 34.6846 6 34.5911 6C34.4977 6 34.4061 6.02689 34.3275 6.07746C34.2489 6.12803 34.1865 6.20015 34.1477 6.28521C33.4704 7.78581 32.9684 8.28763 31.4676 8.96485C31.3825 9.00361 31.3104 9.06601 31.2598 9.14463C31.2092 9.22324 31.1823 9.31474 31.1823 9.40821C31.1823 9.50169 31.2092 9.59319 31.2598 9.6718C31.3104 9.75041 31.3825 9.81282 31.4676 9.85157C32.9684 10.5288 33.4704 11.0306 34.1477 12.5312C34.1865 12.6163 34.2489 12.6884 34.3275 12.739C34.4061 12.7895 34.4977 12.8164 34.5911 12.8164C34.6846 12.8164 34.7762 12.7895 34.8548 12.739C34.9334 12.6884 34.9958 12.6163 35.0346 12.5312C35.7119 11.0306 36.2139 10.5288 37.7147 9.85157C37.7998 9.81282 37.8719 9.75041 37.9225 9.6718C37.9731 9.59319 38 9.50169 38 9.40821C38 9.31474 37.9731 9.22324 37.9225 9.14463C37.8719 9.06601 37.7998 9.00361 37.7147 8.96485ZM34.5911 11.2499C34.1707 10.469 33.5302 9.82863 32.7492 9.40821C33.5302 8.98779 34.1707 8.34745 34.5911 7.56657C35.0116 8.34745 35.6521 8.98779 36.4331 9.40821C35.6521 9.82863 35.0116 10.469 34.5911 11.2499Z" fill="#67BC9E"/>
</svg>
