<svg width="38" height="50" viewBox="0 0 38 50" fill="none" xmlns="http://www.w3.org/2000/svg">
<path d="M37.5128 13.3827H33.5417V9.41798C33.5417 9.2888 33.4903 9.16492 33.399 9.07357C33.3076 8.98223 33.1836 8.93091 33.0544 8.93091H31.1054C30.4919 8.12802 29.719 7.46049 28.8353 6.97017C27.9515 6.47986 26.976 6.17733 25.9698 6.08155C24.1903 5.85656 22.3828 6.10566 20.7306 6.80361C19.0783 7.50156 17.6399 8.62358 16.561 10.056C15.4813 8.62203 14.0413 7.49904 12.3872 6.80101C10.733 6.10299 8.92361 5.85477 7.14251 6.08155C5.98601 6.18823 4.87139 6.56798 3.89044 7.18953C2.90948 7.81108 2.09024 8.65666 1.50017 9.65665C-0.780159 13.4168 -0.453703 19.5831 2.43081 27.0256C7.32767 39.7235 8.98431 44 11.518 44C11.6385 44.0007 11.7549 43.9568 11.8449 43.8768C11.9349 43.7967 11.992 43.6862 12.0053 43.5665C12.5412 38.6958 14.2564 30.9611 16.561 30.9611C18.8657 30.9611 20.576 38.6909 21.1168 43.5665C21.1301 43.6862 21.1872 43.7967 21.2772 43.8768C21.3672 43.9568 21.4836 44.0007 21.6041 44C24.1378 44 25.7895 39.7235 30.6961 27.0256C30.8959 26.5044 31.0859 25.993 31.2613 25.4913H33.0642C33.1934 25.4913 33.3173 25.44 33.4087 25.3487C33.5001 25.2573 33.5514 25.1334 33.5514 25.0042V21.0395H37.5128C37.642 21.0395 37.7659 20.9882 37.8573 20.8968C37.9487 20.8055 38 20.6816 38 20.5524V13.8698C38 13.7406 37.9487 13.6167 37.8573 13.5254C37.7659 13.4341 37.642 13.3827 37.5128 13.3827ZM29.7801 26.6749C25.7652 37.0592 23.7723 42.2222 22.0182 42.9382C21.682 40.2349 20.1667 29.987 16.561 29.987C12.9554 29.987 11.4352 40.2155 11.099 42.9382C9.34488 42.2222 7.35203 37.0592 3.3371 26.6749C0.569521 19.5198 0.213829 13.6555 2.33336 10.1583C2.84798 9.28807 3.56209 8.5525 4.41685 8.01222C5.27161 7.47195 6.24256 7.14243 7.24971 7.05082C8.96764 6.81317 10.7177 7.07325 12.2922 7.8002C13.8667 8.52714 15.1994 9.69042 16.1323 11.152C16.1748 11.2269 16.2364 11.2893 16.3109 11.3326C16.3853 11.376 16.47 11.3989 16.5562 11.3989C16.6424 11.3989 16.727 11.376 16.8015 11.3326C16.8759 11.2893 16.9376 11.2269 16.9801 11.152C17.9121 9.69082 19.244 8.52773 20.8176 7.80078C22.3913 7.07382 24.1405 6.81354 25.8578 7.05082C27.3563 7.19459 28.7566 7.86003 29.8142 8.93091H26.3694C26.2401 8.93091 26.1162 8.98223 26.0248 9.07357C25.9335 9.16492 25.8821 9.2888 25.8821 9.41798V13.3827H21.9208C21.7916 13.3827 21.6676 13.4341 21.5762 13.5254C21.4849 13.6167 21.4335 13.7406 21.4335 13.8698V20.5524C21.4335 20.6816 21.4849 20.8055 21.5762 20.8968C21.6676 20.9882 21.7916 21.0395 21.9208 21.0395H25.887V25.0042C25.887 25.1334 25.9383 25.2573 26.0297 25.3487C26.1211 25.44 26.245 25.4913 26.3742 25.4913H30.204C30.0741 25.881 29.9328 26.2755 29.7801 26.6749ZM37.0255 20.0653H33.0544C32.9252 20.0653 32.8013 20.1167 32.7099 20.208C32.6185 20.2993 32.5672 20.4232 32.5672 20.5524V24.5172H26.8566V20.5524C26.8566 20.4232 26.8053 20.2993 26.7139 20.208C26.6225 20.1167 26.4986 20.0653 26.3694 20.0653H22.408V14.3569H26.3742C26.5035 14.3569 26.6274 14.3056 26.7188 14.2142C26.8102 14.1229 26.8615 13.999 26.8615 13.8698V9.90505H32.5672V13.8698C32.5672 13.999 32.6185 14.1229 32.7099 14.2142C32.8013 14.3056 32.9252 14.3569 33.0544 14.3569H37.0255V20.0653Z" fill="#67BC9E"/>
</svg>
