<svg width="38" height="50" viewBox="0 0 38 50" fill="none" xmlns="http://www.w3.org/2000/svg">
<path d="M37.5241 17.3813H35.4903C35.3059 16.8683 35.0517 16.3759 34.7164 15.9093C34.5077 15.6184 34.3565 15.2835 34.1964 14.9287L34.1691 14.8689C34.1602 14.8387 34.164 14.7455 34.1663 14.684L34.1695 14.5903C34.208 12.7868 34.093 11.3143 33.8077 9.95661C33.6194 9.06044 32.7311 6.68735 31.6489 6.1342C31.6434 6.13139 31.6374 6.132 31.6319 6.12942C31.6259 6.12664 31.6221 6.12124 31.616 6.11866C31.1721 5.93312 30.7379 5.96582 30.3613 6.21213C28.9261 7.15121 28.7888 11.2292 28.7758 12.0449C28.7758 12.4177 28.478 12.7205 28.1099 12.7277C27.7418 12.7205 27.4441 12.4176 27.4441 12.0372C27.4311 11.2294 27.2938 7.15121 25.8591 6.21213C25.4824 5.96582 25.0487 5.93382 24.6043 6.11866C24.5835 6.12748 24.5631 6.13791 24.5436 6.14951C23.7541 6.62264 23.3478 7.3015 23.0815 7.84027C22.6756 8.66222 22.4075 9.58089 22.2619 10.6492C22.1338 11.5901 22.0137 14.2389 22.0281 14.6492C22.0364 14.8965 21.9771 15.1214 21.8458 15.3378L21.7641 15.4744C21.6848 15.6087 21.6064 15.7435 21.5113 15.8694C21.1549 16.3413 20.8875 16.8446 20.6975 17.3813H17.5669C17.3825 16.8683 17.1283 16.3759 16.793 15.9093C16.5833 15.6171 16.4312 15.2805 16.2707 14.9243L16.2452 14.8689C16.2364 14.8387 16.2401 14.7455 16.2424 14.684L16.2456 14.5903C16.2846 12.7896 16.17 11.3173 15.8843 9.95638C15.6955 9.05998 14.8063 6.68666 13.725 6.13397C13.7194 6.1311 13.7132 6.13171 13.7075 6.12907C13.7017 6.12638 13.6981 6.12116 13.6921 6.11866C13.2477 5.93382 12.8145 5.96582 12.4378 6.21213C11.0027 7.15098 10.8654 11.2292 10.8524 12.0449C10.8524 12.4177 10.5546 12.7205 10.1865 12.7277C9.81842 12.7205 9.52065 12.4176 9.52065 12.0372C9.50767 11.2292 9.37036 7.15121 7.93519 6.21213C7.55854 5.96582 7.12484 5.93382 6.68046 6.11866C6.65959 6.12748 6.63918 6.13791 6.61923 6.14974C5.83068 6.62264 5.42434 7.30173 5.15808 7.84027C4.75267 8.66153 4.4841 9.58019 4.33799 10.6494C4.20996 11.5929 4.08982 14.2403 4.1042 14.6492C4.11255 14.8965 4.05318 15.1217 3.92237 15.3378L3.84212 15.4726C3.76188 15.6075 3.68302 15.7432 3.58793 15.8694C3.2314 16.3414 2.96387 16.8448 2.77372 17.3813H0.474989C0.212446 17.3813 0 17.594 0 17.8563C0 18.1186 0.212446 18.3313 0.474989 18.3313H2.52883C2.46166 18.7308 2.42838 19.1464 2.43803 19.5846C2.45705 20.472 2.64769 21.1761 3.0378 21.8007C3.72848 22.9059 5.09407 23.5945 6.53064 23.5945C6.67768 23.5945 6.82518 23.5873 6.97269 23.5727C7.61328 23.5089 8.22371 23.353 8.7873 23.1095C9.69599 22.7159 10.5578 22.709 11.4211 23.0861C12.5334 23.5722 13.6392 23.7102 14.7107 23.4945C16.37 23.1594 17.5231 22.0654 17.7954 20.5678C17.9369 19.7873 17.9387 19.0418 17.8159 18.3313H20.4527C20.3854 18.7308 20.3521 19.1464 20.3614 19.5849C20.3814 20.4734 20.572 21.1775 20.9617 21.8007C21.6524 22.9059 23.018 23.5945 24.4545 23.5945C24.6016 23.5945 24.7491 23.5873 24.8966 23.5727C25.5455 23.5079 26.1388 23.3565 26.7107 23.1095C27.6194 22.7159 28.4813 22.7085 29.3445 23.0861C30.4573 23.5729 31.5631 23.7095 32.6346 23.4945C34.2943 23.1594 35.4474 22.0654 35.7188 20.5678C35.8603 19.7873 35.8621 19.0418 35.7393 18.3313H37.5241C37.7867 18.3313 37.9991 18.1186 37.9991 17.8563C37.9991 17.594 37.7867 17.3813 37.5241 17.3813ZM4.34633 16.4413C4.46833 16.2797 4.56528 16.1155 4.65944 15.9564L4.73505 15.8295C4.96095 15.4559 5.0681 15.0477 5.05325 14.6167C5.04119 14.2554 5.15716 11.6773 5.27961 10.7776C5.41135 9.81212 5.65024 8.98878 6.00972 8.26099C6.31633 7.64035 6.63686 7.25604 7.07659 6.98352C7.24497 6.92137 7.3396 6.95732 7.41521 7.00695C8.16295 7.49632 8.54145 10.2521 8.57068 12.0449C8.57068 12.9277 9.27319 13.6448 10.1466 13.6737C10.156 13.6742 10.1638 13.6791 10.1733 13.6791C10.1778 13.6791 10.182 13.6778 10.1865 13.6777C10.191 13.6778 10.1952 13.6791 10.1997 13.6791C10.2092 13.6791 10.2171 13.6742 10.2264 13.6737C11.0998 13.6448 11.8024 12.9278 11.8024 12.0525C11.8316 10.2521 12.2096 7.49632 12.9578 7.00695C13.0352 6.95642 13.1337 6.92195 13.3077 6.98979C13.911 7.32063 14.7449 9.1562 14.9547 10.1519C15.2247 11.4396 15.3332 12.8434 15.2957 14.5706L15.2933 14.6462C15.2869 14.8099 15.2776 15.0344 15.3773 15.2545L15.4047 15.3151C15.5777 15.6982 15.7563 16.0944 16.0216 16.4636C16.2351 16.7607 16.4107 17.0664 16.5512 17.3813H12.4615V17.2366C12.4615 16.3017 11.7008 15.5412 10.7661 15.5412H9.54246C8.60778 15.5412 7.84706 16.3017 7.84706 17.2366V17.3813H3.79574C3.9409 17.0523 4.1218 16.7387 4.34633 16.4413ZM11.5115 17.2366V18.4763C11.5115 18.8872 11.1771 19.2217 10.7661 19.2217H9.54246C9.13148 19.2217 8.79704 18.8872 8.79704 18.4763V17.2366C8.79704 16.8256 9.13148 16.4912 9.54246 16.4912H10.7661C11.1771 16.4912 11.5115 16.8256 11.5115 17.2366ZM16.8603 20.3983C16.6608 21.4988 15.7869 22.3079 14.5229 22.5631C13.6355 22.7424 12.7454 22.6285 11.8014 22.2159C10.6988 21.7335 9.55776 21.7411 8.41018 22.2374C7.93009 22.445 7.42913 22.5726 6.87899 22.6273C5.65302 22.7507 4.40849 22.2017 3.84351 21.2974C3.54804 20.8243 3.40332 20.2735 3.38801 19.564C3.37835 19.1291 3.41439 18.7198 3.49319 18.3313H7.84706V18.4763C7.84706 19.4112 8.60778 20.1717 9.54246 20.1717H10.7661C11.7008 20.1717 12.4615 19.4112 12.4615 18.4763V18.3313H16.8585C16.993 18.9775 16.9937 19.6634 16.8603 20.3983ZM22.2693 16.442C22.3913 16.2804 22.4882 16.1164 22.5819 15.958L22.6585 15.83C22.8848 15.4563 22.992 15.0481 22.9771 14.6167C22.9651 14.254 23.081 11.6747 23.2035 10.7774C23.3348 9.81259 23.5737 8.98924 23.9331 8.26099C24.2397 7.64035 24.5603 7.25581 25.0005 6.98352C25.1689 6.92137 25.2635 6.95732 25.3386 7.00695C26.0868 7.49632 26.4649 10.2521 26.4941 12.0449C26.4941 12.9277 27.1966 13.6448 28.07 13.6737C28.0794 13.6742 28.0872 13.6791 28.0967 13.6791C28.1012 13.6791 28.1054 13.6778 28.1099 13.6777C28.1145 13.6778 28.1186 13.6791 28.1232 13.6791C28.1326 13.6791 28.1405 13.6742 28.1498 13.6737C29.0232 13.6448 29.7258 12.9278 29.7258 12.0525C29.755 10.2521 30.1335 7.49632 30.8812 7.00695C30.9592 6.95636 31.0575 6.92174 31.2322 6.98999C31.836 7.32249 32.6689 9.15678 32.8781 10.1519C33.1481 11.437 33.2567 12.8409 33.2195 14.5706L33.2172 14.6462C33.2107 14.8099 33.2015 15.0344 33.3012 15.2545L33.3304 15.3195C33.5025 15.7012 33.6806 16.0958 33.945 16.4636C34.1585 16.7607 34.3341 17.0664 34.4746 17.3813H30.4039V17.2366C30.4039 16.3017 29.6432 15.5412 28.7085 15.5412H27.4849C26.5502 15.5412 25.7895 16.3017 25.7895 17.2366V17.3813H21.7192C21.8643 17.0524 22.045 16.739 22.2693 16.442ZM29.454 17.2366V18.4763C29.454 18.8872 29.1195 19.2217 28.7085 19.2217H27.4849C27.0739 19.2217 26.7395 18.8872 26.7395 18.4763V17.2366C26.7395 16.8256 27.0739 16.4912 27.4849 16.4912H28.7085C29.1195 16.4912 29.454 16.8256 29.454 17.2366ZM34.7837 20.3985C34.5847 21.4988 33.7108 22.3079 32.4468 22.5631C31.5608 22.7417 30.6693 22.6285 29.7253 22.2159C28.6223 21.733 27.4807 21.7407 26.3336 22.2374C25.853 22.445 25.3525 22.5726 24.8029 22.6273C23.5783 22.7507 22.3324 22.2017 21.7669 21.2972C21.4719 20.825 21.3272 20.2742 21.3114 19.5642C21.3019 19.1292 21.338 18.7198 21.4168 18.3313H25.7895V18.4763C25.7895 19.4112 26.5502 20.1717 27.4849 20.1717H28.7085C29.6432 20.1717 30.4039 19.4112 30.4039 18.4763V18.3313H34.7819C34.9164 18.9776 34.9171 19.6635 34.7837 20.3985Z" fill="#67BC9E"/>
<path d="M37.5241 31.7243H35.4708C35.5376 31.3276 35.5707 30.9148 35.5611 30.4796C35.5421 29.5959 35.3514 28.8946 34.9609 28.2721C34.1997 27.0598 32.6221 26.3536 31.0264 26.509C30.3863 26.572 29.7763 26.7272 29.2128 26.9698C28.3031 27.3608 27.4413 27.3685 26.5771 26.9928C25.4643 26.5085 24.3576 26.3717 23.2888 26.5869C21.6292 26.9199 20.476 28.0091 20.2042 29.5004C20.0627 30.2764 20.0607 31.0177 20.1828 31.7243H17.5469C17.6138 31.3275 17.647 30.9146 17.6377 30.4791C17.6177 29.5945 17.4271 28.8932 17.037 28.2721C16.2758 27.0598 14.6982 26.3536 13.1026 26.509C12.4541 26.573 11.8608 26.7237 11.2893 26.9698C10.3802 27.3613 9.51833 27.3685 8.65371 26.9928C7.54091 26.5085 6.43369 26.3724 5.36496 26.5869C3.70529 26.9202 2.55214 28.0093 2.28078 29.5004C2.13928 30.2764 2.13725 31.0177 2.25942 31.7243H0.474989C0.212446 31.7243 0 31.937 0 32.1993C0 32.4616 0.212446 32.6743 0.474989 32.6743H2.50926C2.69364 33.185 2.94787 33.6752 3.28318 34.1396C3.49191 34.4281 3.64266 34.761 3.8027 35.113L3.83006 35.1733C3.83888 35.2033 3.83517 35.2953 3.83285 35.3561L3.8296 35.4496C3.7911 37.2447 3.90614 38.71 4.19141 40.0615C4.37973 40.9537 5.26848 43.3159 6.35112 43.8667C6.35672 43.8696 6.36289 43.869 6.36855 43.8716C6.3744 43.8743 6.37806 43.8795 6.38406 43.882C6.57331 43.9609 6.76117 44.0001 6.943 44.0001C7.18885 44.0001 7.42402 43.9286 7.64064 43.7867C9.07303 42.8476 9.21033 38.793 9.22332 37.9822C9.22332 37.6126 9.52109 37.3124 9.88919 37.3052C10.2573 37.3124 10.5551 37.6127 10.5551 37.9899C10.568 38.793 10.7049 42.8476 12.1373 43.7867C12.3539 43.9289 12.5891 44.0001 12.8349 44.0001C13.0167 44.0001 13.2046 43.9609 13.3939 43.882C13.4147 43.8732 13.4351 43.863 13.4551 43.8514C14.2441 43.3806 14.6509 42.7045 14.9172 42.1681C15.3235 41.35 15.5916 40.4351 15.7373 39.3717C15.8653 38.4354 15.9854 35.7991 15.971 35.3904C15.9627 35.1457 16.0221 34.9224 16.1529 34.7079L16.235 34.5708C16.3138 34.4377 16.3922 34.3036 16.4873 34.1788C16.8436 33.7093 17.1109 33.2084 17.3011 32.6743H20.4327C20.6171 33.185 20.8713 33.6752 21.2066 34.1396C21.4163 34.4295 21.5679 34.7637 21.7284 35.1177L21.7539 35.1733C21.7628 35.2033 21.759 35.2953 21.7567 35.3561L21.7535 35.4493C21.7145 37.2417 21.8291 38.7072 22.1148 40.0617C22.3036 40.9541 23.1933 43.3168 24.275 43.8667C24.2806 43.8695 24.2867 43.8689 24.2924 43.8715C24.2983 43.8743 24.3019 43.8795 24.3079 43.882C24.4972 43.9609 24.685 44.0001 24.8669 44.0001C25.1123 44.0001 25.3479 43.9289 25.5641 43.7869C26.9964 42.8478 27.1337 38.7933 27.1467 37.9822C27.1467 37.6126 27.4445 37.3124 27.8126 37.3052C28.1807 37.3124 28.4785 37.6127 28.4785 37.9899C28.4915 38.793 28.6288 42.8476 30.0611 43.7867C30.2778 43.9286 30.5129 44.0001 30.7588 44.0001C30.9406 44.0001 31.1285 43.9609 31.3177 43.882C31.3391 43.8732 31.3595 43.863 31.379 43.8514C32.1675 43.3803 32.5743 42.7045 32.8406 42.1681C33.2464 41.3505 33.5146 40.436 33.6611 39.3715C33.7892 38.4326 33.9093 35.7977 33.8949 35.3904C33.8866 35.1457 33.9459 34.9224 34.0763 34.7079L34.1575 34.5726C34.2368 34.4386 34.3161 34.3038 34.4107 34.1788C34.7671 33.7091 35.0346 33.2082 35.2248 32.6743H37.5241C37.7867 32.6743 37.9991 32.4616 37.9991 32.1993C37.9991 31.937 37.7867 31.7243 37.5241 31.7243ZM3.21499 29.6706C3.41445 28.5766 4.28789 27.772 5.55236 27.5183C6.44065 27.3397 7.33125 27.4534 8.27474 27.8639C9.37779 28.3442 10.5184 28.3366 11.6651 27.8423C12.1452 27.6354 12.6461 27.5086 13.1963 27.4543C14.4171 27.3314 15.6672 27.8773 16.2327 28.7772C16.5277 29.2469 16.6719 29.7945 16.6877 30.5C16.6972 30.9319 16.6611 31.3385 16.5826 31.7243H12.2096V31.5887C12.2096 30.6537 11.4489 29.893 10.5142 29.893H9.29058C8.35591 29.893 7.59519 30.6537 7.59519 31.5887V31.7243H3.21696C3.08296 31.0822 3.08212 30.4008 3.21499 29.6706ZM11.2597 31.5887V32.81C11.2597 33.2212 10.9252 33.5556 10.5142 33.5556H9.29058C8.8796 33.5556 8.54516 33.2212 8.54516 32.81V31.5887C8.54516 31.1774 8.8796 30.843 9.29058 30.843H10.5142C10.9252 30.843 11.2597 31.1774 11.2597 31.5887ZM15.7308 33.6043C15.6083 33.7651 15.5118 33.9281 15.4181 34.0858L15.3416 34.2138C15.1143 34.5863 15.0071 34.9931 15.022 35.4231C15.0341 35.784 14.9181 38.3501 14.7956 39.2427C14.6644 40.2027 14.4259 41.0214 14.0664 41.7457C13.7598 42.3633 13.4393 42.7456 12.9996 43.0164C12.8298 43.0791 12.7347 43.0424 12.6582 42.9923C11.9114 42.503 11.5343 39.7634 11.505 37.9822C11.505 37.1025 10.8024 36.3879 9.92891 36.3592C9.91963 36.3586 9.9118 36.3538 9.90241 36.3538C9.89789 36.3538 9.89371 36.3552 9.88919 36.3552C9.88467 36.3552 9.88049 36.3538 9.87597 36.3538C9.86658 36.3538 9.85875 36.3586 9.84947 36.3592C8.97597 36.3879 8.27334 37.1024 8.27334 37.9746C8.24412 39.7634 7.86654 42.503 7.11973 42.9923C7.0414 43.0434 6.94309 43.0788 6.76639 43.0103C6.16306 42.6802 5.32983 40.8553 5.12098 39.8652C4.85101 38.5869 4.74247 37.1902 4.77958 35.4695L4.7819 35.3941C4.78839 35.2306 4.79767 35.007 4.69747 34.7867L4.66779 34.7206C4.4957 34.3412 4.31758 33.949 4.05318 33.5832C3.84076 33.2889 3.66568 32.9862 3.52569 32.6743H7.59519V32.81C7.59519 33.7449 8.35591 34.5056 9.29058 34.5056H10.5142C11.4489 34.5056 12.2096 33.7449 12.2096 32.81V32.6743H16.2783C16.1337 32.9999 15.9538 33.3102 15.7308 33.6043ZM21.1384 29.6708C21.3383 28.5766 22.2118 27.772 23.4762 27.5183C24.3627 27.3395 25.2537 27.4529 26.1981 27.8639C27.3156 28.3498 28.4247 28.343 29.5885 27.8423C30.0686 27.6357 30.5695 27.5086 31.1201 27.4543C32.3415 27.3314 33.5916 27.8773 34.1561 28.777C34.4515 29.2478 34.5958 29.7951 34.6111 30.5002C34.6206 30.932 34.5846 31.3385 34.506 31.7243H30.1521V31.5887C30.1521 30.6537 29.3913 29.893 28.4567 29.893H27.233C26.2983 29.893 25.5376 30.6537 25.5376 31.5887V31.7243H21.1403C21.0063 31.0823 21.0055 30.4009 21.1384 29.6708ZM29.2021 31.5887V32.81C29.2021 33.2212 28.8676 33.5556 28.4567 33.5556H27.233C26.822 33.5556 26.4876 33.2212 26.4876 32.81V31.5887C26.4876 31.1774 26.822 30.843 27.233 30.843H28.4567C28.8676 30.843 29.2021 31.1774 29.2021 31.5887ZM33.6537 33.605C33.5317 33.7658 33.4348 33.9293 33.3406 34.0872L33.2645 34.2143C33.0382 34.587 32.931 34.9936 32.9459 35.4231C32.9579 35.7828 32.842 38.3477 32.72 39.2425C32.5878 40.2032 32.3489 41.0219 31.9899 41.7457C31.6833 42.3631 31.3627 42.7456 30.9235 43.0164C30.7537 43.0791 30.6586 43.0424 30.5821 42.9923C29.8352 42.503 29.4577 39.7634 29.4284 37.9822C29.4284 37.1025 28.7258 36.3879 27.8523 36.3592C27.843 36.3586 27.8352 36.3538 27.8258 36.3538C27.8213 36.3538 27.8171 36.3552 27.8126 36.3552C27.8081 36.3552 27.8039 36.3538 27.7994 36.3538C27.79 36.3538 27.7822 36.3586 27.7729 36.3592C26.8994 36.3879 26.1968 37.1024 26.1968 37.9746C26.168 39.763 25.7909 42.5023 25.0436 42.9923C24.9657 43.0434 24.867 43.0788 24.6902 43.0103C24.0874 42.6806 23.2537 40.8555 23.0444 39.8652C22.7744 38.5843 22.6659 37.1876 22.7035 35.4695L22.7058 35.3941C22.7123 35.2306 22.7215 35.007 22.6214 34.7867L22.5935 34.7252C22.4205 34.3442 22.2419 33.9501 21.9766 33.5832C21.7642 33.2889 21.5891 32.9862 21.4491 32.6743H25.5376V32.81C25.5376 33.7449 26.2983 34.5056 27.233 34.5056H28.4567C29.3913 34.5056 30.1521 33.7449 30.1521 32.81V32.6743H34.2018C34.0571 33 33.877 33.3106 33.6537 33.605Z" fill="#67BC9E"/>
</svg>
