<svg width="38" height="50" viewBox="0 0 38 50" fill="none" xmlns="http://www.w3.org/2000/svg">
<g clip-path="url(#clip0)">
<path d="M15.3323 23.863L16.9145 26.1168L18.4966 23.863" stroke="#67BC9E" stroke-miterlimit="10" stroke-linecap="round" stroke-linejoin="round"/>
<path d="M16.9145 26.117V20.7715" stroke="#67BC9E" stroke-miterlimit="10" stroke-linecap="round" stroke-linejoin="round"/>
<path d="M24.8251 17.1595C24.3937 15.8881 23.5307 13.4899 23.5307 12.1318C23.5307 10.3115 24.3361 8.02881 26.2634 8.02881C28.1908 8.02881 28.651 9.35796 29.8017 9.35796C30.9523 9.35796 31.3838 8.02881 33.3399 8.02881C35.2672 8.02881 36.0727 10.3115 36.0727 12.1318C36.0727 13.4899 35.2097 15.917 34.7494 17.1595" stroke="#67BC9E" stroke-miterlimit="10" stroke-linecap="round" stroke-linejoin="round"/>
<path d="M11.7366 17.1596C11.3914 16.1483 10.6722 14.299 10.3846 12.9988C10.3558 12.8543 10.327 12.7098 10.2983 12.5653C10.2695 12.4209 10.2695 12.2764 10.2695 12.103C10.2695 10.2827 11.1037 8 13.1749 8C15.2173 8 15.7063 9.32915 16.9145 9.32915C18.1226 9.32915 18.6117 8 20.6541 8C22.6964 8 23.5594 10.2827 23.5594 12.103C23.5594 13.5477 22.5239 15.8882 22.0924 17.1307" stroke="#67BC9E" stroke-miterlimit="10" stroke-linecap="round" stroke-linejoin="round"/>
<path d="M9.63666 17.1596C10.4996 15.3392 10.3846 14.4724 10.3846 13.0277C10.3846 11.2073 6.15596 8.52014 4.89025 8.52014C1.49585 8.52014 0.632871 13.0566 3.10675 17.1596C3.10675 17.1596 5.14915 17.8531 9.63666 17.1596Z" stroke="#67BC9E" stroke-miterlimit="10" stroke-linecap="round" stroke-linejoin="round"/>
<path d="M3.10675 30.3354C3.10675 30.3354 4.37246 40.7664 6.12719 40.7664C7.88192 40.7664 7.45043 32.5892 8.85997 30.7689" stroke="#67BC9E" stroke-miterlimit="10" stroke-linecap="round" stroke-linejoin="round"/>
<path d="M0 29.3531C2.21499 28.833 3.10674 30.3355 3.10674 30.3355C3.10674 30.3355 5.89705 33.3694 8.85995 30.7689C9.49281 30.2199 9.80923 29.8443 10.8448 29.8443C11.8804 29.8443 14.4406 30.9712 16.6556 30.9712C19.6185 30.9712 21.9773 29.5265 23.0416 29.5265C24.0484 29.5265 25.0265 30.7111 25.0265 30.7111C25.0265 30.7111 28.5935 32.2714 34.7207 30.2488C34.7207 30.2488 35.7562 29.1797 38 29.382" stroke="#67BC9E" stroke-miterlimit="10" stroke-linecap="round" stroke-linejoin="round"/>
<path d="M32.103 24.7588C32.6783 24.7588 33.3687 25.0188 33.5125 25.5967C34.2317 28.2261 34.7207 30.2776 34.7207 30.2776C34.6344 30.5955 34.5768 30.8844 34.6344 31.0867C35.5837 35.0163 34.6056 42.5289 31.8728 42.5289C29.4277 42.5289 34.2604 33.1093 29.8304 33.1093C25.3717 33.1093 30.2044 42.5289 27.788 42.5289C25.0553 42.5289 24.0772 35.0163 25.0265 31.0867C25.084 30.8555 25.0265 30.5955 24.9402 30.2776C24.9402 30.2776 25.2279 28.2261 25.9758 25.5967C26.1196 25.0188 26.81 24.7588 27.3853 24.7588H32.103V24.7588Z" stroke="#67BC9E" stroke-miterlimit="10" stroke-linecap="round" stroke-linejoin="round"/>
<path d="M3.10675 30.3354L4.0848 26.4347C4.19986 25.9723 4.63135 25.6256 5.12038 25.6256H7.01894C7.50796 25.6256 7.91069 25.9723 8.02575 26.4347C8.37094 27.8216 9.0038 30.5377 8.8312 30.7688" stroke="#67BC9E" stroke-miterlimit="10" stroke-linecap="round" stroke-linejoin="round"/>
<path d="M11.7365 17.1595C11.7365 17.1595 16.9144 18.9221 22.0636 17.1595" stroke="#67BC9E" stroke-miterlimit="10" stroke-linecap="round" stroke-linejoin="round"/>
<path d="M34.7782 17.1595C30.7797 19.2399 24.9689 17.1884 24.8539 17.1595" stroke="#67BC9E" stroke-miterlimit="10" stroke-linecap="round" stroke-linejoin="round"/>
</g>
<defs>
<clipPath id="clip0">
<rect width="38" height="50" fill="white"/>
</clipPath>
</defs>
</svg>
