<svg width="24" height="24" viewBox="0 0 24 24" fill="none" xmlns="http://www.w3.org/2000/svg">
<path d="M14.7099 15.88L10.8299 12L14.7099 8.11999C14.8025 8.02741 14.876 7.9175 14.9261 7.79653C14.9762 7.67557 15.002 7.54592 15.002 7.41499C15.002 7.28406 14.9762 7.15441 14.9261 7.03345C14.876 6.91248 14.8025 6.80257 14.7099 6.70999C14.6174 6.61741 14.5074 6.54397 14.3865 6.49386C14.2655 6.44376 14.1359 6.41797 14.0049 6.41797C13.874 6.41797 13.7444 6.44376 13.6234 6.49386C13.5024 6.54397 13.3925 6.61741 13.2999 6.70999L8.70993 11.3C8.31993 11.69 8.31993 12.32 8.70993 12.71L13.2999 17.3C13.3924 17.3927 13.5023 17.4662 13.6233 17.5164C13.7443 17.5666 13.874 17.5924 14.0049 17.5924C14.1359 17.5924 14.2656 17.5666 14.3866 17.5164C14.5075 17.4662 14.6174 17.3927 14.7099 17.3C15.0899 16.91 15.0999 16.27 14.7099 15.88Z" fill="white"/>
</svg>
