<svg width="26" height="26" viewBox="0 0 26 26" fill="none" xmlns="http://www.w3.org/2000/svg">
<path d="M14.7023 9.95635H12.1025V7.35654C12.1025 6.76064 11.6227 6.28076 11.0268 6.28076C10.4309 6.28076 9.95098 6.76064 9.95098 7.35654V9.95635H7.35117C6.75527 9.95635 6.27539 10.4362 6.27539 11.0321C6.27539 11.628 6.75527 12.1079 7.35117 12.1079H9.95098V14.7077C9.95098 15.3036 10.4309 15.7835 11.0268 15.7835C11.6227 15.7835 12.1025 15.3036 12.1025 14.7077V12.1079H14.7023C15.2982 12.1079 15.7781 11.628 15.7781 11.0321C15.7781 10.4362 15.293 9.95635 14.7023 9.95635Z" fill="#F39035"/>
<path d="M11.032 19.8967C6.13301 19.8967 2.16211 15.9311 2.16211 11.032C2.16211 6.13301 6.13301 2.16738 11.032 2.16738C15.9311 2.16738 19.8967 6.13828 19.8967 11.032C19.8967 15.9258 15.9258 19.8967 11.032 19.8967ZM25.5234 24.01L19.5486 18.0352C21.1148 16.1314 22.0588 13.6898 22.0588 11.032C22.0588 4.94121 17.1229 0 11.0268 0C4.93066 0 0 4.94121 0 11.032C0 17.1229 4.93594 22.0641 11.032 22.0641C13.6898 22.0641 16.1262 21.1254 18.0299 19.5592L24.0047 25.534C24.2789 25.8135 25.1174 25.9506 25.5287 25.534C25.9453 25.1121 25.9453 24.4318 25.5234 24.01Z" fill="#F39035"/>
</svg>
